<?xml version="1.0" standalone="no"?>
<!DOCTYPE svg PUBLIC "-//W3C//DTD SVG 1.1//EN" "http://www.w3.org/Graphics/SVG/1.1/DTD/svg11.dtd" >
<svg xmlns="http://www.w3.org/2000/svg" xmlns:xlink="http://www.w3.org/1999/xlink" version="1.1">
<metadata>
Created by FontForge 20190801 at Wed Jun 10 08:55:59 2020
 By www-data
Ivan Lisichkin
</metadata>
<defs>
<font id="Brusnikanormal_version_02" horiz-adv-x="20" >
  <font-face 
    font-family="Brusnikanormal_version_02"
    font-weight="500"
    font-stretch="normal"
    units-per-em="1000"
    panose-1="0 0 0 0 0 0 0 0 0 0"
    ascent="700"
    descent="-300"
    x-height="282"
    cap-height="501"
    bbox="-7 -347 712 685.6"
    underline-thickness="0"
    underline-position="0"
    unicode-range="U+0020-2117"
  />
<missing-glyph horiz-adv-x="457" 
d="M20 675v-675h417v675h-417zM68 48v579h320v-579h-320z" />
    <glyph glyph-name=".notdef" horiz-adv-x="457" 
d="M20 675v-675h417v675h-417zM68 48v579h320v-579h-320z" />
    <glyph glyph-name=".notdef" horiz-adv-x="457" 
d="M20 675v-675h417v675h-417zM68 48v579h320v-579h-320z" />
    <glyph glyph-name=".null" horiz-adv-x="0" 
 />
    <glyph glyph-name="nonmarkingreturn" horiz-adv-x="333" 
 />
    <glyph glyph-name="space" unicode=" " horiz-adv-x="250" 
 />
    <glyph glyph-name="exclam" unicode="!" horiz-adv-x="229" 
d="M146 190q-10 -2 -18.5 4t-10.5 16q-17 73 -17 383q0 10 6.5 17t17.5 7t17.5 -7t6.5 -16q0 -102 6 -217.5t11 -155.5q1 -10 -4.5 -20t-14.5 -11zM141 138q28 0 48 -16t20 -46q0 -27 -21.5 -51.5t-46.5 -24.5q-26 0 -44 20.5t-18 48.5t18 48.5t44 20.5zM140 42q9 0 18.5 10
t8.5 24q-1 20 -27 20q-8 0 -13.5 -8t-5.5 -19t5.5 -19t13.5 -8z" />
    <glyph glyph-name="quotedbl" unicode="&#x22;" horiz-adv-x="287" 
d="M104 439q19 0 24 17q11 72 11 140q0 11 -8.5 21t-24.5 10q-17 1 -25.5 -10t-8.5 -22q0 -81 11 -136q3 -20 21 -20zM233 435q19 0 23 18q11 44 11 139q0 11 -8 21t-25 10q-16 1 -24.5 -10t-8.5 -22q0 -36 1.5 -63.5t3 -39.5t3.5 -22t2 -11q4 -20 22 -20z" />
    <glyph glyph-name="numbersign" unicode="#" horiz-adv-x="610" 
d="M569 368q7 0 14 -6t7 -14q0 -22 -19 -22l-110 -3q-3 -14 -33 -139q76 1 103 1q22 0 22 -19q0 -23 -19 -23l-117 -2q-16 -76 -28 -122q-6 -20 -25 -20q-11 0 -16.5 7t-3.5 17l26 117l-154 -3q-16 -76 -29 -123q-2 -8 -10 -13.5t-17 -4.5q-22 6 -17 26q3 15 12.5 53.5
t14.5 60.5q-67 -2 -89 -2q-9 0 -15.5 5.5t-6.5 14.5t5.5 15.5t14.5 6.5l99 2q2 9 15 62t19 79q-69 -2 -94 -2q-22 0 -22 19q0 22 20 22l105 3l27 115q2 9 10 14t18 3q11 -2 15.5 -9.5t2.5 -14.5q-2 -8 -10.5 -44.5t-15.5 -62.5l154 3l26 111q1 9 9 14t18 3q21 -4 17 -27
q-11 -46 -23 -101zM379 183q7 28 18.5 76.5t15.5 63.5l-155 -2q-23 -91 -34 -141z" />
    <glyph glyph-name="dollar" unicode="$" horiz-adv-x="439" 
d="M239 -57q-9 0 -15 6t-6 14v44q-100 13 -158 91q-14 19 3 32q17 14 32 -5q46 -62 123 -74q0 24 1 89.5t1 102.5q-102 40 -125 92q-23 50 1 96q29 55 127 66q0 14 1 29v14q0 10 7 16t17 6t16.5 -7.5t6.5 -17.5v-41q105 -10 137 -74q4 -7 1.5 -17t-9.5 -14q-8 -4 -17 -1.5
t-14 9.5q-30 46 -100 55q0 -23 -1.5 -83.5t-1.5 -94.5q2 0 4.5 -1t3.5 -1q29 -9 43 -14t39.5 -18.5t37.5 -28t20 -40t4 -56.5q-11 -70 -104 -101q-26 -9 -53 -10q0 -32 -1 -43q0 -8 -6 -14t-15 -6zM136 352q20 -35 84 -60q0 31 1.5 87t1.5 77q-25 -1 -52 -12.5t-36 -29.5
q-16 -33 1 -62zM372 122q5 46 -19.5 68t-88.5 41q0 -36 -1.5 -98t-1.5 -84q19 0 36 5q30 8 51 27t24 41z" />
    <glyph glyph-name="percent" unicode="%" horiz-adv-x="419" 
d="M117 298q-27 0 -45.5 22t-18.5 57q0 34 19 57.5t45 23.5q28 0 50.5 -19t22.5 -50q0 -32 -24 -61.5t-49 -29.5zM117 418q-7 0 -13.5 -10t-6.5 -26q0 -17 6.5 -28.5t13.5 -11.5q6 0 16.5 16.5t10.5 32.5q0 10 -5.5 17t-11 8.5t-10.5 1.5zM326 182q28 0 50.5 -19t22.5 -52
q0 -32 -23.5 -61.5t-50.5 -29.5q-26 0 -44.5 23.5t-18.5 57.5q0 35 18.5 58t45.5 23zM326 64q6 0 16.5 17t10.5 35q0 14 -9.5 20.5t-17.5 6.5q-7 0 -13.5 -11t-6.5 -28t6.5 -28.5t13.5 -11.5zM371 503q15 -11 5 -33l-43 -72q-43 -73 -111.5 -189t-119.5 -203q-10 -16 -28 -9
q-9 4 -11 14t2 17q47 84 116 200.5t113.5 191t44.5 75.5q4 8 14.5 10.5t17.5 -2.5z" />
    <glyph glyph-name="ampersand" unicode="&#x26;" horiz-adv-x="420" 
d="M161 -10q70 0 113 36q4 3 34 33h2l32 -32q9 -10 22 -20q7 -6 16.5 -6.5t15.5 6.5q13 14 -4 31q-11 11 -30 29.5t-29 28.5l29 49q5 9 2.5 18.5t-10.5 14.5q-22 10 -31 -9q-15 -27 -20 -39h-2q-5 6 -16.5 19.5t-16.5 19.5q-45 59 -63 94q40 30 57 48q34 33 35.5 72
t-28.5 64q-13 12 -36 15t-43 -6q-53 -26 -59 -92q-2 -30 20 -89q-5 -4 -22 -16.5t-23.5 -18t-20.5 -18t-21.5 -22.5t-16 -24.5t-14.5 -30.5q-9 -24 -4.5 -52t20.5 -50q37 -53 112 -53zM166 236h2q12 -21 20 -32q38 -60 86 -111q-25 -33 -50 -48.5t-63 -15.5q-47 0 -74 40
q-8 11 -10 28.5t2 31.5q11 36 52 77zM176 361q2 28 19 48t37 13q19 -6 20.5 -27.5t-25.5 -55.5q-5 -7 -38 -39h-2q-13 36 -11 61z" />
    <glyph glyph-name="quotesingle" unicode="'" horiz-adv-x="200" 
d="M146 453q19 0 23 18q11 44 11 140q0 11 -8.5 20.5t-24.5 10.5q-17 0 -25 -10.5t-8 -21.5q0 -86 10 -136q4 -21 22 -21z" />
    <glyph glyph-name="parenleft" unicode="(" horiz-adv-x="249" 
d="M194 -24q5 -5 14 -6t16 6q5 7 4 16.5t-7 15.5q-16 16 -36.5 43t-46.5 88t-28 121q-1 44 10 91t26.5 81.5t34 65t29.5 44.5t14 17q5 5 4.5 15t-7.5 16q-5 6 -14.5 4.5t-15.5 -9.5q-4 -4 -16 -20t-32.5 -49.5t-37.5 -71t-29.5 -89t-11.5 -99.5q1 -50 16 -99t39.5 -86
t41 -57.5t33.5 -37.5z" />
    <glyph glyph-name="parenright" unicode=")" horiz-adv-x="269" 
d="M101 -16q8 0 20 5q123 132 128 277q2 68 -7 121t-31 93.5t-40 63.5t-50 57q-6 6 -16 7t-16 -5q-12 -12 0 -29q30 -34 46.5 -56.5t35 -59t26 -83t5.5 -106.5q-2 -46 -16.5 -91.5t-35 -77t-36 -51t-25.5 -28.5q-17 -17 -3 -32q8 -5 15 -5z" />
    <glyph glyph-name="asterisk" unicode="*" horiz-adv-x="398" 
d="M354 217q-8 0 -24.5 0.5t-30.5 1t-15 0.5q32 -49 37 -59q10 -20 -7 -29q-8 -4 -16 -1.5t-11 8.5l-40 61q-34 -54 -38 -61q-12 -17 -29 -8q-16 9 -7 30l37 59q-59 1 -71 2q-20 2 -20 22q0 8 6 14t16 6l69 -2q-32 49 -37 59q-9 19 5 29q8 6 18 4.5t14 -9.5l37 -64
q31 52 39 62q11 16 30 7q18 -13 7 -29l-36 -59q60 -2 71 -3q8 0 14 -7t6 -15q-2 -18 -24 -19z" />
    <glyph glyph-name="plus" unicode="+" horiz-adv-x="378" 
d="M230 81q-22 0 -24 27l1 101q-12 0 -41.5 -1.5t-43.5 -1.5q-9 0 -15.5 6.5t-6.5 16.5q0 18 20 21q23 2 88 4l2 105q0 9 7 15.5t17 6.5q11 0 17.5 -6.5t6.5 -15.5v-103q16 0 35.5 0.5t29.5 1t13 0.5q22 0 22 -23q0 -19 -22 -22q-39 0 -78 -2v-105q0 -9 -9 -17t-19 -8z" />
    <glyph glyph-name="comma" unicode="," horiz-adv-x="209" 
d="M187 53q7 -36 -7 -67q-16 -34 -46 -57q-5 -3 -13 -4t-17 6q-13 15 6 32q20 20 26 35q-20 1 -30.5 15t-10.5 32q0 17 13 31.5t31 14.5t31 -10.5t17 -27.5z" />
    <glyph glyph-name="hyphen" unicode="-" horiz-adv-x="376" 
d="M334 202q22 0 22 20t-22 22q-189 7 -214 7q-8 0 -15 -5.5t-7 -14.5q0 -20 22 -22q189 -7 214 -7z" />
    <glyph glyph-name="period" unicode="." horiz-adv-x="196" 
d="M132 -4q17 0 30.5 15t13.5 34q0 17 -13.5 28t-30.5 11t-28.5 -12.5t-11.5 -31.5t11.5 -31.5t28.5 -12.5z" />
    <glyph glyph-name="slash" unicode="/" horiz-adv-x="371" 
d="M66 0q9 -4 19 0.5t14 11.5q23 46 85 159.5t112.5 202.5t52.5 92q4 7 1 17t-10 14q-8 5 -18 2.5t-15 -9.5l-35 -60q-35 -59 -74.5 -128t-82 -148.5t-60.5 -121.5q-9 -23 11 -32z" />
    <glyph glyph-name="zero" unicode="0" horiz-adv-x="389" 
d="M195 474q-73 0 -118 -51q-48 -55 -54 -126q-11 -129 25.5 -203.5t114.5 -93.5q17 -3 34 -3q61 0 104 37q40 35 57 97t9 138q-12 101 -49 147q-22 27 -56 42.5t-67 15.5zM188 432q54 0 90.5 -36.5t44.5 -136.5q6 -64 -9 -115.5t-47 -80.5q-37 -36 -94 -24q-60 13 -87 77
t-19 176q5 56 40 100q34 40 81 40z" />
    <glyph glyph-name="one" unicode="1" horiz-adv-x="205" 
d="M138 -4q11 1 17.5 8t6.5 13q1 36 7 152t11 215.5t5 100.5q0 16 -12 23q-16 8 -29 -3q-26 -22 -112 -108q-16 -17 -2 -31q14 -13 33 0q5 4 37 36q21 21 35 37l3 -2q-5 -44 -6 -75q-19 -326 -19 -341q0 -10 7 -18t18 -7z" />
    <glyph glyph-name="two" unicode="2" horiz-adv-x="384" 
d="M342 45h-180q-15 0 -36.5 1t-27.5 1v3q15 8 64 40q172 116 191 220q19 96 -35 171q-16 21 -44.5 34.5t-55.5 15.5q-131 8 -171 -125q-3 -12 1.5 -22t15.5 -12q9 -2 18 4t11 15q17 61 48 81t73 18q42 -4 64 -35q12 -17 17.5 -29t11.5 -42.5t-3 -64.5q-15 -76 -171 -197
q-14 -10 -49 -33t-48 -35q-6 -5 -7.5 -15t1.5 -16q6 -9 17 -12.5t72.5 -7t187.5 -3.5q5 0 18 0.5t17 0.5q9 0 15.5 6t6.5 15q0 10 -6.5 16.5t-15.5 6.5z" />
    <glyph glyph-name="three" unicode="3" horiz-adv-x="358" 
d="M161 -6q62 -2 113 33q53 34 63 103q5 39 -7 78.5t-31 59.5q-28 30 -65 38v2q30 15 47 40q28 38 22 98q-4 37 -27 64.5t-60 38.5q-40 14 -85.5 2t-69.5 -44q-6 -8 -6.5 -17t6.5 -14q8 -6 17.5 -5t15.5 7q47 47 103 30q24 -8 40 -25.5t19 -41.5q11 -90 -95 -123
q-24 -7 -24 -25q0 -7 6.5 -13t19.5 -6q63 0 96 -33q36 -36 30 -98q-3 -52 -45 -80q-45 -32 -102 -23q-38 6 -75 45q-19 19 -35 7q-7 -5 -8 -15t4 -17q17 -27 54 -46t79 -20z" />
    <glyph glyph-name="four" unicode="4" horiz-adv-x="346" 
d="M294 510q21 0 24 -21q1 -12 4.5 -223.5t3.5 -240.5q0 -10 -6 -17.5t-17 -7.5t-17.5 7t-6.5 16q0 2 -0.5 23.5t-1 58.5t-0.5 75q-70 -4 -133 -4q-100 0 -123 21q-10 10 -5 30q4 13 12 33.5t20 49.5t20 50t28 71.5t29 73.5q9 22 29 15q19 -8 12 -30q-7 -19 -16 -43t-21 -54
t-19 -48q-26 -63 -45 -119q0 -3 2 -3q68 -13 210 -1q-5 205 -5 266q0 9 6.5 15.5t15.5 6.5z" />
    <glyph glyph-name="five" unicode="5" horiz-adv-x="390" 
d="M295 495q-79 0 -201 8q-15 0 -20 -4q-14 -12 -26.5 -86t-12.5 -99q0 -14 9 -19q19 -10 55 2q124 45 179 -20q52 -60 37 -142q-10 -60 -57 -83q-38 -22 -77.5 -17.5t-64.5 16.5t-43 28q-6 6 -17 6t-17 -7q-14 -17 1 -32q21 -21 62.5 -37.5t87.5 -16.5q57 0 95 22
q61 34 80 110q11 45 -0.5 93t-41.5 85q-34 42 -93.5 53t-104.5 -6q-27 -9 -39 -15l-2 2q1 5 3.5 19.5t3.5 22.5q11 65 15 79q57 -6 189 -6q10 0 16.5 6.5t6.5 15.5q0 20 -23 22z" />
    <glyph glyph-name="six" unicode="6" horiz-adv-x="397" 
d="M183 -8q60 -2 110.5 29t69.5 70q32 65 -5 141q-22 46 -65 75.5t-95 34.5q-34 3 -67 -9q-30 -10 -49 -29l-3 2q14 37 39 69q49 66 160 87q22 5 18 27q-5 20 -26 17q-114 -14 -181 -94t-67 -204q0 -122 79 -184q36 -30 82 -32zM68 203q0 24 5.5 37t21.5 28q42 36 97 34
q41 -1 74 -24.5t49 -61.5q28 -60 3 -108q-13 -27 -42 -48t-62 -25q-50 -6 -83 21q-32 25 -47.5 68t-15.5 79z" />
    <glyph glyph-name="seven" unicode="7" horiz-adv-x="329" 
d="M96 -3q-11 1 -16.5 7t-5.5 13q3 78 41 153l20 36v2q-54 5 -65 9q-22 8 -17 25q6 19 28 15q11 -2 74 -9q14 24 38 65.5t42.5 73t21.5 36.5l-1 2q-5 0 -49.5 -0.5t-56.5 -0.5h-102q-22 2 -22 21q0 9 7 15.5t16 6.5h101q125 0 141 -2q14 -4 17 -11q5 -16 -40 -90
q-60 -100 -66 -115v-2h54q23 0 23 -20q0 -18 -22 -21h-75q-61 -110 -64 -189q0 -20 -22 -20z" />
    <glyph glyph-name="eight" unicode="8" horiz-adv-x="388" 
d="M169 -4q112 -1 162 63q26 33 34 75t-2 69q-6 18 -15.5 33.5t-21 27t-23.5 21t-25 16l-22 11t-18 8t-10 3.5v3q27 22 39 39q14 20 17 45.5t-7 50.5q-11 23 -32 39t-46 21q-27 5 -51.5 -8t-40.5 -38q-13 -20 -15 -47t11 -56t41 -46v-4q-9 -3 -24.5 -12.5t-42.5 -34.5
t-44 -55q-19 -35 -17.5 -76t22.5 -76q41 -69 131 -72zM188 300q35 -8 76.5 -38t49.5 -64q15 -66 -23 -112q-41 -48 -119 -48q-28 0 -53.5 14.5t-38.5 38.5q-13 22 -13 54.5t12 54.5q32 61 109 100zM188 483q27 -3 43 -31q7 -14 5 -34t-9 -32q-15 -23 -41 -38q-21 10 -33 27
q-14 19 -15 43.5t9 39.5q17 29 41 25z" />
    <glyph glyph-name="nine" unicode="9" horiz-adv-x="382" 
d="M80 2q46 -5 102 11.5t87 45.5q93 83 93 256q0 41 -14.5 86t-45.5 77q-44 43 -116 41q-46 -2 -85 -23t-60 -56q-20 -33 -22.5 -73t14.5 -77q23 -48 64.5 -77.5t93.5 -33.5q63 -4 110 32l3 -2q-19 -72 -65 -115q-53 -50 -157 -50q-20 0 -22 -21q0 -18 20 -21zM191 477
q43 2 76 -30q46 -43 46 -130q0 -23 -4 -39q-7 -26 -44 -44t-73 -14t-67.5 27.5t-49.5 59.5q-27 56 5 111q33 56 111 59z" />
    <glyph glyph-name="colon" unicode=":" horiz-adv-x="229" 
d="M161 118q17 0 30.5 -11t13.5 -30q0 -17 -14 -32t-30 -15t-27.5 13t-11.5 31t12 31t27 13zM209 315q0 -18 -14 -33.5t-31 -15.5q-16 0 -27.5 13t-11.5 31q0 19 11 31.5t28 12.5q18 0 31.5 -10.5t13.5 -28.5z" />
    <glyph glyph-name="semicolon" unicode=";" horiz-adv-x="184" 
d="M106 260q-15 0 -27.5 12.5t-12.5 29.5q0 18 11.5 31t27.5 13q18 0 31.5 -11t13.5 -29q0 -16 -14.5 -31t-29.5 -15zM160 57q9 -37 -6 -70q-15 -34 -47 -58q-17 -12 -29 1q-14 15 5 32q18 16 27 37q-20 2 -31.5 16.5t-11.5 32.5q0 17 14.5 31.5t32.5 14.5q38 0 46 -37z" />
    <glyph glyph-name="less" unicode="&#x3c;" horiz-adv-x="281" 
d="M147 223q16 -35 103 -91q18 -12 8 -29q-8 -9 -16.5 -8.5t-13.5 3.5q-39 25 -61.5 41t-44 41.5t-24.5 49.5q-5 32 19 62q16 19 34 43t32 44.5t18 25.5q5 8 14.5 9.5t17.5 -3.5q16 -15 5 -31q-55 -78 -84 -115q-16 -22 -7 -42z" />
    <glyph glyph-name="equal" unicode="=" horiz-adv-x="372" 
d="M329 209q-160 0 -216 7q-8 1 -14 7.5t-6 15.5q0 8 6.5 13.5t16.5 5.5q20 -1 213 -8q9 0 16 -7t7 -15q0 -19 -23 -19zM329 98q-4 0 -212 7q-8 1 -15 7.5t-6 14.5q2 22 22 20q14 -1 97.5 -3t116.5 -4q8 -1 14 -7t6 -15q-2 -20 -23 -20z" />
    <glyph glyph-name="greater" unicode="&#x3e;" horiz-adv-x="330" 
d="M306 295q17 -32 -26 -99t-99 -105q-18 -12 -30 4q-6 8 -3.5 18t11.5 15q47 30 80.5 81t27.5 66q-7 17 -39.5 45.5t-64.5 50.5q-7 5 -10 14t0 17q4 7 13 9t16 -2q34 -19 71.5 -53.5t52.5 -60.5z" />
    <glyph glyph-name="question" unicode="?" horiz-adv-x="331" 
d="M212 566q-29 13 -60 5q-70 -21 -70 -116q0 -24 -24 -26q-11 -1 -18.5 7.5t-8.5 18.5q-5 112 94 153q21 8 57.5 8t58.5 -12q56 -30 67 -87q6 -35 -1.5 -69.5t-16.5 -51t-27 -42.5q-14 -23 -21 -41q-7 -17 -7.5 -40.5t2.5 -38.5l3 -15q4 -11 -2.5 -20.5t-17.5 -10.5
q-25 -2 -30 21q-2 6 -4.5 21.5t-1.5 46.5t11 55l30 50q13 23 19 36t10 37.5t1 53.5q-1 16 -14 32.5t-29 24.5zM223 126q28 0 48.5 -16.5t20.5 -45.5q0 -28 -21.5 -52t-47.5 -24q-25 0 -43 20.5t-18 48.5t18 48.5t43 20.5zM223 30q8 0 18 12.5t10 24.5q0 8 -9.5 12.5
t-18.5 4.5q-7 0 -13 -8t-6 -19t6 -19t13 -8z" />
    <glyph glyph-name="at" unicode="@" horiz-adv-x="615" 
d="M587 133q8 -5 8 -15t-5 -16q-87 -115 -255 -115q-139 0 -217 88q-81 92 -74 213t100 209q68 65 178 65q107 0 165 -61q59 -63 72 -148.5t-25 -163.5q-30 -59 -79 -64q-41 -5 -71 32q-45 -27 -88 -27q-34 0 -56 15q-46 29 -53 90q-8 68 32 111q33 35 72 42.5t75 -13.5
q6 16 23 15q22 -2 22 -22l-1 -5v-10q-14 -131 10 -172q14 -21 32 -20q26 4 43 42q30 65 18 138t-61 126q-44 49 -127 49q-89 0 -146 -54q-79 -75 -83 -181t67 -184q68 -77 179 -73q65 2 122 28.5t92 72.5q14 18 31 8zM361 336q-27 18 -57 11.5t-51 -33.5q-26 -35 -19 -79
q6 -46 36 -63q18 -10 46.5 -5.5t52.5 19.5q-12 48 -8 150z" />
    <glyph glyph-name="A" unicode="A" horiz-adv-x="411" 
d="M389 33q7 -31 -13 -37q-13 -3 -21.5 3.5t-10.5 16.5q-19 81 -37 162q-50 5 -159 5q-8 -29 -52 -164q-7 -21 -27 -16q-9 1 -12.5 11t-0.5 17q136 443 140 455q14 41 44 36q32 -3 42 -41zM159 222q17 0 69 -1t69 -1q-13 54 -52 219q-1 4 -3.5 16.5t-3.5 15.5h-3
q-2 -10 -7 -25q-67 -218 -69 -224z" />
    <glyph glyph-name="B" unicode="B" horiz-adv-x="395" 
d="M336 267q42 -38 39 -108q-5 -109 -102 -148q-37 -15 -81 -15q-69 0 -101 32q-7 7 -7 15v147q0 44 1 133t1 128q0 25 52 35q54 9 113.5 -4t77.5 -60q17 -42 -8 -86q-5 -9 -18 -20t-25 -15v-2q27 -4 58 -32zM131 442v-131q24 0 66 5q62 6 83 39q13 14 6 44t-38 42
q-17 7 -46.5 7.5t-49.5 -2.5zM256 53q67 25 72 108q3 60 -35 87q-53 40 -162 24v-79q0 -28 -0.5 -74.5t-0.5 -63.5q19 -11 52.5 -13t73.5 11z" />
    <glyph glyph-name="C" unicode="C" horiz-adv-x="474" 
d="M276 -6q14 0 30 2q104 15 146 121q4 10 -0.5 19.5t-13.5 12.5q-23 5 -31 -15q-30 -85 -110 -96q-43 -5 -83 11.5t-65 48.5q-30 38 -44.5 91t1.5 121.5t71 123.5q39 39 101 39t121 -49q8 -8 19.5 -9t20.5 7q6 8 3.5 18t-8.5 16q-49 45 -120 58q-50 9 -98.5 -6.5
t-78.5 -46.5q-48 -49 -70.5 -108t-19 -112t19.5 -97t42 -74q29 -34 74.5 -55t92.5 -21z" />
    <glyph glyph-name="D" unicode="D" horiz-adv-x="439" 
d="M395 136q65 173 -42 290q-34 38 -101 54.5t-137 5.5q-1 0 -4 -1t-4 -1t-4 -1t-4 -2t-3.5 -2t-3.5 -2.5t-2 -3.5t-1.5 -4.5t-0.5 -5.5q0 -9 3 -172q0 -43 0.5 -135t1.5 -120q0 -8 5 -15q12 -13 47.5 -19.5t80.5 -0.5q60 8 104 44t65 91zM349 149q-12 -35 -40.5 -60
t-49.5 -33.5t-40 -12.5q-56 -11 -79 2q0 199 -1 246q0 27 -2 78.5t-2 74.5q128 11 182 -47q86 -94 32 -248z" />
    <glyph glyph-name="E" unicode="E" horiz-adv-x="338" 
d="M297 39q21 -2 21 -20q0 -8 -7 -13.5t-15 -5.5q-7 0 -44.5 1t-61.5 1q-59 0 -78.5 2t-27.5 10q-6 6 -6 18q4 161 -4 405q0 6 5 13.5t15 8.5q21 3 194 3q24 -1 24 -22q0 -9 -6.5 -14.5t-15.5 -5.5l-169 -2q5 -62 5 -163l133 5q8 0 15 -5.5t7 -13.5q0 -23 -22 -23l-133 -7
q0 -134 -2 -167q15 -3 61 -3q62 0 112 -2z" />
    <glyph glyph-name="F" unicode="F" horiz-adv-x="339" 
d="M298 461q21 0 21 -18q0 -19 -20 -19l-176 -10v-162h140q23 0 23 -22t-24 -22h-139q0 -19 3 -187q0 -10 -6.5 -18t-17.5 -7q-19 1 -21 22q-5 131 -5 414q0 17 20 20z" />
    <glyph glyph-name="G" unicode="G" horiz-adv-x="488" 
d="M271 -4q29 0 48 4q52 9 88.5 40t53.5 79q7 21 7 128q0 21 -22 22q-24 3 -202 3q-9 0 -15.5 -5.5t-6.5 -14.5t5.5 -15.5t14.5 -6.5l177 -3q0 -78 -5 -93q-30 -83 -108 -93q-48 -8 -93.5 7.5t-71.5 48.5q-25 32 -37 88t4 125.5t65 115.5q25 24 55.5 37t78.5 5t94 -49
q7 -6 17.5 -6.5t17.5 6.5q6 6 5.5 16t-6.5 16q-45 43 -102.5 55.5t-107.5 -2.5t-86 -48q-57 -52 -77.5 -129.5t-7.5 -145t48 -111.5q27 -35 73 -54.5t96 -19.5z" />
    <glyph glyph-name="H" unicode="H" horiz-adv-x="411" 
d="M383 169q8 -110 8 -138q0 -7 -6.5 -14.5t-15.5 -7.5q-18 0 -23 20q-4 19 -11 138q-1 13 -2.5 40.5t-2.5 40.5l-192 -25q9 -123 9 -205q0 -9 -6.5 -17t-16.5 -8t-16.5 7t-6.5 17q-1 39 -8.5 153t-14.5 211t-7 98q0 25 18 27q11 1 19 -6t10 -16q6 -47 17 -219l192 25
q-10 171 -8 214q0 7 7 13.5t16 6.5q10 0 17 -7t7 -16q9 -223 17 -332z" />
    <glyph glyph-name="I" unicode="I" horiz-adv-x="156" 
d="M112 -2q9 0 16.5 6.5t7.5 15.5q0 50 -1 255t-1 217q0 26 -24 26q-22 0 -23 -26q-1 -43 -0.5 -119.5t1.5 -198.5t1 -154q0 -9 6.5 -15.5t16.5 -6.5z" />
    <glyph glyph-name="J" unicode="J" horiz-adv-x="342" 
d="M172 -6q57 1 96.5 38t45.5 92q17 136 1 366q-1 10 -8.5 16.5t-16.5 6.5q-11 0 -17.5 -7.5t-6.5 -17.5q13 -250 1 -359q-4 -41 -30 -65.5t-58 -27.5q-66 -7 -91 71q-8 23 -30 18q-10 -1 -13.5 -11.5t-0.5 -18.5q17 -54 51.5 -78t76.5 -23z" />
    <glyph glyph-name="K" unicode="K" horiz-adv-x="452" 
d="M424 70q6 -8 7 -19.5t-5 -18.5q-10 -8 -20.5 -5.5t-15.5 9.5q-91 114 -207 194q-27 19 -51 29l-2 -1q1 -10 1.5 -31.5t0.5 -31.5q2 -78 2 -182q0 -7 -7.5 -14.5t-16.5 -7.5q-23 0 -23 23q0 40 -1.5 158.5t-3.5 222t-2 106.5q0 23 20 23q11 1 17.5 -6.5t6.5 -17.5v-6
q1 -7 1.5 -17.5t0.5 -24.5t0.5 -33.5t0.5 -38.5v-47h2q2 2 8.5 7.5t13.5 12t14 11.5q51 39 172 142q16 12 31 -1q6 -5 5 -15t-8 -16q-103 -87 -168 -135q-40 -29 -53 -38v-2q18 -6 54 -25q131 -78 226 -204z" />
    <glyph glyph-name="L" unicode="L" horiz-adv-x="412" 
d="M370 -4q7 0 14 5t8 12q1 10 -5 16.5t-15 6.5l-244 2q0 32 2 208t2 242q0 21 -22 25q-11 1 -18 -6t-8 -17q-5 -142 -5 -472q0 -7 5.5 -13t14.5 -6q202 -3 271 -3z" />
    <glyph glyph-name="M" unicode="M" horiz-adv-x="588" 
d="M75 -10q21 0 24 23q6 63 18.5 205.5t15.5 181.5q2 19 5 51.5t3 37.5h3q1 -2 12.5 -28t20.5 -44q5 -10 17 -34.5t17 -33.5q38 -78 55 -103t35 -25q16 0 29 13q19 21 81 159q7 16 23.5 54t20.5 47h3q2 -15 6.5 -49t6.5 -50q9 -59 26.5 -196.5t24.5 -179.5q1 -10 8 -16.5
t18 -5.5q22 3 20 25q-9 94 -37 287t-38 235q-6 21 -29 17q-15 -3 -28.5 -25.5t-63.5 -125.5q-36 -73 -66 -138h-3q-21 35 -54 101l-35 70q-29 56 -47 82t-24.5 29.5t-17.5 3.5q-8 0 -14.5 -8t-7.5 -19q-8 -37 -49 -517q-1 -10 5.5 -17t15.5 -7z" />
    <glyph glyph-name="N" unicode="N" horiz-adv-x="465" 
d="M401 -4q12 0 22 8t11 19q16 161 8 463q0 7 -7 13.5t-16 6.5q-10 0 -17 -7.5t-6 -16.5q2 -64 2 -327v-49t-1 -48h-3q-7 11 -24.5 43.5t-24.5 44.5q-10 17 -29 52t-28 51q-91 172 -130 222q-11 15 -24 19t-21 1q-10 -3 -16 -9t-13 -39t-9 -92q-5 -115 6 -325q0 -8 6.5 -14
t15.5 -6q8 0 15 6.5t7 15.5q-11 183 -7 322q4 87 5 91h3q8 -13 22 -41t18 -35q15 -26 43.5 -79t33.5 -61q78 -140 108.5 -184.5t49.5 -44.5z" />
    <glyph glyph-name="O" unicode="O" horiz-adv-x="519" 
d="M262 2q41 0 70 13q61 27 100.5 70.5t54 94.5t12.5 103t-19 102q-14 39 -50.5 72.5t-86.5 49.5q-46 15 -94 12.5t-83 -23.5q-78 -47 -104.5 -126.5t-13.5 -161.5q8 -51 43 -104t89 -82q39 -20 82 -20zM258 478q41 0 64 -10q39 -14 68.5 -41.5t39.5 -56.5
q15 -42 17.5 -86.5t-9 -88.5t-44 -81.5t-83.5 -59.5q-55 -22 -109 6q-43 22 -70.5 67.5t-34.5 87.5q-14 79 12.5 147.5t85.5 97.5q39 18 63 18z" />
    <glyph glyph-name="P" unicode="P" horiz-adv-x="368" 
d="M110 0q11 0 19 7.5t8 17.5q0 91 -3 143q121 3 172 56q45 45 42 121q-2 50 -32 87t-86 53q-38 11 -85.5 7.5t-66.5 -22.5q-5 -5 -5 -15q15 -285 15 -430q0 -9 6 -17t16 -8zM121 448q14 7 40 8t58 -9q30 -10 55.5 -35.5t25.5 -69.5q0 -61 -29 -89q-44 -44 -139 -44
q-6 110 -11 239z" />
    <glyph glyph-name="Q" unicode="Q" horiz-adv-x="511" 
d="M383 48q33 -38 74 -64q17 -13 5 -32q-9 -8 -19 -6.5t-13 4.5q-46 32 -79 76q-1 0 -8 -4.5t-13.5 -7t-17 -6.5t-24.5 -6t-30 -2q-51 0 -89 21q-51 27 -84.5 79.5t-42.5 104.5q-15 81 12 159.5t106 124.5q37 22 82 26t92 -12q96 -37 135 -127q38 -86 11 -183
q-11 -40 -38.5 -81t-58.5 -64zM196 55q26 -16 72 -13t76 26q51 39 75 91.5t23.5 102.5t-18.5 103q-11 31 -40 59t-68 42q-41 11 -76.5 7t-55.5 -17q-59 -36 -82.5 -101t-11.5 -145q6 -41 34.5 -86.5t71.5 -68.5z" />
    <glyph glyph-name="R" unicode="R" horiz-adv-x="432" 
d="M409 40q10 -18 -4 -32q-5 -6 -17 -4.5t-19 11.5q-28 39 -59.5 81t-49 64.5t-18.5 24.5q-52 -15 -106 -15v-145q0 -10 -6.5 -17.5t-17.5 -7.5q-23 0 -23 25v305q0 28 -1 74t-1 61q0 10 12 17q34 20 93.5 20.5t105.5 -25.5q72 -43 72 -130q0 -74 -47 -121q-11 -11 -37 -26
q110 -134 123 -160zM136 207q112 6 155 49q33 33 32 96q-2 64 -53 92q-31 17 -72 18t-64 -9q0 -16 1 -57t1 -66v-123z" />
    <glyph glyph-name="S" unicode="S" horiz-adv-x="430" 
d="M226 -6q22 0 34 2q98 12 133 76q31 59 7 118q-24 63 -130 104q-45 17 -70 28t-50 30t-30 39q-10 37 8 63q35 51 117 46q71 -3 97 -56q4 -9 14.5 -13t19.5 0q7 4 10.5 13.5t-0.5 18.5q-14 35 -52 57t-88 25q-52 4 -95.5 -14.5t-65.5 -53.5q-29 -49 -10 -99
q25 -68 173 -124q88 -33 105 -79q16 -38 -4 -83q-22 -48 -99 -56q-94 -12 -167 73q-7 8 -17.5 9.5t-17.5 -4.5q-7 -5 -7.5 -16t5.5 -18q74 -86 180 -86z" />
    <glyph glyph-name="T" unicode="T" horiz-adv-x="412" 
d="M373 478q8 0 13.5 -6.5t5.5 -15.5t-6.5 -15.5t-15.5 -6.5q-81 0 -135 -3q2 -78 2 -405q0 -9 -7 -15.5t-17 -6.5q-23 0 -23 22q0 327 -2 405q-23 -1 -77 -4t-61 -3t-13 6t-6 14q0 20 19 22q156 12 323 12z" />
    <glyph glyph-name="U" unicode="U" horiz-adv-x="511" 
d="M299 0q23 0 46 5q105 23 134 121q4 16 7 52t4 77t1 87.5t-1 82.5t-1.5 63.5t-0.5 28.5q0 9 -6.5 16t-17.5 7q-24 -1 -24 -26q7 -322 -5 -374q-10 -42 -41.5 -64.5t-65.5 -28.5q-47 -8 -92 6.5t-72 48.5q-30 36 -40 122q-4 63 -3.5 104.5t3.5 105t3 85.5q0 25 -24 27
q-11 0 -19.5 -7.5t-8.5 -16.5q0 -8 -4 -85t-3.5 -105t5.5 -108q10 -93 49 -147q25 -37 73 -57t104 -20z" />
    <glyph glyph-name="V" unicode="V" horiz-adv-x="544" 
d="M281 -4q17 0 27.5 13.5t27.5 49.5q24 51 94.5 214t92.5 226q6 22 -13 28q-18 7 -29 -14q-72 -178 -150 -356q-18 -42 -46 -112h-4q-4 13 -18 46t-20 48q-21 53 -54.5 140t-57.5 148t-35 86q-4 9 -13 14t-19 4q-9 -2 -13.5 -11.5t-0.5 -19.5q24 -64 98.5 -246.5
t97.5 -230.5q14 -27 35 -27z" />
    <glyph glyph-name="W" unicode="W" horiz-adv-x="684" 
d="M556 -4q18 -1 25 18q13 34 42 208.5t41 285.5q2 9 -3.5 16.5t-15.5 8.5q-21 3 -25 -19q-16 -122 -55 -370q-12 -72 -16 -88l-5 -1q-7 11 -24 42t-23 42q-7 12 -18 32t-16 29q-68 114 -72 120q-14 18 -31 16q-18 -1 -38 -31.5t-76 -134.5q-9 -17 -14 -26q-34 -62 -42 -76
h-5q-2 5 -9 38.5t-9 40.5q-15 66 -25 124.5t-19.5 134.5t-14.5 107q-1 9 -9 15.5t-17 6.5q-11 0 -18 -8.5t-6 -18.5q16 -177 72 -416q11 -52 20 -69q5 -8 7.5 -11t7.5 -5.5t12 -2.5q9 0 15.5 4t26.5 32t51 83q11 19 41 73q45 85 48 90h5q1 -3 21.5 -43t34.5 -63
q69 -120 94 -152q23 -31 42 -32z" />
    <glyph glyph-name="X" unicode="X" horiz-adv-x="485" 
d="M452 515q21 -9 10 -30q-15 -30 -186 -240q89 -117 167 -195q15 -15 5 -32q-5 -8 -16 -8.5t-16 3.5q-44 26 -172 195q-163 -198 -169 -204q-5 -6 -14.5 -7t-16.5 4q-16 14 -1 32q134 159 174 209q-14 18 -43 56.5t-45 59.5t-35.5 51t-31.5 54q-4 7 -3 18.5t9 16.5
q7 5 17.5 2.5t15.5 -10.5q61 -98 147 -211q101 123 175 226q12 17 29 10z" />
    <glyph glyph-name="Y" unicode="Y" horiz-adv-x="472" 
d="M438 558q9 -4 12.5 -13.5t-1.5 -19.5q-43 -86 -52 -106q-16 -35 -48 -99.5t-43 -87.5q-16 -34 -16 -36q0 -10 -0.5 -35.5t-0.5 -41.5v-93q0 -10 -7.5 -17.5t-17.5 -7.5q-12 0 -18 8.5t-6 18.5v94q0 59 -2 74q0 2 -4 10q-7 12 -26 45t-28 48q-20 35 -44 76t-50.5 86
t-37.5 64q-11 23 7 35q10 6 20.5 2.5t15.5 -11.5q59 -96 124 -218q37 -70 47 -88h3q3 7 18 40t21 46q28 60 52 110q32 69 51 106q9 18 31 11z" />
    <glyph glyph-name="Z" unicode="Z" horiz-adv-x="529" 
d="M285 3q143 0 200 4q11 1 18 6t6 16q-1 22 -25 20q-48 -3 -196.5 -1t-164.5 9q-8 3 -3 10q46 49 140 125q91 73 133 116q71 71 78 111q5 23 -12 39q-9 9 -24.5 15t-35.5 10t-44.5 6t-49 2.5t-50.5 0t-49 -2t-44 -3t-35.5 -3t-24.5 -2.5l-9 -1q-20 -5 -17 -25q3 -19 27 -17
q47 4 108 7t127 0.5t87 -13.5q6 -3 3 -11q-17 -28 -84 -92q-30 -27 -118 -102q-6 -5 -26 -22t-27 -23.5t-23 -20.5t-23.5 -21.5t-18.5 -18t-18 -19t-12 -16.5q-17 -27 -4 -46q19 -37 211 -37z" />
    <glyph glyph-name="bracketleft" unicode="[" horiz-adv-x="316" 
d="M88 -36q0 -7 6.5 -15t16.5 -8q18 0 91 1t75 1q8 0 14 6.5t5 15.5q-2 20 -22 20l-145 -2q5 85 -2 309q-5 192 -5 199q124 -4 140 -4q22 -1 22 20t-19 21q-3 0 -78.5 3t-83.5 2q-10 0 -16.5 -7t-6.5 -16q0 -75 5 -218q3 -76 3 -328z" />
    <glyph glyph-name="backslash" unicode="\" horiz-adv-x="364" 
d="M304 11q11 -17 29 -8q19 9 8 30q-20 44 -81.5 156t-114.5 205t-54 96q-4 8 -13.5 10t-17.5 -2q-18 -10 -8 -31q23 -38 252 -456z" />
    <glyph glyph-name="bracketright" unicode="]" horiz-adv-x="317" 
d="M289 -31q0 252 3 329q5 143 5 217q0 9 -6.5 16t-16.5 8q-7 0 -81 -2.5t-80 -2.5q-20 0 -20 -21q0 -22 22 -21l140 5q0 -72 -5 -199q-7 -224 -2 -310q-133 3 -145 3q-20 0 -22 -20q0 -9 5.5 -15.5t13.5 -6.5q76 0 166 -3q10 0 16.5 8t6.5 15z" />
    <glyph glyph-name="asciicircum" unicode="^" horiz-adv-x="411" 
d="M224 457q17 8 43.5 -24.5t55.5 -91t41 -85t24 -54.5q7 -21 -6 -30q-8 -6 -17 -3t-14 12q-3 6 -34.5 72t-54.5 107t-31 38t-27 -34t-36 -64t-36.5 -72.5t-22.5 -44.5q-11 -20 -32 -12q-16 7 -8 28q14 39 72.5 143.5t82.5 114.5z" />
    <glyph glyph-name="underscore" unicode="_" horiz-adv-x="391" 
d="M349 -102q22 0 22 19q0 21 -22 23q-54 2 -274 2q-8 0 -15 -5.5t-7 -14.5q0 -21 22 -23q27 -1 274 -1z" />
    <glyph glyph-name="grave" unicode="`" horiz-adv-x="283" 
d="M224 510q16 -16 30 -7q17 9 5 29q-8 13 -19 38t-23.5 56t-16.5 40q-3 10 -15 16t-24 2t-15.5 -17t0.5 -20q11 -31 34 -73.5t44 -63.5z" />
    <glyph glyph-name="a" unicode="a" horiz-adv-x="326" 
d="M303 55q11 -23 -5 -34q-16 -12 -32 4q-5 5 -15 25l-3 -1q-18 -26 -37 -38q-38 -22 -92 -8q-52 15 -75 62t-6 105q13 46 61 67t118 12q0 46 -4 59q-9 28 -45 37q-58 14 -91 -32q-5 -8 -16 -11t-18 2q-8 6 -9.5 15.5t4.5 17.5q25 35 66 45.5t79 2.5q60 -13 77 -70
q4 -15 6 -54q1 -9 2.5 -43t4 -58.5t6.5 -45.5q2 -11 8 -26t11 -24zM138 42q31 -8 60.5 10t38.5 40q-11 37 -15 115q-41 6 -83 -2.5t-52 -46.5q-11 -43 3 -74.5t48 -41.5z" />
    <glyph glyph-name="b" unicode="b" horiz-adv-x="342" 
d="M277 240q48 -48 44 -128q-1 -33 -23 -60.5t-56 -40.5q-31 -11 -61 -11q-43 0 -77 26q-8 -31 -32 -26q-22 3 -16 31q6 27 7 58q4 58 0 170q-4 142 0 217q2 21 24 21q9 0 16 -7t7 -17q-5 -92 -1 -193q51 7 97.5 -4.5t70.5 -35.5zM110 68q54 -43 110 -20q22 9 36 27.5
t16 39.5q4 58 -29 91q-23 23 -60 30.5t-71 0.5q3 -62 -2 -169z" />
    <glyph glyph-name="c" unicode="c" horiz-adv-x="298" 
d="M148 -3q59 0 118 47q17 14 3 34q-5 7 -16.5 7t-18.5 -6q-54 -50 -107 -37q-33 9 -45 41q-26 71 -5 118q15 35 54 51q36 13 64 -1q25 -12 37 -59q2 -8 10.5 -13.5t19.5 -2.5q9 2 13 10.5t2 17.5q-15 58 -60 84q-43 22 -101 2q-51 -18 -78 -71q-31 -61 2 -147
q20 -56 77 -71q13 -4 31 -4z" />
    <glyph glyph-name="d" unicode="d" horiz-adv-x="313" 
d="M272 11q-18 -1 -24 19q-40 -24 -86 -24q-32 0 -61 12q-67 29 -74 99q-8 67 47 118q31 29 76.5 40t89.5 2q-2 48 -11 204q-1 9 5 16.5t14 7.5q9 1 17 -4.5t9 -14.5q5 -73 10 -185.5t7 -184.5t2 -83q0 -8 -5.5 -14.5t-15.5 -7.5zM121 55q26 -11 62 -5t63 27q0 33 -5 163
q-36 8 -75 -1.5t-63 -33.5q-35 -35 -32 -83q5 -49 50 -67z" />
    <glyph glyph-name="e" unicode="e" horiz-adv-x="320" 
d="M173 1q61 2 113 41q7 6 8 16t-5 16q-16 16 -35 0q-50 -39 -104 -30q-15 3 -33 17.5t-23 35.5q52 7 115.5 29t79.5 40q21 26 5 58t-54.5 52t-82.5 12q-67 -11 -97 -64q-43 -73 -6 -152q16 -34 50.5 -53.5t68.5 -17.5zM163 249q51 7 81 -29q5 -6 7 -12t2 -10t-2 -5
q-20 -14 -76 -33.5t-90 -21.5q-5 33 12 67q21 36 66 44z" />
    <glyph glyph-name="f" unicode="f" horiz-adv-x="349" 
d="M131 -4q-10 0 -17.5 7t-6.5 17q0 4 0.5 33t1 80t0.5 108q-10 0 -38 0.5t-42 1.5q-9 0 -15 7.5t-6 16.5q0 22 25 22q10 -1 37.5 -1.5t40.5 -0.5v66q0 29 14.5 59.5t44.5 46.5q56 27 126 -27q7 -5 8.5 -14t-3.5 -17q-4 -6 -13 -6.5t-17 5.5q-51 36 -82 21q-31 -17 -31 -66
v-69q120 -2 147 -2q10 0 17 -6.5t7 -17.5q0 -20 -23 -20q-86 0 -148 2q0 -47 -0.5 -98t-1 -85t-0.5 -40q0 -9 -7 -16t-18 -7z" />
    <glyph glyph-name="g" unicode="g" horiz-adv-x="383" 
d="M340 -99q23 -23 23 -57q0 -44 -41 -71q-39 -27 -117 -27q-71 0 -113 20q-53 25 -54 74q-2 42 35 78q-20 17 -26 35q-15 53 43 88q-35 39 -42 84q-11 63 7.5 113.5t63.5 77.5q64 39 131 11q15 -6 24 -13q16 20 32 44q5 8 15 9.5t17 -4.5q13 -12 3 -29q-3 -6 -16 -23
t-16 -22q23 -23 32 -49q16 -47 11 -96.5t-27 -87.5q-17 -30 -51 -50.5t-71 -20.5q-46 0 -81 24q-22 -10 -27.5 -19t-4.5 -22q1 -9 9.5 -18t19.5 -12q38 -11 91 -8q96 3 130 -29zM132 271q-29 -22 -37.5 -64.5t-1.5 -76.5q9 -44 41 -76.5t81 -24.5q44 7 68 47q18 29 21 71
t-10 79q-16 40 -59 60q-52 23 -103 -15zM294 -195q18 10 21.5 32t-10.5 36q-22 20 -92 16q-61 -4 -101 7q-28 -19 -28 -53q0 -27 31 -43q30 -15 87 -14t92 19z" />
    <glyph glyph-name="h" unicode="h" horiz-adv-x="342" 
d="M289 -7q-8 1 -12 8t-5 12.5t0 9.5q12 169 -6 196q-13 21 -34 27q-38 9 -71 4t-56 -16q-4 -188 -5 -214q-1 -9 -8.5 -16t-17.5 -6q-11 1 -16.5 9t-5.5 19q10 322 0 446q-2 25 18 28q10 2 18.5 -4.5t11.5 -15.5q7 -31 7 -154q0 -37 -1 -52l1 -1q21 14 46 18q59 11 99 -3
q44 -16 59 -49q10 -21 11 -112t-4 -112q-3 -26 -29 -22z" />
    <glyph glyph-name="i" unicode="i" horiz-adv-x="191" 
d="M99 316q11 0 18 -6.5t7 -14.5v-20q1 -20 1.5 -51t1 -66t1 -72t0.5 -62q0 -9 -8.5 -16t-17.5 -7t-16 7.5t-7 16.5v61.5t-0.5 71t-1 65t-0.5 50.5v20q0 9 6 16t16 7zM102 505q26 0 47.5 -16.5t21.5 -44.5t-22 -52.5t-47 -24.5t-43.5 20.5t-18.5 48.5t19 48.5t43 20.5z
M102 409q6 0 16 12t10 23q0 19 -26 19q-8 0 -14 -8t-6 -19q0 -10 6.5 -18.5t13.5 -8.5z" />
    <glyph glyph-name="j" unicode="j" horiz-adv-x="267" 
d="M196 263q25 1 27 -25q16 -254 0 -367q-7 -43 -34.5 -75t-70.5 -31q-28 0 -57 17t-40 60q-4 26 15 29q21 5 29 -18q7 -23 22.5 -34t33.5 -10q21 2 36 21.5t18 45.5q3 23 4.5 50.5t0.5 69.5t-1.5 66.5t-2.5 87.5t-3 86q0 9 6 17.5t17 9.5zM179 319q-26 0 -44 19t-18 47
t18 48.5t44 20.5t47 -16t21 -43q0 -28 -21.5 -52t-46.5 -24zM179 415q-8 0 -14 -9t-6 -21q0 -11 6 -19t14 -8t17.5 12.5t9.5 24.5q0 20 -27 20z" />
    <glyph glyph-name="k" unicode="k" horiz-adv-x="315" 
d="M87 -6q-10 0 -17.5 6.5t-7.5 17.5q0 28 -2 84.5t-4 118t-4.5 118.5t-4.5 95l-2 37q0 9 6.5 16t15.5 7q23 0 25 -20q0 -4 1.5 -31.5t4 -75t4.5 -91.5q1 -31 1 -72h2q94 85 116 102q18 13 32 -1q5 -5 4 -15.5t-8 -15.5q-27 -21 -75.5 -62.5t-59.5 -52.5v-2q18 -5 34 -15
q82 -40 140 -98q7 -7 7.5 -17.5t-7.5 -17.5q-17 -14 -34 3q-25 23 -76.5 59t-67.5 42l-2 -1q0 -6 1.5 -45.5t1.5 -47.5q0 -11 -7 -18t-17 -7z" />
    <glyph glyph-name="l" unicode="l" horiz-adv-x="254" 
d="M135 0q48 0 90 35q6 6 8 15t-3 16q-15 20 -36 3q-49 -38 -76 -24q-16 8 -24 29t-8 39v167t-0.5 121.5t-0.5 47.5q0 8 -7.5 15t-18.5 7q-9 0 -16 -7t-7 -16q0 -2 0.5 -35t1 -111t0.5 -189q0 -28 14.5 -59.5t44.5 -46.5q15 -7 38 -7z" />
    <glyph glyph-name="m" unicode="m" horiz-adv-x="408" 
d="M26 0q18 -3 24 15q26 88 45 159q2 10 5.5 23l7 26t4.5 18h2q10 -26 17 -40q27 -50 38 -61q12 -12 24 -7q23 6 61 73q15 25 27 50h3q3 -8 8.5 -28.5t6.5 -23.5q22 -88 31 -117q6 -23 15 -50q7 -19 27 -15q19 3 15 29q-2 17 -11 52q-34 131 -51 168q-17 35 -36 39
q-20 2 -32 -18q-25 -39 -39 -63q-5 -8 -13 -22t-10 -18h-2q-3 5 -11 20t-13 26q-19 36 -31.5 51.5t-28.5 15.5q-20 0 -26 -22q-17 -47 -29 -91q-8 -27 -22 -81.5t-21 -78.5q-7 -23 15 -29z" />
    <glyph glyph-name="n" unicode="n" horiz-adv-x="359" 
d="M78 -3q8 0 14 7t6 14t-2 86.5t-2 103.5v66h3q7 -16 35 -65q45 -80 93 -145q47 -64 80 -60q13 1 21 13.5t10 30.5q4 63 3 155t-4 116q-1 7 -7.5 13t-13.5 6q-8 0 -13.5 -6.5t-5.5 -15.5q0 -4 1 -91t1 -120q0 -9 0.5 -29t0.5 -28h-3q-11 12 -38 52q-8 12 -88 142
q-9 14 -23 37.5t-21 34.5q-10 16 -26.5 20.5t-26.5 -3.5q-18 -13 -19 -64q-4 -160 3 -246q1 -10 7 -17t15 -7z" />
    <glyph glyph-name="o" unicode="o" horiz-adv-x="352" 
d="M110 318q-39 -19 -64 -75t-15 -114q6 -33 30 -66.5t59 -53.5q24 -14 57 -15.5t46 7.5q52 25 80 67.5t29 87t-10 91.5q-8 26 -33.5 49.5t-60.5 33.5q-31 10 -56.5 7.5t-61.5 -19.5zM128 279q41 26 84 13q23 -6 41 -24t24 -36q8 -22 9.5 -47.5t-4 -54.5t-26.5 -54t-55 -38
q-29 -12 -61 5q-26 13 -43 40.5t-21 52.5q-9 44 9.5 86t42.5 57zM268 514z" />
    <glyph glyph-name="p" unicode="p" horiz-adv-x="321" 
d="M126 -233q-18 -4 -24 19q-11 54 -34 213q-26 163 -38 216q-4 21 11 30q19 10 33 -8q23 20 65 26t58 0q83 -19 100 -79q16 -55 -23 -105q-27 -34 -73.5 -53.5t-86.5 -19.5q6 -41 16.5 -112t14.5 -99q2 -10 -3.5 -18.5t-15.5 -9.5zM108 46q33 0 71.5 16t58.5 43
q25 34 13 67q-13 38 -67 50q-52 12 -101 -21q3 -18 11.5 -71t13.5 -84z" />
    <glyph glyph-name="q" unicode="q" horiz-adv-x="297" 
d="M246 -206q-10 -1 -15.5 5.5t-5.5 15.5q0 28 0.5 61.5t1.5 75t1 65.5q-41 -12 -69 -11q-54 2 -87 28q-67 51 -53 143q11 73 81 102q66 27 134 -10q3 19 21 19q8 0 15 -6.5t7 -15.5q0 -82 -4 -183q-4 -184 -7 -270q-2 -18 -20 -19zM96 70q51 -39 132 -8l5 167
q-54 37 -115 14q-49 -20 -57 -71q-13 -64 35 -102z" />
    <glyph glyph-name="r" unicode="r" horiz-adv-x="308" 
d="M83 1q-20 0 -24 23q-6 43 -6 108q0 31 -3 58q-3 39 -17 75q-9 25 8 33q9 4 19 0t15 -13q7 -15 12 -42h2q19 24 39 40q53 38 97 29q52 -9 62 -53q7 -22 -13 -30q-21 -9 -30 17q-8 22 -24 24q-29 4 -62.5 -14t-60.5 -57q0 -20 2 -64q6 -94 7 -108q1 -9 -6 -17t-17 -9z" />
    <glyph glyph-name="s" unicode="s" horiz-adv-x="305" 
d="M157 -18q13 0 20 1q32 4 58.5 20t37.5 38q22 42 5 84q-18 44 -89 71q-86 33 -98 59q-7 17 5 37q19 30 71 27q44 -4 59 -35q11 -22 32 -13t10 31q-11 24 -37.5 39.5t-60.5 16.5q-38 2 -70 -10.5t-46 -36.5q-22 -35 -10 -71q3 -9 8.5 -17t14.5 -15.5t16 -12.5t20.5 -11.5
t20.5 -10t23.5 -10t22.5 -9.5q50 -22 64 -49q9 -19 -5 -47q-15 -29 -59 -34q-62 -8 -101 44q-5 7 -15 9t-17 -3q-9 -5 -10 -15.5t5 -17.5q51 -59 125 -59z" />
    <glyph glyph-name="t" unicode="t" horiz-adv-x="335" 
d="M43 293q-23 0 -23 24q0 8 5.5 14.5t14.5 7.5q47 4 81 5q-2 64 -2 113q0 8 6 15t16 7q20 0 25 -20q2 -12 2 -113q20 0 57.5 1.5t48.5 1.5q24 0 24 -21q0 -11 -7 -17.5t-16 -6.5q-35 0 -104 -3v-179q0 -54 30 -68q41 -18 78 19q5 6 15.5 5.5t16.5 -7.5q5 -8 3.5 -17.5
t-8.5 -14.5q-45 -35 -86 -35q-24 0 -40 8q-56 31 -56 106v180q-80 -5 -81 -5z" />
    <glyph glyph-name="u" unicode="u" horiz-adv-x="329" 
d="M305 32q12 -23 -4 -33q-20 -13 -31 6q-1 1 -4 7.5t-5 9.5h-2q-15 -11 -40 -19q-44 -12 -81 -8q-79 8 -93 84q-13 68 7 199q2 8 10 14t18 4q22 -5 19 -26q-18 -133 -7 -184q9 -45 50 -49q62 -6 105 22q-5 28 -5 219q0 9 7 16.5t17 6.5q23 -2 23 -23q0 -181 2 -199
q2 -20 14 -47z" />
    <glyph glyph-name="v" unicode="v" horiz-adv-x="293" 
d="M167 -10q26 0 34 21q8 19 56 203q9 32 15 64q6 22 -13 27q-19 3 -25 -15q-2 -6 -17 -64q-3 -13 -17 -64t-20 -77q-8 -28 -12 -51h-3q-1 1 -18 46q-38 89 -85 205q-8 18 -30 15q-8 -2 -12 -11t-2 -16q27 -82 109 -259q12 -24 40 -24z" />
    <glyph glyph-name="w" unicode="w" horiz-adv-x="410" 
d="M254 17q16 -27 39 -23q21 2 34 33.5t35 116.5q2 10 3.5 15.5t4 15t4.5 17.5q7 25 15 64q4 20 -15 25q-8 2 -15 -2.5t-9 -13.5t-7.5 -30.5t-8.5 -32.5q-2 -9 -15.5 -59t-18.5 -72q-2 -5 -4 -15l-3 -15h-2q-1 3 -6 13.5t-6 13.5q-13 24 -20 36t-19.5 24t-25.5 12
q-22 0 -36 -23q-6 -9 -24 -39q-8 -16 -18 -32h-3q-8 30 -9 35q-7 29 -25 90t-27 96q-2 7 -11.5 12t-18.5 3q-10 -2 -14.5 -10.5t-2.5 -17.5q39 -141 69 -234q9 -26 30 -26q11 0 22 8.5t18.5 19.5t20.5 33q3 5 12.5 21t12.5 21h2l4.5 -9l6 -12l5.5 -11q23 -44 26 -48z" />
    <glyph glyph-name="x" unicode="x" horiz-adv-x="341" 
d="M311 344q17 -9 7 -27q-10 -21 -122 -157q65 -86 105 -121q8 -7 11 -16.5t-2 -19.5q-11 -16 -32 -2q-43 33 -109 125q-94 -118 -106 -130q-5 -5 -13 -7t-16 3q-17 12 -2 31q9 11 49 60.5t63 76.5q-6 8 -28 37t-31 41t-22 31.5t-20 33.5q-10 19 8 29q5 4 16 2t16 -9
q55 -89 88 -133q15 18 111 143q12 17 29 9z" />
    <glyph glyph-name="y" unicode="y" horiz-adv-x="334" 
d="M292 301q10 -1 16.5 -8.5t4.5 -14.5q0 -2 -4.5 -25.5t-8.5 -47.5t-12.5 -59t-17 -64t-20.5 -58t-25 -46q-77 -101 -172 -98q-10 0 -16.5 6t-5.5 14q2 19 24 19q20 0 42 7q32 9 69 46t46 72q-46 17 -88 57.5t-62.5 72t-33.5 60.5q-10 23 8 32q8 3 17.5 0t14.5 -10
q48 -88 87 -127q34 -34 71 -48q20 71 41 199q2 21 25 21z" />
    <glyph glyph-name="z" unicode="z" horiz-adv-x="349" 
d="M144 2q22 0 87.5 3.5t74.5 5.5q11 1 17 8t6 14q0 8 -6.5 14t-16.5 6q-6 0 -25 -1.5t-29 -1.5q-130 -10 -166 0q-7 1 -2 6q11 14 95 81q93 74 119 106q23 29 28 53q5 23 -12 40q-20 20 -79.5 21.5t-104.5 -5t-84 -14.5q-9 -2 -15 -8.5t-5 -15.5q3 -22 27 -18q76 16 145 18
t81 -8q6 -2 3 -10q-4 -9 -12.5 -19.5t-17 -19.5t-25.5 -23t-26 -21t-30 -23t-27 -21q-89 -73 -106 -101q-10 -18 1 -39q18 -27 105 -27z" />
    <glyph glyph-name="braceleft" unicode="{" horiz-adv-x="366" 
d="M233 -46q57 0 83 5q20 3 20 22q0 9 -6.5 15t-15.5 5q-67 -4 -79 -3q-50 5 -54 72q-2 29 -2 72q-2 63 -47 91q-9 6 -37 20v3q19 6 42 16q44 19 47 73q4 70 7 91q3 24 10.5 39.5t17.5 21t15.5 7t12.5 1.5q14 0 43 -1.5t34 -1.5q9 0 15.5 5.5t6.5 14.5t-5.5 15.5t-14.5 6.5
l-15 1q-15 1 -34.5 1.5t-31.5 0.5q-39 0 -65 -27.5t-31 -76.5q-1 -9 -3.5 -48t-3.5 -48q-4 -21 -23 -36q-5 -4 -32.5 -17.5t-36.5 -18.5q-10 -6 -10 -18t8 -18q10 -8 34 -22.5t30 -18.5q25 -19 25 -62q0 -42 2 -71q4 -47 30 -78.5t64 -32.5z" />
    <glyph glyph-name="bar" unicode="|" horiz-adv-x="200" 
d="M160 -74q10 1 16 8t4 16q-4 28 -9.5 259.5t-5.5 356.5q0 9 -6 15.5t-16 6.5q-9 0 -15.5 -6.5t-6.5 -15.5q0 -568 17 -625q7 -17 22 -15z" />
    <glyph glyph-name="braceright" unicode="}" horiz-adv-x="366" 
d="M153 -46q38 1 64 32.5t30 78.5q2 29 2 71q0 43 25 62q7 5 30.5 19.5t33.5 21.5q8 6 8 18t-11 18q-9 6 -36 19t-32 17q-19 15 -23 36q-1 9 -3.5 48t-3.5 48q-5 48 -31 76t-65 28q-12 0 -31.5 -0.5t-34.5 -1.5l-15 -1q-20 0 -20 -22q0 -9 6.5 -14.5t15.5 -5.5q4 0 33 1.5
t43 1.5q8 0 13.5 -1.5t15.5 -7t17.5 -21t10.5 -39.5q3 -21 7 -91q3 -54 47 -73q23 -11 42 -16v-3q-28 -14 -37 -20q-45 -28 -47 -91q0 -8 -0.5 -31.5t-1.5 -40.5q-1 -12 -4 -25t-16 -29t-34 -18q-12 -1 -79 3q-9 1 -15.5 -5t-6.5 -15q0 -19 20 -22q26 -5 83 -5z" />
    <glyph glyph-name="asciitilde" unicode="~" horiz-adv-x="471" 
d="M343 216q54 0 98 34q8 5 9.5 14.5t-3.5 16.5t-14.5 8t-16.5 -5q-29 -21 -56.5 -25t-43.5 0.5t-47 17.5q-33 14 -51 19.5t-50 -1t-59 -33.5q-5 -5 -5 -14.5t5 -14.5q5 -6 14.5 -5.5t15.5 5.5q20 19 39.5 24t35 0.5t40.5 -17.5q50 -24 89 -24z" />
    <glyph glyph-name="nobreakspace" unicode="&#xa0;" 
 />
    <glyph glyph-name="section" unicode="&#xa7;" horiz-adv-x="354" 
d="M209 -5q-29 0 -67 10t-64 26q-8 5 -11.5 13t0.5 16q9 18 29 9q60 -31 112 -31q28 -2 54 8.5t27 30.5q3 31 -85 57q-2 1 -3.5 1.5t-2.5 0.5q-53 17 -83 37.5t-41 54.5q-13 40 10 74q6 10 19 23q-39 25 -42 58q-3 35 17 58q34 41 110 41q69 0 119 -24q9 -3 14 -12t1 -17
q-7 -15 -29 -9q-74 23 -108 21q-32 -1 -56 -12t-24 -34q0 -28 77 -54l4.5 -1.5l4.5 -1.5t5 -2q61 -21 94 -46.5t37 -64.5q4 -43 -35 -79q39 -22 42 -60q2 -35 -19 -56q-35 -35 -106 -35zM199 180q21 -8 54 -18q33 23 30 53q-2 22 -24 39.5t-78 38.5q-24 9 -40 12
q-16 -9 -23 -25q-10 -17 -2 -42q11 -34 83 -58z" />
    <glyph glyph-name="copyright" unicode="&#xa9;" horiz-adv-x="558" 
d="M292 -9q123 3 185 68q59 64 61 159q0 109 -58.5 186.5t-175.5 77.5q-114 0 -181 -76q-67 -75 -62 -171q5 -115 69 -181.5t162 -62.5zM305 438q49 0 85.5 -19t55 -44.5t30 -59.5t14 -57t2.5 -44q0 -75 -48 -125q-60 -58 -154 -57q-165 3 -181 204q-6 78 48 139
q55 63 148 63zM287 84q69 0 123 49q15 15 4 31q-6 7 -16 7t-17 -6q-57 -49 -111 -37q-31 7 -44 41q-26 71 -4 120q17 37 51 50q35 15 63 0q28 -14 40 -61q2 -8 9.5 -13t16.5 -3q8 2 13 9.5t3 16.5q-16 64 -62 86q-45 23 -99 4q-57 -21 -78 -73q-27 -66 4 -150
q13 -35 42.5 -53t61.5 -18z" />
    <glyph glyph-name="guillemotleft" unicode="&#xab;" horiz-adv-x="413" 
d="M383 98q17 -13 6 -30q-3 -5 -11 -7t-16 1q-36 16 -95.5 52t-65.5 58q-8 27 14 52q85 107 115 126q18 11 30 -3q10 -15 -5 -30q-74 -77 -107 -117q-9 -11 -1 -21q7 -6 41 -26t64 -37zM114 174q12 -45 106 -103q7 -5 9.5 -14t-2.5 -17q-10 -15 -28 -4q-124 76 -132 135
q-3 27 21 59q26 35 82 114q15 18 32 6q8 -6 9 -15.5t-5 -17.5q-2 -3 -34.5 -45.5t-48.5 -66.5q-12 -17 -9 -31z" />
    <glyph glyph-name="registered" unicode="&#xae;" horiz-adv-x="558" 
d="M292 -9q123 3 185 68q59 64 61 159q0 109 -58.5 186.5t-175.5 77.5q-114 0 -181 -76q-67 -75 -62 -171q5 -115 69 -181.5t162 -62.5zM305 436q49 0 85.5 -18.5t55 -44.5t30 -60t14 -56.5t2.5 -43.5q0 -75 -48 -125q-58 -58 -154 -57q-165 2 -181 203q-6 78 48 139
q55 63 148 63zM411 126q10 -22 -5 -31q-17 -12 -31 8q-11 15 -29 43.5t-25 38.5q-23 -5 -69 -5v-75q0 -8 -7 -14t-16 -6q-8 0 -14 6.5t-6 16.5q-1 51 -1 167q0 16 0.5 44t0.5 40t10 18q23 15 63.5 16t79.5 -19q52 -27 52 -92q0 -44 -26 -67q-11 -10 -23 -17q5 -8 16 -24.5
t19.5 -30t10.5 -17.5zM250 222q79 -5 107 23q13 14 13 36q0 38 -31 57q-18 11 -45.5 12.5t-43.5 -5.5v-69v-54z" />
    <glyph glyph-name="plusminus" unicode="&#xb1;" horiz-adv-x="378" 
d="M231 141q-21 2 -23 27l-1 71q-12 0 -41.5 -1.5t-43.5 -1.5q-9 0 -15.5 6.5t-6.5 16.5q0 18 20 21q23 2 88 4l2 75q0 9 7 15.5t17 6.5q11 0 17.5 -6.5t6.5 -15.5v-73q16 0 35.5 0.5t29.5 1t13 0.5q22 0 22 -23q0 -19 -22 -22q-39 0 -78 -2l-1 -75q0 -10 -7 -18t-19 -7z
M336 76q9 0 15.5 5.5t5.5 14.5q0 22 -23 22q-137 3 -214 1q-8 -1 -14.5 -6.5t-6.5 -14.5q0 -21 23 -21q161 -3 214 -1z" />
    <glyph glyph-name="acute" unicode="&#xb4;" horiz-adv-x="284" 
d="M154 500q8 -3 17 -0.5t12 8.5q37 57 79 139q4 6 0 16.5t-14 16.5q-8 3 -18.5 -0.5t-14.5 -12.5q-54 -114 -65 -135q-12 -22 4 -32z" />
    <glyph glyph-name="periodcentered" unicode="&#xb7;" 
 />
    <glyph glyph-name="guillemotright" unicode="&#xbb;" horiz-adv-x="416" 
d="M231 253q30 -32 23 -55q-6 -25 -68.5 -75t-87.5 -60q-20 -7 -29 4q-5 6 -3 17t10 16l33 23q33 23 62.5 45.5t34.5 33.5q2 7 -7 19q-22 24 -96 98q-14 14 -2 30q11 12 30 2q8 -6 33 -30.5t46 -46.5zM391 241q18 -33 -24.5 -100.5t-104.5 -106.5q-5 -4 -14.5 -2.5
t-14.5 7.5q-5 7 -3 17t10 15q47 30 80.5 81t27.5 66q-7 18 -37.5 45.5t-65.5 50.5q-7 5 -10 13.5t0 16.5q4 7 13.5 9t16.5 -2q37 -21 75 -52.5t51 -57.5z" />
    <glyph glyph-name="Agrave" unicode="&#xc0;" 
 />
    <glyph glyph-name="Aacute" unicode="&#xc1;" 
 />
    <glyph glyph-name="Acircumflex" unicode="&#xc2;" 
 />
    <glyph glyph-name="Atilde" unicode="&#xc3;" 
 />
    <glyph glyph-name="Adieresis" unicode="&#xc4;" 
 />
    <glyph glyph-name="Aring" unicode="&#xc5;" 
 />
    <glyph glyph-name="Ccedilla" unicode="&#xc7;" 
 />
    <glyph glyph-name="Egrave" unicode="&#xc8;" 
 />
    <glyph glyph-name="Eacute" unicode="&#xc9;" 
 />
    <glyph glyph-name="Ecircumflex" unicode="&#xca;" 
 />
    <glyph glyph-name="Edieresis" unicode="&#xcb;" 
 />
    <glyph glyph-name="Igrave" unicode="&#xcc;" 
 />
    <glyph glyph-name="Iacute" unicode="&#xcd;" 
 />
    <glyph glyph-name="Icircumflex" unicode="&#xce;" 
 />
    <glyph glyph-name="Idieresis" unicode="&#xcf;" 
 />
    <glyph glyph-name="Ntilde" unicode="&#xd1;" 
 />
    <glyph glyph-name="Ograve" unicode="&#xd2;" 
 />
    <glyph glyph-name="Oacute" unicode="&#xd3;" 
 />
    <glyph glyph-name="Ocircumflex" unicode="&#xd4;" 
 />
    <glyph glyph-name="Otilde" unicode="&#xd5;" 
 />
    <glyph glyph-name="Odieresis" unicode="&#xd6;" 
 />
    <glyph glyph-name="Oslash" unicode="&#xd8;" 
 />
    <glyph glyph-name="Ugrave" unicode="&#xd9;" 
 />
    <glyph glyph-name="Uacute" unicode="&#xda;" 
 />
    <glyph glyph-name="Ucircumflex" unicode="&#xdb;" 
 />
    <glyph glyph-name="Udieresis" unicode="&#xdc;" 
 />
    <glyph glyph-name="Yacute" unicode="&#xdd;" 
 />
    <glyph glyph-name="agrave" unicode="&#xe0;" 
 />
    <glyph glyph-name="aacute" unicode="&#xe1;" 
 />
    <glyph glyph-name="acircumflex" unicode="&#xe2;" 
 />
    <glyph glyph-name="atilde" unicode="&#xe3;" 
 />
    <glyph glyph-name="adieresis" unicode="&#xe4;" 
 />
    <glyph glyph-name="aring" unicode="&#xe5;" 
 />
    <glyph glyph-name="ccedilla" unicode="&#xe7;" 
 />
    <glyph glyph-name="egrave" unicode="&#xe8;" 
 />
    <glyph glyph-name="eacute" unicode="&#xe9;" 
 />
    <glyph glyph-name="ecircumflex" unicode="&#xea;" 
 />
    <glyph glyph-name="edieresis" unicode="&#xeb;" 
 />
    <glyph glyph-name="igrave" unicode="&#xec;" 
 />
    <glyph glyph-name="iacute" unicode="&#xed;" 
 />
    <glyph glyph-name="icircumflex" unicode="&#xee;" 
 />
    <glyph glyph-name="idieresis" unicode="&#xef;" 
 />
    <glyph glyph-name="ntilde" unicode="&#xf1;" 
 />
    <glyph glyph-name="ograve" unicode="&#xf2;" 
 />
    <glyph glyph-name="oacute" unicode="&#xf3;" 
 />
    <glyph glyph-name="ocircumflex" unicode="&#xf4;" 
 />
    <glyph glyph-name="otilde" unicode="&#xf5;" 
 />
    <glyph glyph-name="odieresis" unicode="&#xf6;" 
 />
    <glyph glyph-name="divide" unicode="&#xf7;" horiz-adv-x="376" 
d="M334 202q22 0 22 20t-22 22q-189 7 -214 7q-8 0 -15 -5.5t-7 -14.5q0 -20 22 -22q189 -7 214 -7zM222 79q16 0 30 15.5t14 33.5t-13 29t-31 11q-17 0 -28.5 -13t-11.5 -32q0 -18 12 -31t28 -13zM226 283q17 0 30.5 15t13.5 34q0 18 -13 28.5t-31 10.5q-17 0 -28 -12.5
t-11 -31.5q0 -18 11.5 -31t27.5 -13z" />
    <glyph glyph-name="oslash" unicode="&#xf8;" 
 />
    <glyph glyph-name="ugrave" unicode="&#xf9;" 
 />
    <glyph glyph-name="uacute" unicode="&#xfa;" 
 />
    <glyph glyph-name="ucircumflex" unicode="&#xfb;" 
 />
    <glyph glyph-name="udieresis" unicode="&#xfc;" 
 />
    <glyph glyph-name="yacute" unicode="&#xfd;" 
 />
    <glyph glyph-name="uni0400" unicode="&#x400;" 
 />
    <glyph glyph-name="uni0401" unicode="&#x401;" horiz-adv-x="342" 
d="M136 490q-14 0 -25.5 12t-11.5 28t11 27.5t26 11.5q16 0 28 -10.5t12 -26.5q0 -15 -12.5 -28.5t-27.5 -13.5zM254 495q-16 0 -26 11.5t-10 28.5q0 16 11 27.5t25 11.5q16 0 28 -10.5t12 -26.5t-12 -29t-28 -13zM301 32q9 0 15 -5.5t6 -13.5q0 -19 -20 -21q-33 -3 -109 -3
q-79 0 -101 12q-7 4 -7 17q-1 35 -1.5 80.5t-1 101.5t-0.5 84v143q0 21 20 22q7 0 97.5 1t96.5 1q22 0 22 -20t-20 -22l-169 -2v-162h140q22 0 22 -23q0 -22 -22 -22h-139q0 -118 2 -169q10 -2 169 1z" />
    <glyph glyph-name="uni0410" unicode="&#x410;" horiz-adv-x="394" 
d="M374 29q5 -30 -17 -34q-12 -3 -20.5 3t-10.5 16q-5 20 -17 75t-20 88q-60 4 -159 4q-6 -18 -25 -78.5t-27 -85.5q-5 -20 -28 -16q-9 1 -12.5 10t-1.5 17q139 446 142 456q15 39 45 37q31 -3 41 -42zM142 221q18 0 69 -1.5t68 -1.5q-11 43 -27 111t-24 100q-5 21 -8 40h-2
q-1 -4 -2.5 -9.5t-3.5 -12.5t-3 -11q-5 -15 -26 -85t-41 -130z" />
    <glyph glyph-name="uni0411" unicode="&#x411;" horiz-adv-x="400" 
d="M327 284q55 -51 53 -126q-1 -69 -33.5 -105.5t-72.5 -48.5q-37 -12 -84 -12q-26 0 -52 8t-36 19q-5 3 -5 14v69q2 126 -13 354q0 17 5 22q20 20 222 20q23 0 23 -23q0 -21 -23 -21q-135 0 -180 -8q3 -22 10 -127q143 5 186 -35zM257 43q32 14 52 37.5t23 71.5
q3 60 -32 93q-18 17 -49.5 25t-58.5 7t-49 -1q0 -32 0.5 -83.5t0.5 -84.5q1 -13 0 -38t-1 -29q18 -9 47 -10t67 12z" />
    <glyph glyph-name="uni0412" unicode="&#x412;" horiz-adv-x="403" 
d="M341 276q45 -40 42 -114q-3 -106 -105 -146q-31 -13 -82 -13q-63 0 -101 31q-6 6 -6 16v146q0 44 0.5 133t0.5 128q0 27 46 34q54 10 117.5 -3t81.5 -60q20 -54 -8 -88q-6 -8 -19.5 -19t-25.5 -14v-2q32 -7 59 -29zM137 450q0 -21 -1 -65.5t-1 -67.5q24 0 66 5
q61 6 84 39q16 27 4 54q-9 22 -36 32q-18 7 -47 7.5t-49 -2.5zM260 59q67 23 72 108q4 54 -32 86q-47 40 -164 22v-76v-138q19 -10 51.5 -12t72.5 10z" />
    <glyph glyph-name="uni0413" unicode="&#x413;" horiz-adv-x="317" 
d="M120 -1q9 0 17 6.5t8 18.5q0 309 -2 405l130 2q10 0 17 5.5t7 14.5q0 22 -23 22q-142 -1 -158 -2q-10 -1 -15.5 -9t-5.5 -13q3 -234 3 -426q0 -12 6.5 -18t15.5 -6z" />
    <glyph glyph-name="uni0414" unicode="&#x414;" horiz-adv-x="513" 
d="M477 59q5 -7 9 -16.5t5 -18.5t1.5 -18.5t0 -15.5t-0.5 -12l-1 -5q-2 -10 -10 -16t-18 -4q-17 2 -19 29q0 25 -5 44q-4 8 -17 8q-4 0 -184 -25q-135 -21 -138 -21q-9 0 -14 -8q-9 -11 -9 -53q0 -24 -25 -27q-10 -1 -17 7t-7 17v8v14.5t1 15.5t3 17.5t6.5 16.5t10.5 15
q11 11 36 17q5 1 14.5 2.5t16 2.5t9.5 1q-2 26 -11 95q-8 82 -11 133.5t6 120t35 101.5q30 38 121 38q46 0 61 -27q39 -75 76 -420q24 4 40 2q11 -1 20 -5.5t12 -8.5zM231 49q23 4 61.5 9.5t58.5 9.5q-4 68 -23 195.5t-38 197.5q-6 18 -30 18q-24 -1 -36 -2.5t-26 -7
t-22 -15.5q-27 -37 -28.5 -133t8.5 -168q1 -13 2 -19q2 -22 6 -52.5t5 -41.5q39 6 62 9z" />
    <glyph glyph-name="uni0415" unicode="&#x415;" horiz-adv-x="346" 
d="M305 38q21 -2 21 -22q0 -19 -22 -19q-18 0 -106 2q-63 2 -80 3.5t-25 9.5q-5 5 -5 17q1 37 -5 406q0 20 20 22q6 1 96.5 2t97.5 1q22 0 22 -20q0 -21 -20 -22l-169 -3q5 -92 5 -162l132 5q8 0 15.5 -5.5t7.5 -14.5q0 -22 -23 -22l-133 -7q0 -142 -1 -167q23 -3 61 -3
q86 0 111 -1z" />
    <glyph glyph-name="uni0416" unicode="&#x416;" horiz-adv-x="634" 
d="M611 41q10 -24 -11 -34q-19 -9 -32 11q-1 2 -21.5 37.5t-39 65.5t-49 69t-57.5 63l-61 -76v-165q0 -9 -7 -15.5t-17 -6.5q-9 -1 -16 6t-7 16v167q-30 27 -67 70q-33 -28 -75 -89.5t-60 -94.5t-26 -49q-5 -9 -15.5 -12.5t-18.5 0.5q-17 9 -9 34q12 31 66 116.5t106 128.5
q-53 65 -120 166q-5 7 -3 17.5t9 15.5q8 6 18 4.5t16 -9.5q2 -3 22 -32.5t38 -55t46.5 -63t54.5 -66.5q3 -3 9.5 -11t7.5 -9h3v35v179q0 10 6.5 16.5t16.5 6.5q9 0 16.5 -6.5t7.5 -16.5v-181v-35h3q2 4 12.5 17.5t11.5 15.5q143 185 165 218q14 18 32 5q8 -6 9.5 -15.5
t-4.5 -16.5q-2 -2 -21.5 -27.5t-53 -69t-60.5 -78.5q54 -47 108 -130t67 -116z" />
    <glyph glyph-name="uni0417" unicode="&#x417;" horiz-adv-x="383" 
d="M184 -6q67 2 114 34q54 35 64 101q10 75 -37 133q-29 36 -80 47v2q44 16 66 54.5t17 88.5q-8 79 -93 107q-40 13 -87 1.5t-68 -39.5q-5 -8 -5.5 -17.5t5.5 -14.5q16 -13 35 1q53 42 101 28q25 -7 42.5 -27t20.5 -44q5 -48 -17.5 -76t-77.5 -42q-22 -5 -22 -23
q0 -21 27 -23q58 -8 95 -50q16 -18 25 -45t5 -53q-8 -47 -47 -74q-48 -33 -108 -25q-15 2 -28 9.5t-20 14t-23 23.5q-17 17 -33 5q-7 -5 -8 -15t4 -17q18 -26 56 -45.5t77 -18.5z" />
    <glyph glyph-name="uni0418" unicode="&#x418;" horiz-adv-x="460" 
d="M121 -3q11 0 24 10.5t41.5 50.5t72.5 114q2 4 91 167q18 34 39 81h2q3 -25 3 -94q0 -145 -5 -287q0 -26 20 -27q12 -1 19 6.5t8 17.5q5 151 3 259q-1 67 -4 107.5t-8 58.5t-9.5 23t-12.5 7q-29 8 -44 -29q-30 -70 -88.5 -177t-102.5 -177q-16 -26 -32 -47l-2 1
q4 80 4 215q0 158 -3 212q-2 27 -23 27q-11 0 -17 -7.5t-6 -17.5q-2 -38 0 -216q0 -151 3 -246q1 -32 27 -32z" />
    <glyph glyph-name="uni0419" unicode="&#x419;" horiz-adv-x="443" 
d="M422 319q1 -23 1 -76t-0.5 -102.5t-1 -93.5t-0.5 -46q0 -10 -7 -17t-18 -7q-10 0 -17 6.5t-7 17.5l1 340v86h-3q-9 -38 -28 -85q-32 -79 -67.5 -151.5t-78 -131.5t-69.5 -59q-32 0 -37 48q-6 102 -6 244.5t3 178.5q1 9 8 16t16 7t16.5 -7t7.5 -16q0 -2 -1 -75.5
t-1.5 -137t0.5 -124.5q0 -76 1 -86h3q10 10 25 30q41 57 94 171.5t81 204.5q5 17 17.5 33t27.5 14q27 -2 33 -43q6 -37 7 -139zM219 564q-58 0 -93 26q-8 5 -10.5 14.5t2.5 17.5q14 18 32 5q53 -29 115.5 -13t90.5 54q6 8 16.5 9.5t18.5 -3.5q7 -6 8.5 -17t-3.5 -18
q-22 -32 -73 -53.5t-104 -21.5z" />
    <glyph glyph-name="uni041A" unicode="&#x41a;" horiz-adv-x="461" 
d="M439 39q4 -10 0 -20t-14 -12q-24 -6 -32 17q-21 59 -80 126.5t-117 107.5l-57 -76q10 -148 10 -173q0 -9 -7 -15.5t-17 -6.5q-22 0 -22 22q-1 25 -5 84t-9.5 126.5t-11 130t-9.5 108t-4 46.5q-1 9 5.5 16.5t15.5 7.5q23 0 26 -20q5 -41 16 -183q5 -75 5 -79h3
q32 42 39 51q31 39 93.5 125t77.5 107q13 19 31 7q16 -13 6 -32q-48 -77 -159 -214q67 -42 131 -113.5t85 -137.5z" />
    <glyph glyph-name="uni041B" unicode="&#x41b;" horiz-adv-x="389" 
d="M69 -13q22 -5 28 18q9 28 47 221l18 90l19 95q2 12 7.5 36t7.5 37h3q3 -10 18 -70q6 -24 20.5 -79t22.5 -84q46 -188 61 -234q3 -9 13 -14t19 -1q20 8 15 30q-49 186 -61 229q-9 31 -28.5 104.5t-27.5 99.5q-13 45 -25 59.5t-30 14.5q-24 0 -35 -30q-7 -23 -63 -276
q-7 -35 -18 -87t-17 -82.5t-10 -46.5q-4 -27 16 -30z" />
    <glyph glyph-name="uni041C" unicode="&#x41c;" horiz-adv-x="596" 
d="M81 -4q23 0 25 23q27 304 34 387q5 56 8 89h3q3 -6 14 -30.5t20 -41.5q6 -11 18.5 -37t15.5 -32q38 -77 54.5 -101.5t34.5 -25.5q20 -2 30 13q25 35 80 159q17 42 45 100h3q1 -9 4 -28t5.5 -36.5t4.5 -33.5q9 -65 26 -200.5t23 -175.5q2 -10 9 -16.5t18 -5.5q22 3 20 26
q-9 93 -36 286t-36 235q-2 9 -12 15t-22 2q-16 -5 -31.5 -29.5t-59.5 -120.5q-7 -15 -31.5 -68t-33.5 -71h-3q-28 53 -53 101q-10 19 -35 69q-29 55 -48 82t-26 30t-18 3q-8 0 -15 -6.5t-8 -17.5q-4 -28 -20.5 -210t-25.5 -309q-2 -24 19 -24z" />
    <glyph glyph-name="uni041D" unicode="&#x41d;" horiz-adv-x="422" 
d="M394 174q2 -26 4 -60t3 -51.5t1 -25.5q0 -23 -22 -23q-21 0 -23 20q-1 8 -11 137q-4 54 -7 81l-191 -24q10 -172 10 -206q0 -8 -6 -15.5t-16 -7.5q-11 0 -18 6.5t-7 15.5q0 25 -3 81.5t-7.5 120t-9 123t-7.5 99.5t-3 41q0 8 5.5 14.5t14.5 7.5q11 1 18.5 -5t8.5 -15
q5 -37 17 -218l192 24q-8 138 -8 212q0 8 7 15t16 7q11 0 17.5 -6.5t6.5 -15.5q5 -168 18 -332z" />
    <glyph glyph-name="uni041E" unicode="&#x41e;" horiz-adv-x="516" 
d="M178 21q29 -16 75.5 -18.5t80.5 11.5q57 25 95 68t53 94t14 104t-18 102q-14 38 -51 71.5t-87 49.5q-106 33 -175 -10q-78 -48 -104.5 -127t-13.5 -161q8 -51 43 -103.5t88 -80.5zM256 476q36 0 64 -10q39 -15 70 -42.5t41 -55.5q15 -42 17 -87.5t-10 -89.5t-45.5 -81.5
t-84.5 -59.5q-54 -21 -108 8q-43 22 -71 67t-35 88q-13 77 14 145.5t82 100.5q30 17 66 17z" />
    <glyph glyph-name="uni041F" unicode="&#x41f;" horiz-adv-x="411" 
d="M133 -5q22 3 20 24q-20 127 -20 430q117 13 160 10q10 -37 26 -184.5t23 -238.5q1 -8 8 -15t17 -7q26 0 24 25q-5 108 -24 258q-21 148 -27.5 175t-21.5 29q-35 5 -116 -0.5t-96 -9.5q-8 -2 -14 -8.5t-6 -13.5q0 -352 20 -455q5 -23 27 -19z" />
    <glyph glyph-name="uni0420" unicode="&#x420;" horiz-adv-x="368" 
d="M109 -5q11 0 19.5 7.5t8.5 17.5q0 91 -3 143q119 3 172 56q45 45 42 121q-5 107 -118 140q-38 11 -85.5 7.5t-66.5 -22.5q-7 -5 -5 -15q1 -22 4.5 -106.5t6.5 -173t3 -150.5q0 -9 6 -17t16 -8zM121 442q12 6 37.5 6t53.5 -6q30 -7 58.5 -34t28.5 -71q0 -58 -30 -88
q-45 -45 -137 -45q-6 114 -11 238z" />
    <glyph glyph-name="uni0421" unicode="&#x421;" horiz-adv-x="466" 
d="M269 -4q60 -1 106.5 35t68.5 90q4 10 -0.5 19t-12.5 11t-17 -2t-12 -13q-31 -85 -109 -96q-44 -5 -85.5 11.5t-66.5 47.5q-29 37 -42.5 92t1.5 123.5t66 121.5q38 41 98.5 41.5t129.5 -51.5q23 -17 37 0q12 17 -5 32q-47 44 -120 57q-50 9 -97.5 -6t-77.5 -46
q-48 -49 -70 -107t-18.5 -110.5t19 -96t40.5 -75.5q60 -75 167 -78z" />
    <glyph glyph-name="uni0422" unicode="&#x422;" horiz-adv-x="413" 
d="M375 470q18 0 18 -22q0 -9 -7 -15.5t-16 -6.5q-80 0 -134 -3q2 -78 2 -405q0 -21 -25 -21q-24 0 -24 22q0 326 -2 404q-28 0 -80 -3.5t-57 -3.5q-7 0 -13 6.5t-6 13.5t5.5 14t13.5 8q156 12 325 12z" />
    <glyph glyph-name="uni0423" unicode="&#x423;" horiz-adv-x="423" 
d="M384 532q9 -2 15 -9.5t4 -17.5q-4 -26 -36.5 -133.5t-64.5 -176.5q-21 -46 -56.5 -101.5t-62.5 -85.5q-5 -5 -14.5 -6.5t-16.5 3.5t-7.5 15.5t5.5 17.5q23 28 57.5 80.5t53.5 93.5q-63 48 -120.5 131t-84.5 137q-4 7 -1 16.5t10 13.5t17 0.5t14 -10.5q58 -116 133 -202
q15 -17 47 -46h2q8 22 20 56q14 45 29.5 96.5t23.5 81.5t8 31q5 18 25 15z" />
    <glyph glyph-name="uni0424" unicode="&#x424;" horiz-adv-x="510" 
d="M488 370q11 -77 -30 -124q-49 -60 -176 -68q3 -59 3 -160q0 -9 -6.5 -15.5t-16.5 -6.5q-22 0 -22 22q0 101 -2 157q-30 2 -59 9.5t-59 22t-52.5 40.5t-29.5 61q-18 75 25 128q51 62 175 74q71 6 122.5 -7.5t77 -39t36.5 -48t14 -45.5zM86 299q26 -70 152 -84l-15 250
q-93 -11 -125 -51q-37 -48 -12 -115zM424 267q30 30 22 90q-6 48 -42.5 81t-114.5 33q-3 0 -10.5 -0.5t-11.5 -0.5q3 -27 15 -255q97 6 142 52z" />
    <glyph glyph-name="uni0425" unicode="&#x425;" horiz-adv-x="499" 
d="M466 514q9 -4 12 -14t-2 -18q-15 -32 -186 -239q84 -109 167 -195q6 -5 7.5 -15t-3.5 -17q-12 -16 -31 -4q-42 26 -172 194q-147 -181 -169 -204q-6 -6 -15 -7t-15 4q-16 12 0 32q97 115 172 209q-9 12 -34 45t-36 48t-29.5 41t-31.5 46.5t-24 40.5q-4 7 -2.5 18.5
t9.5 15.5q7 4 17.5 2.5t15.5 -9.5q53 -86 147 -211q31 37 174 226q12 17 29 11z" />
    <glyph glyph-name="uni0426" unicode="&#x426;" horiz-adv-x="484" 
d="M455 34q9 -6 9 -25q0 -12 -3.5 -63t-3.5 -52q-4 -20 -25 -20q-9 0 -15 7.5t-6 16.5q0 12 3 46.5t3 45.5q0 9 -6 9h-316q-9 0 -15.5 5.5t-6.5 14.5l-1 17v43.5t-1 62.5t-1.5 75t-0.5 78.5t-0.5 76t-0.5 65.5q0 8 6 15t16 7q11 0 18 -6.5t7 -15.5q0 -64 2.5 -217.5
t2.5 -180.5h233q-15 368 -15 398q0 9 6.5 15.5t16.5 6.5t17 -6.5t7 -15.5l13 -396q46 0 57 -7z" />
    <glyph glyph-name="uni0427" unicode="&#x427;" horiz-adv-x="375" 
d="M314 463q0 7 6 13.5t14 6.5q21 0 21 -20q0 -9 -1.5 -101t-3.5 -201t-2 -148q0 -23 -20 -23q-22 0 -22 25q0 12 0.5 65t0.5 90q-14 -1 -77 -1q-85 0 -126 14t-48 46q-4 21 -6 79.5t-2 106.5l1 48q0 9 6 15t15 6q22 0 22 -21q-4 -201 7 -224q18 -36 210 -25q1 52 2 111.5
t2 94.5t1 43z" />
    <glyph glyph-name="uni0428" unicode="&#x428;" horiz-adv-x="531" 
d="M506 471q3 -57 4.5 -202t-7.5 -245q-3 -28 -29 -28q-270 5 -367 5q-9 0 -16.5 7t-7.5 16q0 242 -8 442q0 23 19 26q11 1 19 -5.5t9 -15.5q7 -79 7 -425h141q-3 76 -4.5 227.5t1.5 187.5q0 1 1 5t1.5 5t1.5 4.5t2.5 4.5t4 2.5t6 2.5t8.5 1q22 0 22 -25q0 -344 2 -418
q115 0 144 -2q6 60 4.5 214t-5.5 211q-1 9 5 16.5t15 8.5q10 1 18 -5t9 -15z" />
    <glyph glyph-name="uni0429" unicode="&#x429;" horiz-adv-x="605" 
d="M583 19q2 -35 2 -90q0 -9 -6.5 -16.5t-15.5 -7.5q-20 0 -24 22q-2 12 -2 65q0 7 -6 7h-41.5h-52.5h-59h-61.5h-59.5t-54 -0.5t-44 -0.5h-30h-11q-19 0 -24 20q-1 7 -3.5 90t-3.5 192.5t0 169.5q0 9 7 15.5t16 6.5q11 0 17.5 -7t6.5 -17q-2 -73 7 -428q11 0 61.5 1t86.5 1
q-14 354 -10 421q0 8 6 15t16 7q25 -2 25 -22q0 -10 1 -94t3.5 -190t4.5 -137h143q1 38 -9 423q-1 10 6 18t16 8q11 0 18.5 -7t8.5 -16q3 -30 5.5 -186t1.5 -240h39q18 -2 19 -23z" />
    <glyph glyph-name="uni042A" unicode="&#x42a;" horiz-adv-x="417" 
d="M220 -2q65 0 111 29q71 48 66 136q-3 74 -49 115q-62 55 -187 49q-2 26 -4 69.5t-3 68.5q-2 21 -27 20q-11 -1 -50 -5.5t-44 -4.5q-21 -3 -21 -23q2 -20 24 -19l71 7q6 -80 9 -232.5t4 -171.5q0 -13 14 -21q34 -17 86 -17zM166 50q0 18 -5 233q101 7 152 -39
q35 -30 35 -84q0 -67 -49 -98q-26 -17 -63 -20t-70 8z" />
    <glyph glyph-name="uni042B" unicode="&#x42b;" horiz-adv-x="481" 
d="M305 286q58 -43 58 -126q0 -93 -71 -140q-44 -29 -108 -29q-50 0 -83 18q-16 8 -14 20q5 256 -7 426q-2 23 19 26q9 1 16.5 -5.5t9.5 -15.5q5 -56 7 -143q43 7 92.5 -0.5t80.5 -30.5zM262 58q53 33 53 103q0 64 -42 93q-52 39 -141 22v-232q33 -10 68.5 -6.5t61.5 20.5z
M459 450q0 -17 1 -210t1 -217q0 -9 -6 -16t-16 -7q-21 0 -23 22q-4 35 -4 426q0 10 6 17t16 7q11 0 18 -6.5t7 -15.5z" />
    <glyph glyph-name="uni042C" unicode="&#x42c;" horiz-adv-x="373" 
d="M180 -2q55 -3 103 27q70 46 70 136q0 73 -46 117q-56 52 -184 48q-2 96 -5 138q-2 19 -26 19q-23 -3 -21 -24q8 -106 8 -426q0 -13 13 -19q27 -14 88 -16zM122 48q4 77 2 236q102 0 147 -39q34 -31 34 -86q0 -66 -49 -99q-26 -17 -63.5 -20t-70.5 8z" />
    <glyph glyph-name="uni042D" unicode="&#x42d;" horiz-adv-x="417" 
d="M377 391q34 -133 10 -230t-101 -141q-41 -23 -102 -23q-67 0 -121 27q-7 4 -11.5 13t-0.5 16q4 8 13 11.5t17 -0.5q106 -47 181 -4q89 53 84 190q-4 0 -101 1t-105 1q-10 0 -16.5 6.5t-6.5 15.5q0 10 6.5 16.5t16.5 6.5q4 0 95.5 -1.5t108.5 -1.5q-5 46 -15 84
q-24 85 -81 110q-68 31 -153 -12q-7 -4 -16.5 -1.5t-13.5 9.5q-5 9 -1 18t12 13q103 51 189 13q85 -40 112 -137z" />
    <glyph glyph-name="uni042E" unicode="&#x42e;" horiz-adv-x="598" 
d="M560 329q21 -60 17.5 -129t-26.5 -108q-48 -80 -127 -92q-66 -9 -117 23q-44 28 -74 80.5t-36 106.5q-15 -1 -35.5 -1.5t-34 -1t-20.5 -1.5q0 -40 -0.5 -105t-0.5 -82q0 -10 -6.5 -16t-15.5 -6q-22 0 -22 23q0 55 -1.5 224.5t-1.5 192.5q0 9 6.5 16.5t15.5 7.5t16.5 -6.5
t8.5 -15.5q1 -12 1 -192q19 2 49.5 3t39.5 2q4 127 94 182q68 42 155 12q83 -26 115 -117zM511 112q42 80 6 201q-20 69 -88 95q-41 11 -69 6.5t-47 -16.5q-48 -31 -63.5 -92.5t-2.5 -121.5q20 -86 87 -130q36 -23 85 -16q59 9 92 74z" />
    <glyph glyph-name="uni042F" unicode="&#x42f;" horiz-adv-x="455" 
d="M430 282q5 -116 5 -276q0 -9 -7 -15.5t-17 -6.5q-11 0 -18 7t-7 16q0 171 -1 196q-85 -29 -171 -5q-50 -63 -118 -187q-13 -18 -31 -10q-9 3 -11 14.5t2 18.5q42 86 111 179q-31 15 -45 26q-74 58 -64 158q7 73 75 112q41 24 124.5 28.5t131.5 -16.5q19 -9 24.5 -16.5
t7.5 -22.5q0 -11 1.5 -40.5t3.5 -75.5t4 -84zM382 251q-5 198 -9 221q-2 13 -12 16q-29 11 -86 11q-71 0 -116 -26q-47 -28 -53 -81q-8 -75 46 -119q30 -24 76 -34t87 -6t67 18z" />
    <glyph glyph-name="uni0430" unicode="&#x430;" horiz-adv-x="329" 
d="M305 33q11 -25 -5 -34q-17 -11 -32 4q-5 5 -15 25h-2q-11 -21 -34 -36q-21 -13 -55 -14.5t-42 3.5q-52 15 -74.5 61.5t-6.5 105.5q13 46 61 67t119 12q0 47 -3 59q-2 10 -14.5 21t-31.5 16q-57 13 -91 -32q-6 -8 -16.5 -10.5t-18.5 2.5q-18 14 -5 33q25 35 66 44.5
t79 1.5q34 -7 54.5 -27t24.5 -45q4 -19 8 -96.5t9 -101.5q4 -20 25 -59zM134 22q31 -8 62 8t42 38q-8 28 -15 117q-41 6 -85.5 -3t-54.5 -47q-11 -43 2.5 -73t48.5 -40z" />
    <glyph glyph-name="uni0431" unicode="&#x431;" horiz-adv-x="372" 
d="M152 26q21 -15 51 -20.5t57 2.5q29 10 50 36t26 58q23 127 -28 213q-37 58 -122 116q-108 74 -125 95v3q12 0 127.5 9t142.5 14q23 4 21 22q-2 22 -26 19q-158 -9 -266 -24q-42 -8 -47 -32q-4 -20 29 -50.5t103 -81.5q11 -7 16 -11q14 -9 48 -36.5t41 -36.5l-1 -2
q-20 4 -56 2q-38 -4 -68 -28t-37 -66q-12 -65 5 -119t59 -82zM218 284q29 0 49 -2q5 0 7 -5q35 -75 18 -170q-4 -20 -17.5 -36.5t-31.5 -22.5q-32 -11 -64 12q-33 23 -46 66.5t-1 95.5q14 62 86 62z" />
    <glyph glyph-name="uni0432" unicode="&#x432;" horiz-adv-x="348" 
d="M117 19q17 -13 47.5 -18.5t72.5 0.5q73 13 88 85q9 46 -12 93.5t-55 63.5q-41 13 -71 7t-45 -19l-2 2q25 59 30 72q45 112 58 182q3 25 2 51.5t-18 48.5t-46 26q-70 10 -102 -80q-28 -80 -10 -338q11 -138 63 -176zM103 168q24 25 66.5 37t71.5 -3q21 -14 34 -45t7 -61
q-7 -45 -58 -55q-48 -8 -85 17q-17 13 -26.5 47t-9.5 63zM158 566q35 -6 20 -76q-11 -64 -51 -180q-4 -9 -9 -23.5t-11 -32t-9 -24.5l-3 1q-4 14 -2.5 127t15.5 160q17 54 50 48z" />
    <glyph glyph-name="uni0433" unicode="&#x433;" horiz-adv-x="291" 
d="M144 -6q83 0 125 86q4 7 1 16t-10 13t-17.5 0.5t-14.5 -12.5q-30 -56 -74 -62q-33 -3 -54 20q-7 7 -11 18t5.5 34.5t38.5 48.5q95 86 95 138q0 31 -25 56q-27 27 -84 17q-30 -5 -54 -23.5t-33 -43.5q-10 -25 9 -32q9 -4 18.5 0t13.5 13q12 35 54 45q27 6 44 -8
q14 -11 12 -27q-2 -38 -77 -102q-39 -35 -54 -68.5t-10 -55t21 -39.5q27 -32 81 -32z" />
    <glyph glyph-name="uni0434" unicode="&#x434;" horiz-adv-x="355" 
d="M205 -1q-16 -5 -54 0q-60 8 -89 54q-23 35 -30 81t3 88q14 65 62 93q63 36 144 11q10 17 26 12q18 -4 18 -24l3 -114q2 -113 2 -122l3 -1q1 2 4 5l4 4q14 14 29 -1q11 -12 -1 -31q-6 -9 -30 -33q2 -38 7 -84q26 -204 -58 -262q-29 -22 -71 -22q-30 0 -49 9
q-66 31 -60 117q1 12 4 23.5t5.5 20.5t9.5 21.5t10.5 19t14 20.5t14 18.5t16 21t15.5 19.5q28 32 50 54zM186 36q45 0 62 15q-9 187 -9 231q-19 10 -50.5 11t-66.5 -16q-32 -19 -43 -66q-7 -34 -0.5 -71.5t24.5 -64.5q12 -19 36 -29t47 -10zM217 -289q63 44 45 214
q-1 21 -6 67h-4q-38 -45 -53 -64q-77 -96 -82 -153q-6 -50 33 -71q32 -18 67 7z" />
    <glyph glyph-name="uni0435" unicode="&#x435;" horiz-adv-x="323" 
d="M168 2q68 2 119 41q7 5 8 15.5t-5 17.5q-16 14 -34 0q-51 -40 -107 -30q-14 3 -31.5 18t-18.5 34q54 8 116.5 29t77.5 40q20 23 3 59q-16 32 -54 51.5t-82 12.5q-68 -13 -98 -64q-39 -68 -7 -151q11 -30 43 -52t70 -21zM165 248q45 8 75 -24q6 -6 13 -18q4 -8 -2 -12
q-20 -15 -74 -34t-88 -20q-3 37 12 66q20 34 64 42z" />
    <glyph glyph-name="uni0436" unicode="&#x436;" horiz-adv-x="461" 
d="M251 99q0 -67 -4 -94q-4 -22 -26 -22q-21 0 -19 26q4 59 3 92q-5 10 -30 39q-28 -9 -60.5 -49t-50.5 -83q-3 -7 -12.5 -10.5t-19.5 0.5q-16 8 -7 29q24 62 82 119q16 18 38 29q-3 3 -14.5 15.5t-14.5 16.5q-31 31 -67 69q-15 17 1 33q14 12 34 -1q26 -20 86 -96
q4 -5 14.5 -20t14.5 -20h2q0 2 -2.5 28t-4.5 51t-2 35q0 22 22 22q23 0 25 -22q0 -8 1.5 -37.5t2.5 -53t1 -30.5h2q4 8 32 47q58 80 81 103q14 14 30 2q6 -5 7 -14.5t-3 -12.5q-7 -10 -58 -71q-3 -4 -13 -16t-13 -16q25 -14 38 -23q25 -19 46.5 -48t30.5 -46t13 -28
q9 -30 -8 -37q-20 -8 -31 13q-21 43 -53 84t-60 48q-17 -27 -34 -51z" />
    <glyph glyph-name="uni0437" unicode="&#x437;" horiz-adv-x="311" 
d="M135 -259q63 -6 105 32q55 52 51.5 120.5t-56.5 111.5q-28 22 -58 29v3q29 15 46 40q23 34 13 88q-7 35 -34.5 59t-63.5 29q-29 4 -57.5 -8.5t-39.5 -37.5q-4 -9 -1.5 -19.5t9.5 -12.5q20 -7 32 12q19 29 51 25q21 -4 36.5 -20t20.5 -37q2 -9 3 -16.5t-0.5 -15t-3 -12.5
t-6 -11.5t-7 -9.5t-9.5 -9.5t-9.5 -8.5t-11.5 -9t-12 -9q-21 -17 -20 -29q2 -17 27 -22q1 0 11 -2.5t15.5 -5t15.5 -7t19 -12t18 -18.5q10 -11 18 -33.5t2.5 -58.5t-35.5 -63q-27 -22 -63 -19q-38 3 -67 42q-14 16 -32 8q-7 -4 -8.5 -13.5t3.5 -17.5q38 -58 98 -62z" />
    <glyph glyph-name="uni0438" unicode="&#x438;" horiz-adv-x="360" 
d="M113 -32q52 2 134 240q21 64 24 77h2q3 -19 6 -45.5t4 -30.5q12 -125 12 -153q0 -9 5.5 -16.5t14.5 -7.5q21 0 25 24q4 40 -10 162t-51 126q-30 2 -46 -44q-30 -97 -83 -219q-14 -32 -30 -57h-2q0 26 -5 69q-16 132 -22 165q-5 22 -25 22q-9 0 -15.5 -6.5t-6.5 -15.5
q1 -19 14 -110q3 -24 11 -72.5t10 -63.5q2 -22 9.5 -33.5t24.5 -10.5zM263 234z" />
    <glyph glyph-name="uni0439" unicode="&#x439;" horiz-adv-x="344" 
d="M83 8q-31 3 -32 43q-4 51 -5 104q-5 118 -3 190q0 9 7 15.5t18 6.5q9 0 15.5 -7.5t7.5 -16.5q2 -43 2 -177v-104h3q24 36 44 72q62 107 98 200q17 41 46 36q19 -4 29 -52t10.5 -110.5t-1 -103t-2.5 -54.5q-1 -10 -8.5 -16.5t-19.5 -5.5q-9 1 -14.5 9.5t-4.5 17.5
q3 40 3 172q0 13 -3 79h-3q-27 -66 -32 -76q-35 -79 -83 -151.5t-72 -70.5zM152 432q-50 0 -86 27q-8 5 -9.5 15t4.5 16t15.5 6t16.5 -5q37 -23 82.5 -15t71.5 33q18 18 34 6q7 -7 6 -17t-7 -17q-19 -21 -54.5 -35t-73.5 -14z" />
    <glyph glyph-name="uni043A" unicode="&#x43a;" horiz-adv-x="319" 
d="M80 11q-9 1 -14.5 9.5t-3.5 16.5q5 31 4 62t-5.5 63.5t-10 56.5t-9.5 41l-4 16q-4 21 15 27q19 4 27 -13q9 -16 24 -98h3q2 3 12 17.5t17 24.5q62 83 84 105q5 6 14.5 7t15.5 -4q13 -11 1 -31q-4 -8 -53 -67q-2 -3 -13 -16.5t-13 -16.5l1 -2q26 -11 44 -27
q53 -43 82 -118q7 -23 -10 -32q-9 -4 -19 0.5t-13 12.5q-20 42 -52.5 83.5t-60.5 48.5q-23 -29 -32 -47q4 -69 -4 -100q-2 -8 -9 -14t-18 -5z" />
    <glyph glyph-name="uni043B" unicode="&#x43b;" horiz-adv-x="297" 
d="M169 315q-27 0 -42 -32q-83 -178 -103 -254q-5 -21 12 -27q9 -3 17 2t10 13q11 36 72 180q27 66 32 76h2q10 -44 17 -74q41 -170 47 -186q9 -21 28 -18q11 2 14.5 11.5t-0.5 18.5q-2 8 -34 132t-35 133q-9 25 -37 25z" />
    <glyph glyph-name="uni043C" unicode="&#x43c;" horiz-adv-x="427" 
d="M44 7q10 -3 16.5 3t8.5 11q14 40 45 158q1 5 7.5 30t10.5 37h2q12 -30 17 -39q22 -46 38 -62q12 -9 24 -7q21 5 62 75q14 24 26 48h2q1 -3 6.5 -22t8.5 -30q12 -37 47 -167q7 -20 28 -15q18 6 14 30q-4 18 -29.5 108t-35.5 110q-17 38 -32 40q-19 2 -32 -17
q-7 -10 -39 -64q-9 -15 -24 -39h-2q-1 3 -10.5 19.5t-12.5 24.5q-31 55 -44 64q-8 5 -16 5q-18 0 -28 -22q-32 -93 -73 -251q-2 -9 2 -18t13 -10z" />
    <glyph glyph-name="uni043D" unicode="&#x43d;" horiz-adv-x="280" 
d="M260 255q-3 -48 -3 -239q0 -8 -6.5 -15t-16.5 -7q-23 0 -23 25v103l-118 -5q0 -69 -3 -92t-25 -23q-10 0 -16.5 6.5t-5.5 15.5q2 22 2.5 79.5t-0.5 105t-2 48.5q-2 8 5 15.5t17 7.5t16.5 -6.5t6.5 -16.5v-6q0 -6 0.5 -15.5t1 -21.5t0.5 -27.5v-30.5l121 5q0 73 2 96
q2 22 25 22q11 1 16.5 -6.5t5.5 -17.5z" />
    <glyph glyph-name="uni043E" unicode="&#x43e;" horiz-adv-x="352" 
d="M106 329q-40 -20 -64 -76t-13 -116q6 -33 29.5 -67.5t58.5 -54.5q25 -15 57 -15q24 0 44 8q54 22 83.5 65t30.5 89t-12 93q-9 26 -35.5 51t-58.5 34q-61 19 -120 -11zM133 296q14 7 36 9.5t45 -4.5q49 -19 63 -59q7 -22 9 -47t-2.5 -54t-26 -54t-57.5 -39q-32 -11 -62 5
q-50 27 -63 93q-9 45 10 89t48 61zM273 524z" />
    <glyph glyph-name="uni043F" unicode="&#x43f;" horiz-adv-x="315" 
d="M79 -2q18 0 22 18v239h145q3 -10 3 -48.5t-2 -78t-4 -74.5l-2 -35q0 -10 6.5 -16t15.5 -6q22 0 25 25q3 19 6 124t-4 139q-8 14 -28 14h-183q-22 -1 -22 -21v-257q0 -9 6.5 -16t15.5 -7z" />
    <glyph glyph-name="uni0440" unicode="&#x440;" horiz-adv-x="329" 
d="M133 -218q-10 -2 -16.5 4.5t-7.5 14.5q-13 58 -33 212q-26 183 -38 215q-8 20 9 31q13 7 25 -1l7 -10q21 23 59 31q29 8 68 1q33 -5 62 -27t37 -56q14 -60 -20 -103q-27 -34 -75.5 -54t-89.5 -20q6 -58 32 -211q2 -10 -3.5 -18t-15.5 -9zM114 59q32 0 71.5 16.5
t59.5 43.5q24 32 13 67q-14 39 -66 53q-30 7 -59 -1.5t-45 -25.5q18 -84 26 -153z" />
    <glyph glyph-name="uni0441" unicode="&#x441;" horiz-adv-x="307" 
d="M157 -2q59 1 118 47q8 5 9.5 15.5t-5.5 18.5q-8 8 -18.5 7.5t-17.5 -7.5q-54 -50 -107 -37q-33 9 -45 42q-26 71 -5 118q16 36 54 50q34 14 64 -1q25 -12 37 -59q2 -8 10.5 -13.5t19.5 -2.5q21 7 16 27q-16 61 -61 85q-43 24 -102 2q-50 -18 -77 -71q-32 -61 3 -150
q12 -30 41 -51t66 -20z" />
    <glyph glyph-name="uni0442" unicode="&#x442;" horiz-adv-x="301" 
d="M259 354q8 0 15 -6t7 -16q0 -22 -22 -22q-5 -1 -88 -5q2 -59 2 -278q0 -9 -7 -15.5t-17 -6.5t-16.5 6.5t-6.5 15.5q0 216 -2 275q-15 -1 -35 -2.5t-34 -3t-17 -1.5q-9 0 -15.5 6t-6.5 13q0 20 19 23q161 17 224 17z" />
    <glyph glyph-name="uni0443" unicode="&#x443;" horiz-adv-x="329" 
d="M287 277q10 -1 16.5 -8.5t5.5 -14.5q-4 -30 -12.5 -76.5t-30 -117.5t-46.5 -103q-37 -48 -77 -75.5t-95 -25.5q-9 0 -14.5 6.5t-4.5 15.5q2 17 22 17q79 4 135 86q17 26 22 40q-66 24 -117 85.5t-67 103.5q-10 24 7 32q7 4 17.5 0.5t14.5 -10.5q66 -140 157 -174
q25 85 42 199q4 21 25 20z" />
    <glyph glyph-name="uni0444" unicode="&#x444;" horiz-adv-x="446" 
d="M239 -179q-21 0 -24 22q-5 39 -10 212q-20 -6 -40 -6q-65 0 -105 35q-43 39 -39 101q4 77 73 105q19 8 45 8q30 0 51 -11q0 6 1 11q4 13 15 15q16 3 22 -8l5 -14q14 16 48 22q29 3 55 -5q35 -11 58.5 -37t29.5 -61q11 -65 -32 -109q-44 -44 -104 -44q-25 0 -38 3
q4 -113 12 -212q0 -10 -6.5 -18.5t-16.5 -8.5zM95 112q35 -35 108 -16q-5 128 -8 148q-37 30 -81 12q-21 -8 -34.5 -27.5t-12.5 -43.5q2 -48 28 -73zM239 254l10 -157q75 -9 110 31q28 33 21 74q-11 53 -62 69q-42 14 -79 -17z" />
    <glyph glyph-name="uni0445" unicode="&#x445;" horiz-adv-x="337" 
d="M308 354q14 -7 7 -26q-13 -27 -120 -156q76 -99 107 -121q19 -15 6 -34q-5 -7 -15.5 -7.5t-17.5 5.5q-68 68 -107 123q-98 -123 -106 -131q-4 -4 -13 -6t-16 3t-7.5 14.5t5.5 16.5q20 23 59.5 72t52.5 65q-87 115 -100 143q-10 19 7 29q7 5 17 2.5t15 -9.5
q62 -99 89 -133q75 92 110 143q13 14 27 7z" />
    <glyph glyph-name="uni0446" unicode="&#x446;" horiz-adv-x="365" 
d="M311 -82q-11 0 -17 7t-5 15q3 24 7 50q0 4 -4 4q-39 3 -213 3q-18 0 -22 20q-1 11 -4 52t-5 105.5t3 105.5q1 8 9 14.5t17 4.5q22 -4 20 -24q-11 -88 5 -236q11 0 69.5 -1t77.5 0q1 20 -1.5 78t-5.5 110l-3 51q0 9 6.5 15.5t15.5 6.5q10 0 17.5 -6.5t7.5 -15.5
q0 -1 2 -33t4 -71t3.5 -79.5t0.5 -57.5q32 -3 40 -10q9 -8 9 -24q0 -27 -10 -67q-6 -17 -24 -17z" />
    <glyph glyph-name="uni0447" unicode="&#x447;" horiz-adv-x="259" 
d="M222 1q-9 -1 -17 4t-10 12q-8 23 -8 121q-48 -8 -83 0q-43 11 -64 44q-13 20 -19.5 51t-6.5 53l-1 21q0 23 22 23q9 0 15.5 -6.5t6.5 -16.5q0 -75 23 -108q12 -15 39 -22q41 -10 70 1q4 115 6 132q0 8 6.5 14t15.5 6q22 0 22 -22q-10 -222 0 -283q2 -20 -17 -24z" />
    <glyph glyph-name="uni0448" unicode="&#x448;" horiz-adv-x="432" 
d="M408 39q11 -20 -4 -30t-28 3q-4 4 -9 16h-3q-38 -27 -78 -27q-42 0 -69 25h-3q-24 -23 -73 -23q-60 0 -85 56q-14 32 -15 109t5 90q2 9 9 15.5t17 5.5q22 -3 20 -25q-5 -36 -5 -94.5t11 -85.5q19 -48 97 -16q-4 11 -6 27q-9 71 11 176q2 8 9 14t16 5q23 -3 19 -26
q-17 -130 -12 -161q6 -48 43 -50q35 -3 77 22q-3 34 -2.5 109.5t2.5 87.5q5 22 23 22q10 0 16 -6.5t5 -15.5q-3 -6 -2.5 -101t14.5 -122z" />
    <glyph glyph-name="uni0449" unicode="&#x449;" horiz-adv-x="473" 
d="M422 -61q-20 4 -20 28q0 2 1 11t1.5 16t-0.5 11q-3 5 -15 8q-19 4 -25 12h-2q-14 -10 -34 -17q-21 -8 -45 -8h-9q-35 4 -52 25h-3q-40 -30 -78 -30q-61 1 -84 55q-14 32 -16 109.5t4 91.5q4 23 27 21q22 -3 20 -26q-5 -23 -4 -89.5t11 -89.5q9 -19 30 -27q34 -9 76 22
q-18 98 -1 199q4 21 24 20q25 -2 21 -25q-13 -97 0 -170q7 -40 34 -41q29 -3 64 17q-23 74 0 201q7 22 27 18q24 -5 20 -27q-8 -50 -9 -104t9 -83q3 -8 15 -15q4 -3 16 -7.5t19 -9.5q8 -6 8.5 -25t-1 -32t-3.5 -19q-6 -24 -26 -20z" />
    <glyph glyph-name="uni044A" unicode="&#x44a;" horiz-adv-x="314" 
d="M171 4q42 0 77 23t43 69q7 39 -9 72.5t-51 53.5q-24 14 -60.5 15t-54.5 -8q2 42 9 85q2 19 -3 24q-18 18 -108 11q-21 -2 -21 -22q0 -9 7 -14.5t16 -4.5q50 2 64 0q-14 -108 -5 -241q2 -29 30 -46t66 -17zM114 182q18 15 47 16t48 -11q47 -30 36 -84q-7 -32 -29.5 -47
t-49.5 -12q-43 5 -48 28q-4 23 -4 110z" />
    <glyph glyph-name="uni044B" unicode="&#x44b;" horiz-adv-x="397" 
d="M139 1q44 0 82.5 25.5t45.5 65.5t-8 73.5t-48 50.5q-34 18 -78 8l-31 -11q0 4 1.5 45t0.5 50q0 11 -6.5 18t-15.5 7q-10 0 -16 -6.5t-6 -15.5q-7 -192 0 -258q6 -52 79 -52zM102 169q39 34 88 9q47 -22 37 -81q-4 -24 -31 -39t-57 -15q-31 0 -33 17q-2 16 -3 43t-1 47v19
zM375 355q0 -13 1 -132.5t1 -164.5q0 -9 -7.5 -15.5t-16.5 -6.5q-10 0 -16 6.5t-6 15.5q0 39 -1.5 157.5t-1.5 137.5q0 10 5.5 17.5t15.5 7.5q11 0 18.5 -6.5t7.5 -16.5z" />
    <glyph glyph-name="uni044C" unicode="&#x44c;" horiz-adv-x="279" 
d="M129 2q45 0 83 25.5t45 65.5t-8 73t-49 50q-35 18 -76 10l-32 -12q3 45 3 96q-2 24 -22 24q-9 0 -16 -6.5t-7 -15.5q-6 -197 0 -258q6 -52 79 -52zM92 169q42 34 89 10q45 -23 37 -80q-4 -24 -31.5 -39.5t-57.5 -15.5q-31 0 -35 17q-2 10 -2 108z" />
    <glyph glyph-name="uni044D" unicode="&#x44d;" horiz-adv-x="293" 
d="M254 243q16 -28 19 -78t-12.5 -101.5t-48.5 -73.5q-28 -17 -81 -17q-50 0 -79 12q-20 10 -12 27q3 7 12.5 10.5t16.5 -0.5q25 -10 60 -11t56 11q33 24 39 103q-3 0 -60.5 1.5t-62.5 1.5q-9 0 -15.5 6t-6.5 16q0 9 6.5 15.5t15.5 6.5q2 0 58.5 -1.5t64.5 -1.5q0 33 -12 54
q-59 106 -145 62q-8 -6 -17 -3.5t-13 10.5t-0.5 17t10.5 13q23 12 47 16t52 -1t56 -29t52 -65z" />
    <glyph glyph-name="uni044E" unicode="&#x44e;" horiz-adv-x="460" 
d="M430 245q26 -93 -6 -151.5t-81 -73.5q-50 -16 -94 5q-79 41 -91 133q-15 0 -39 -1.5t-30 -1.5v-130q0 -9 -7.5 -15.5t-17.5 -6.5t-16 7t-6 17q0 40 -1 159.5t-1 133.5q0 11 6.5 18t15.5 7q21 0 25 -22q2 -20 2 -126q4 0 26.5 1.5t39.5 1.5q8 84 68 124q59 38 132 8
q56 -21 75 -87zM327 62q47 20 61.5 66.5t-3.5 103.5q-5 19 -19 37t-32 26q-29 10 -49.5 6.5t-35.5 -13.5q-63 -37 -45 -136q9 -58 58 -85q33 -18 65 -5z" />
    <glyph glyph-name="uni044F" unicode="&#x44f;" horiz-adv-x="340" 
d="M289 314q12 -37 21.5 -157.5t9.5 -162.5q0 -10 -7 -18t-16 -8t-16.5 7.5t-7.5 18.5q0 19 -8 121q-20 -8 -54.5 -9t-61.5 5q-47 -53 -68 -119q-3 -10 -11.5 -16t-18.5 -2q-19 6 -13 31q20 70 67 122q-70 31 -72 98q-3 65 46 103q28 22 89.5 24.5t88.5 -9.5q26 -9 32 -29z
M106 172q26 -21 77 -26t79 7q-8 84 -17 144q-2 8 -8 11q-19 6 -63 6q-43 0 -69 -19q-32 -24 -29 -66q4 -35 30 -57z" />
    <glyph glyph-name="uni0451" unicode="&#x451;" horiz-adv-x="314" 
d="M249 63q24 14 36 -1q6 -8 4.5 -17.5t-8.5 -15.5q-35 -29 -101 -34q-46 -4 -84 23.5t-51 62.5q-29 80 12 145q34 53 98 64q41 6 77 -13t51 -46q23 -42 3 -69q-20 -26 -64.5 -41t-74.5 -18t-58 -3q12 -46 58 -59q47 -12 102 22zM96 204q-19 -28 -12 -69q48 0 100 13t67 30
q4 6 2 14q-2 17 -16 31q-25 28 -64 28q-46 0 -77 -47zM82 314q-17 0 -27 11t-10 28t11 28.5t26 11.5t27 -10.5t12 -26.5t-11.5 -29t-27.5 -13zM197 321q-15 0 -26 12t-11 28t11 27.5t26 11.5q16 0 27.5 -10.5t11.5 -26.5q0 -15 -12 -28.5t-27 -13.5z" />
    <glyph glyph-name="uni2000" unicode="&#x2000;" 
 />
    <glyph glyph-name="uni2010" unicode="&#x2010;" horiz-adv-x="376" 
d="M334 202q22 0 22 20t-22 22q-189 7 -214 7q-8 0 -15 -5.5t-7 -14.5q0 -20 22 -22q189 -7 214 -7z" />
    <glyph glyph-name="uni2011" unicode="&#x2011;" horiz-adv-x="376" 
d="M334 202q22 0 22 20t-22 22q-189 7 -214 7q-8 0 -15 -5.5t-7 -14.5q0 -20 22 -22q189 -7 214 -7z" />
    <glyph glyph-name="figuredash" unicode="&#x2012;" horiz-adv-x="456" 
d="M414 202q22 0 22 20t-22 22q-54 2 -294 2q-8 0 -15 -5.5t-7 -14.5q0 -20 22 -22q54 -2 294 -2z" />
    <glyph glyph-name="endash" unicode="&#x2013;" horiz-adv-x="416" 
d="M374 202q22 0 22 20t-22 22q-54 2 -254 2q-8 0 -15 -5.5t-7 -14.5q0 -20 22 -22q54 -2 254 -2z" />
    <glyph glyph-name="emdash" unicode="&#x2014;" horiz-adv-x="526" 
d="M484 202q22 0 22 20t-22 22q-54 2 -364 2q-8 0 -15 -5.5t-7 -14.5q0 -20 22 -22q54 -2 364 -2z" />
    <glyph glyph-name="uni2015" unicode="&#x2015;" horiz-adv-x="596" 
d="M544 202q11 0 21.5 5.5t10.5 14.5q0 20 -22 22q-54 2 -434 2q-8 0 -15 -5.5t-7 -14.5q0 -20 22 -22q54 -2 424 -2z" />
    <glyph glyph-name="quoteleft" unicode="&#x2018;" horiz-adv-x="184" 
d="M71 401q-9 37 6 70q15 34 47 58q17 12 29 -1q14 -15 -5 -32q-18 -14 -27 -37q20 -1 31.5 -16t11.5 -33q0 -17 -14.5 -31t-32.5 -14q-38 0 -46 36z" />
    <glyph glyph-name="quoteright" unicode="&#x2019;" horiz-adv-x="184" 
d="M160 497q9 -37 -6 -70q-15 -34 -47 -58q-17 -12 -29 1q-14 15 5 32q18 16 27 37q-20 2 -31.5 16.5t-11.5 32.5q0 17 14.5 31.5t32.5 14.5q38 0 46 -37z" />
    <glyph glyph-name="quotesinglbase" unicode="&#x201a;" horiz-adv-x="184" 
d="M160 57q9 -37 -6 -70q-15 -34 -47 -58q-17 -12 -29 1q-14 15 5 32q18 16 27 37q-20 2 -31.5 16.5t-11.5 32.5q0 17 14.5 31.5t32.5 14.5q38 0 46 -37z" />
    <glyph glyph-name="quotereversed" unicode="&#x201b;" horiz-adv-x="184" 
d="M71 401q-9 37 6 70q15 34 47 58q17 12 29 -1q14 -15 -5 -32q-18 -14 -27 -37q20 -1 31.5 -16t11.5 -33q0 -17 -14.5 -31t-32.5 -14q-38 0 -46 36z" />
    <glyph glyph-name="quotedblleft" unicode="&#x201c;" horiz-adv-x="315" 
d="M202 401q-9 37 6 70q15 34 47 58q17 12 29 -1q14 -15 -5 -32q-18 -14 -27 -37q20 -1 31.5 -16t11.5 -33q0 -17 -14.5 -31t-32.5 -14q-38 0 -46 36zM71 401q-9 37 6 70q15 34 47 58q17 12 29 -1q14 -15 -5 -32q-18 -14 -27 -37q20 -1 31.5 -16t11.5 -33q0 -17 -14.5 -31
t-32.5 -14q-38 0 -46 36z" />
    <glyph glyph-name="quotedblright" unicode="&#x201d;" horiz-adv-x="315" 
d="M291 497q9 -37 -6 -70q-15 -34 -47 -58q-17 -12 -29 1q-14 15 5 32q18 16 27 37q-20 2 -31.5 16.5t-11.5 32.5q0 17 14.5 31.5t32.5 14.5q38 0 46 -37zM160 497q9 -37 -6 -70q-15 -34 -47 -58q-17 -12 -29 1q-14 15 5 32q18 16 27 37q-20 2 -31.5 16.5t-11.5 32.5
q0 17 14.5 31.5t32.5 14.5q38 0 46 -37z" />
    <glyph glyph-name="quotedblbase" unicode="&#x201e;" horiz-adv-x="315" 
d="M291 57q9 -37 -6 -70q-15 -34 -47 -58q-17 -12 -29 1q-14 15 5 32q18 16 27 37q-20 2 -31.5 16.5t-11.5 32.5q0 17 14.5 31.5t32.5 14.5q38 0 46 -37zM160 57q9 -37 -6 -70q-15 -34 -47 -58q-17 -12 -29 1q-14 15 5 32q18 16 27 37q-20 2 -31.5 16.5t-11.5 32.5
q0 17 14.5 31.5t32.5 14.5q38 0 46 -37z" />
    <glyph glyph-name="uni201F" unicode="&#x201f;" horiz-adv-x="315" 
d="M202 401q-9 37 6 70q15 34 47 58q17 12 29 -1q14 -15 -5 -32q-18 -14 -27 -37q20 -1 31.5 -16t11.5 -33q0 -17 -14.5 -31t-32.5 -14q-38 0 -46 36zM71 401q-9 37 6 70q15 34 47 58q17 12 29 -1q14 -15 -5 -32q-18 -14 -27 -37q20 -1 31.5 -16t11.5 -33q0 -17 -14.5 -31
t-32.5 -14q-38 0 -46 36z" />
    <glyph glyph-name="bullet" unicode="&#x2022;" horiz-adv-x="327" 
d="M222 127q32 0 58.5 29.5t26.5 64.5q0 34 -25.5 54.5t-59.5 20.5q-32 0 -54 -24.5t-22 -60.5q0 -35 22 -59.5t54 -24.5z" />
    <glyph glyph-name="onedotenleader" unicode="&#x2024;" horiz-adv-x="196" 
d="M132 -4q17 0 30.5 15t13.5 34q0 17 -13.5 28t-30.5 11t-28.5 -12.5t-11.5 -31.5t11.5 -31.5t28.5 -12.5z" />
    <glyph glyph-name="twodotenleader" unicode="&#x2025;" horiz-adv-x="327" 
d="M132 -4q17 0 30.5 15t13.5 34q0 17 -13.5 28t-30.5 11t-28.5 -12.5t-11.5 -31.5t11.5 -31.5t28.5 -12.5zM263 -4q17 0 30.5 15t13.5 34q0 17 -13.5 28t-30.5 11t-28.5 -12.5t-11.5 -31.5t11.5 -31.5t28.5 -12.5z" />
    <glyph glyph-name="ellipsis" unicode="&#x2026;" horiz-adv-x="459" 
d="M132 -4q17 0 30.5 15t13.5 34q0 17 -13.5 28t-30.5 11t-28.5 -12.5t-11.5 -31.5t11.5 -31.5t28.5 -12.5zM267 -4q16 0 28 14t12 33q0 18 -12 29.5t-32 11.5q-17 0 -28.5 -12.5t-11.5 -31.5q0 -18 13 -31t31 -13zM399 -4q16 0 28 15t12 34q0 17 -14 28t-32 11
q-17 0 -27.5 -12.5t-10.5 -31.5q0 -18 13 -31t31 -13z" />
    <glyph glyph-name="perthousand" unicode="&#x2030;" horiz-adv-x="575" 
d="M117 298q-27 0 -45.5 22t-18.5 57q0 34 19 57.5t45 23.5q28 0 50.5 -19t22.5 -50q0 -32 -24 -61.5t-49 -29.5zM117 418q-7 0 -13.5 -10t-6.5 -26q0 -17 6.5 -28.5t13.5 -11.5q6 0 16.5 16.5t10.5 32.5q0 10 -5.5 17t-11 8.5t-10.5 1.5zM326 182q28 0 50.5 -19t22.5 -52
q0 -32 -23.5 -61.5t-50.5 -29.5q-26 0 -44.5 23.5t-18.5 57.5q0 35 18.5 58t45.5 23zM326 64q6 0 16.5 17t10.5 35q0 14 -9.5 20.5t-17.5 6.5q-7 0 -13.5 -11t-6.5 -28t6.5 -28.5t13.5 -11.5zM371 503q15 -11 5 -33l-43 -72q-43 -73 -111.5 -189t-119.5 -203q-10 -16 -28 -9
q-9 4 -11 14t2 17q47 84 116 200.5t113.5 191t44.5 75.5q4 8 14.5 10.5t17.5 -2.5zM482 62q6 0 16.5 17t10.5 35q0 14 -9.5 20.5t-17.5 6.5q-7 0 -13.5 -11t-6.5 -28t6.5 -28.5t13.5 -11.5zM482 180q28 0 50.5 -19t22.5 -52q0 -32 -23.5 -61.5t-50.5 -29.5q-26 0 -44.5 23.5
t-18.5 57.5q0 35 18.5 58t45.5 23z" />
    <glyph glyph-name="uni2031" unicode="&#x2031;" horiz-adv-x="730" 
d="M117 298q-27 0 -45.5 22t-18.5 57q0 34 19 57.5t45 23.5q28 0 50.5 -19t22.5 -50q0 -32 -24 -61.5t-49 -29.5zM117 418q-7 0 -13.5 -10t-6.5 -26q0 -17 6.5 -28.5t13.5 -11.5q6 0 16.5 16.5t10.5 32.5q0 10 -5.5 17t-11 8.5t-10.5 1.5zM326 182q28 0 50.5 -19t22.5 -52
q0 -32 -23.5 -61.5t-50.5 -29.5q-26 0 -44.5 23.5t-18.5 57.5q0 35 18.5 58t45.5 23zM326 64q6 0 16.5 17t10.5 35q0 14 -9.5 20.5t-17.5 6.5q-7 0 -13.5 -11t-6.5 -28t6.5 -28.5t13.5 -11.5zM371 503q15 -11 5 -33l-43 -72q-43 -73 -111.5 -189t-119.5 -203q-10 -16 -28 -9
q-9 4 -11 14t2 17q47 84 116 200.5t113.5 191t44.5 75.5q4 8 14.5 10.5t17.5 -2.5zM482 62q6 0 16.5 17t10.5 35q0 14 -9.5 20.5t-17.5 6.5q-7 0 -13.5 -11t-6.5 -28t6.5 -28.5t13.5 -11.5zM482 180q28 0 50.5 -19t22.5 -52q0 -32 -23.5 -61.5t-50.5 -29.5q-26 0 -44.5 23.5
t-18.5 57.5q0 35 18.5 58t45.5 23zM637 63q6 0 16.5 16.5t10.5 34.5q0 14 -9.5 20.5t-17.5 6.5q-7 0 -13.5 -11t-6.5 -28t6.5 -28t13.5 -11zM637 181q28 0 50.5 -19.5t22.5 -52.5q0 -32 -23.5 -61.5t-50.5 -29.5q-26 0 -44.5 23.5t-18.5 57.5q0 35 18.5 58.5t45.5 23.5z" />
    <glyph glyph-name="uni20A0" unicode="&#x20a0;" 
 />
    <glyph glyph-name="Euro" unicode="&#x20ac;" horiz-adv-x="529" 
d="M332 -2q-114 0 -177 81q-30 39 -50 91l-60 -2q-10 0 -16.5 6.5t-6.5 16.5q0 22 22 22l50 2q-6 32 -3 78l-51 -1q-23 0 -23 21q0 23 21 23l61 2q22 81 82 144q31 32 74 47.5t97.5 7t105.5 -46.5q18 -15 5 -31q-12 -17 -31 -5q-68 45 -125 40.5t-95 -45.5q-47 -51 -67 -110
l167 5q23 0 23 -21q0 -9 -6 -16t-15 -7l-177 -5q-4 -42 3 -79l174 5q10 0 17 -6t7 -15q0 -23 -21 -23l-164 -5q12 -34 38 -72q23 -31 62 -47t82 -14q40 1 77.5 26t55.5 61q4 8 12.5 11t16.5 -1q19 -10 10 -28q-23 -47 -73 -78.5t-102 -31.5z" />
    <glyph glyph-name="uni20BD" unicode="&#x20bd;" horiz-adv-x="419" 
d="M155 -8q-22 0 -22 23q0 10 -0.5 32t-0.5 34l-56 -2q-10 0 -17 5.5t-7 14.5q0 23 21 23l57 3q-1 10 -1.5 29t-0.5 29q-9 0 -27.5 -1t-27.5 -1q-21 0 -21 22q2 20 24 22q6 0 25 1t26 2q-2 61 -7.5 148t-5.5 93q0 10 5 15q19 19 71.5 21.5t96.5 -12.5q51 -17 80 -52.5
t32 -82.5q3 -66 -39 -110q-51 -54 -186 -63q0 -10 0.5 -29.5t1.5 -27.5l166 5q23 0 23 -21q0 -10 -7 -16.5t-17 -6.5l-163 -5v-69q0 -21 -23 -23zM283 451q-33 14 -71.5 15.5t-51.5 -5.5q4 -67 13 -231q122 9 158 50q25 30 24 79q-4 63 -72 92z" />
    <glyph glyph-name="uni2100" unicode="&#x2100;" 
 />
    <glyph glyph-name="uni2116" unicode="&#x2116;" horiz-adv-x="732" 
d="M583 252q47 0 79.5 33t36.5 83q3 56 -36 100q-35 33 -72 33q-51 0 -85 -33q-36 -36 -33 -90q4 -56 34 -91t76 -35zM570 458q36 9 62 -21q23 -23 23 -67q-2 -36 -21 -57t-53 -20q-32 2 -47 26.5t-17 58.5q0 68 53 80zM382 -2q11 0 21.5 8t11.5 19q15 162 7 463
q0 7 -7 13.5t-16 6.5t-16.5 -7.5t-6.5 -16.5q2 -63 2 -327q0 -84 -1 -97h-3q-6 10 -23.5 42.5t-25.5 45.5q-11 19 -56 104q-97 177 -131 221q-11 15 -24 19t-21 1q-10 -3 -15.5 -9.5t-13 -39t-9.5 -91.5q-5 -114 6 -325q0 -8 6.5 -14t16.5 -6q7 0 14.5 7t6.5 15
q-11 183 -7 322q4 87 5 91h3q8 -13 21 -39t19 -36q13 -24 39 -71.5t38 -69.5q78 -141 109 -185t50 -44zM690 160q22 0 22 19q0 21 -22 23q-189 7 -194 7q-8 0 -15 -5.5t-7 -14.5q0 -20 22 -22q189 -7 194 -7z" />
    <glyph glyph-name="uni2117" unicode="&#x2117;" horiz-adv-x="558" 
d="M292 -9q123 3 185 68q59 64 61 159q0 109 -58.5 186.5t-175.5 77.5q-114 0 -181 -76q-67 -75 -62 -171q5 -115 69 -181.5t162 -62.5zM305 436q49 0 85.5 -18.5t55 -44.5t30 -60t14 -56.5t2.5 -43.5q0 -75 -48 -125q-58 -58 -154 -57q-165 2 -181 203q-6 78 48 139
q55 63 148 63zM392 211q-27 -23 -67 -30q-29 -5 -69 -5v-75q0 -8 -7 -14t-16 -6q-8 0 -14 6.5t-6 16.5q-1 51 -1 167q0 16 0.5 44t0.5 40t10 18q23 15 63.5 16t79.5 -19q52 -27 52 -92q0 -44 -26 -67zM254 218q79 -5 107 23q13 14 13 36q0 38 -31 57q-18 11 -45.5 12.5
t-43.5 -5.5v-69v-54z" />
  </font>
</defs>
</svg>
