<?xml version="1.0" standalone="no"?>
<!DOCTYPE svg PUBLIC "-//W3C//DTD SVG 1.1//EN" "http://www.w3.org/Graphics/SVG/1.1/DTD/svg11.dtd" >
<svg xmlns="http://www.w3.org/2000/svg" xmlns:xlink="http://www.w3.org/1999/xlink" version="1.1">
<metadata>
Created by FontForge 20190801 at Fri Feb 17 20:36:11 2023
 By www-data
</metadata>
<defs>
<font id="overdozesans" horiz-adv-x="388" >
  <font-face 
    font-family="overdozesans"
    font-weight="700"
    font-stretch="normal"
    units-per-em="1000"
    panose-1="0 0 0 0 0 0 0 0 0 0"
    ascent="800"
    descent="-200"
    x-height="390"
    cap-height="434"
    bbox="-97 -240 645 721"
    underline-thickness="50"
    underline-position="-125"
    unicode-range="U+000D-2192"
  />
<missing-glyph horiz-adv-x="250" 
 />
    <glyph glyph-name=".notdef" horiz-adv-x="250" 
 />
    <glyph glyph-name="uni0000" horiz-adv-x="0" 
 />
    <glyph glyph-name="uni0000" horiz-adv-x="0" 
 />
    <glyph glyph-name="uni000D" unicode="&#xd;" horiz-adv-x="250" 
 />
    <glyph glyph-name="space" unicode=" " horiz-adv-x="250" 
 />
    <glyph glyph-name="exclam" unicode="!" horiz-adv-x="163" 
d="M9 509q0 48 35 48h30q30 0 35 -42l18 -188v-110q0 -42 -50 -42q-47 0 -50 45q3 142 -18 282v7zM34 79q0 54 58 54q55 0 55 -70q0 -56 -53 -56q-60 0 -60 72z" />
    <glyph glyph-name="quotedbl" unicode="&#x22;" horiz-adv-x="290" 
d="M54 295q-35 15 -35 45v135q0 48 50 48t50 -43v-145q0 -41 -50 -41q-10 0 -15 1zM200 287q-51 0 -51 40v150q0 43 49 43q51 0 51 -48v-137q0 -48 -49 -48z" />
    <glyph glyph-name="numbersign" unicode="#" horiz-adv-x="507" 
d="M54 360h76l37 163q8 35 47 35q51 0 51 -51q0 -8 -1 -9l-27 -127v-10q63 0 65 2l2 10l20 138q5 35 49 35q49 0 49 -51q0 -29 -13 -104v-19q63 0 63 -49q0 -43 -45 -50q-32 -4 -35 -7q-7 -35 -7 -70h64q41 0 41 -50q0 -51 -46 -51h-76l-19 -129q-5 -38 -48 -38
q-49 0 -49 52q0 30 12 106h-17q-66 0 -68 -5l-2 -8l-25 -145q-7 -37 -49 -37q-49 0 -49 51v11l18 108v12q-55 -1 -55 52q0 43 60 51l15 2l2 5l13 63v10q-95 2 -95 52q0 52 42 52zM214 258q-15 -33 -15 -67v-5q73 0 78 5l2 2q9 9 9 68q-18 0 -74 -3z" />
    <glyph glyph-name="dollar" unicode="$" horiz-adv-x="405" 
d="M159 467l2 2q3 70 51 70q46 0 54 -65q91 -1 91 -51t-91 -50v-66q131 -38 131 -143q0 -73 -131 -105q-3 -85 -51 -85q-51 0 -54 65q-53 2 -65 5q-65 15 -65 59q0 49 49 49h14q65 -9 67 -9v79q-61 11 -87 22q-75 34 -75 108q0 70 72 97q28 10 88 18zM101 349q0 -23 60 -23
v39q-60 0 -60 -16zM266 200v-36h5q9 0 23 3v3q0 30 -28 30z" />
    <glyph glyph-name="percent" unicode="%" horiz-adv-x="551" 
d="M108 43q0 17 8 27l320 388q19 25 45 25q50 0 50 -50q0 -19 -10 -30l-320 -388q-21 -25 -44 -25q-49 0 -49 53zM128 334q0 66 55 66t55 -80q0 -53 -59 -53q-51 0 -51 67zM376 140q0 55 51 55t51 -63q0 -50 -52 -50q-50 0 -50 58z" />
    <glyph glyph-name="ampersand" unicode="&#x26;" horiz-adv-x="333" 
d="M16 288q12 50 94 50q98 0 119 -75v-21q0 -18 -3 -34v-2q2 -2 3 0q17 5 25 5q50 0 50 -48q0 -9 -3 -17q-1 -3 -2.5 -7t-2.5 -6v-2v-3q18 -32 18 -41q0 -49 -49 -49q-5 0 -56 23q-51 -20 -98 -20h-30q-60 6 -60 67q0 24 30 65v2v1q-35 59 -35 92v20z" />
    <glyph glyph-name="quotesingle" unicode="'" horiz-adv-x="120" 
d="M56 274q-50 0 -50 45v123q0 47 50 47t50 -42v-133q0 -40 -50 -40z" />
    <glyph glyph-name="parenleft" unicode="(" horiz-adv-x="202" 
d="M121 472q15 18 41 18q49 0 49 -49q0 -15 -7 -26q-54 -86 -65 -118q-28 -77 -28 -131q0 -41 15 -74q38 -82 38 -86q0 -49 -49 -49q-36 0 -81 95q-23 49 -23 112q0 153 110 308z" />
    <glyph glyph-name="parenright" unicode=")" horiz-adv-x="235" 
d="M7 428q0 49 49 49q24 0 41 -20q108 -157 108 -305q0 -79 -48 -163q-25 -45 -55 -45q-50 0 -50 52q0 10 3 16q50 97 50 141q0 54 -25 126q-11 33 -65 120q-8 14 -8 29z" />
    <glyph glyph-name="asterisk" unicode="*" horiz-adv-x="425" 
d="M123 463q16 40 51 40q48 0 51 -65h5q91 38 104 38q49 0 49 -49q0 -32 -20 -41l-47 -22l79 -38q25 -12 25 -43q0 -50 -49 -50q-13 0 -31 8q-78 36 -117 55q-1 -73 -52 -73q-47 0 -51 58h-1h-1q-26 -8 -33 -8q-50 0 -50 48q0 35 35 50v2q-68 38 -68 72q0 49 49 49
q15 0 24 -6q43 -25 46 -25h2z" />
    <glyph glyph-name="plus" unicode="+" horiz-adv-x="360" 
d="M114 372q0 50 50 50q47 0 50 -43l5 -75l82 18h4q49 0 49 -52q0 -38 -33 -46l-101 -24v-81q0 -35 -50 -35q-46 0 -54 93l-57 -13h-4q-51 0 -51 50q0 40 42 50l63 15q3 1 7 3v15v8q-1 8 -1.5 25t-0.5 37v5z" />
    <glyph glyph-name="comma" unicode="," horiz-adv-x="181" 
d="M7 -137q0 10 36 76q20 38 20 53v67q0 43 50 43q52 0 52 -91q0 -48 -25 -102q-44 -98 -84 -98q-49 0 -49 52z" />
    <glyph glyph-name="hyphen" unicode="-" horiz-adv-x="280" 
d="M1 222q0 50 41 50h190q40 0 40 -48q0 -52 -48 -52h-172q-51 0 -51 50z" />
    <glyph glyph-name="period" unicode="." horiz-adv-x="112" 
d="M2 51q0 69 56 69q47 0 47 -58q0 -60 -55 -60q-48 0 -48 49z" />
    <glyph glyph-name="slash" unicode="/" horiz-adv-x="380" 
d="M32 3q0 14 8 32l215 447q12 26 44 26q49 0 49 -48q0 -17 -3 -23l-210 -437q-17 -48 -52 -48q-51 0 -51 51z" />
    <glyph glyph-name="zero" unicode="0" horiz-adv-x="396" 
d="M21 220q0 79 26 136q67 145 180 145q155 0 155 -174q0 -59 -10 -156q-20 -170 -180 -170q-98 0 -153 117q-18 38 -18 102zM209 388q-88 -34 -88 -175q0 -33 8 -52q25 -60 55 -60q81 0 88 85q8 88 8 139q0 32 -1 48q-3 20 -6 20h-1q-20 -3 -63 -5z" />
    <glyph glyph-name="one" unicode="1" horiz-adv-x="378" 
d="M43 313q0 15 33 56q9 11 25 33q7 11 32 82q12 33 49 33q47 0 54 -58l37 -337l3 -10h8h12q44 2 50 2h12q53 0 53 -51q0 -42 -45 -51q-77 -5 -138 -5q-60 -1 -135 2q-50 2 -50 51q0 52 40 52h86l-21 180q-28 -31 -53 -31q-52 0 -52 52z" />
    <glyph glyph-name="two" unicode="2" horiz-adv-x="398" 
d="M23 406q0 122 116 122q195 0 195 -170q0 -111 -86 -245v-3h8q21 2 41.5 4t29 3t9.5 1q50 0 50 -49q0 -45 -53 -51q-96 -11 -146 -11q-36 0 -54 1q-42 10 -42 49q0 20 10 36q133 133 133 265q0 11 -1 17q-14 53 -92 53h-8l-2 -3q-18 -68 -56 -68q-52 0 -52 49z" />
    <glyph glyph-name="three" unicode="3" horiz-adv-x="393" 
d="M16 437q0 112 76 112h92q113 0 113 -152v-28q-1 -1 -2 -5t-1 -5q-1 -4 -3.5 -11.5l-3.5 -10.5v-2v-1q80 -35 80 -143q0 -195 -170 -195q-43 0 -70 11q-88 33 -88 80q0 50 50 50q11 0 23 -5q70 -36 90 -36q62 0 62 87q0 58 -37 61q-18 1 -33.5 2.5t-22.5 1.5l-7 1
q-33 12 -33 52q0 23 21 41q28 25 37 35q8 13 8 31q0 32 -18 36q-34 3 -50 3h-7q-7 -61 -54 -61q-52 0 -52 51z" />
    <glyph glyph-name="four" unicode="4" horiz-adv-x="405" 
d="M150 310q53 0 85 80q7 18 15 75q2 6 3 10q11 33 48 33q51 0 52 -43l5 -307q0 -38 17 -78q10 -23 10 -34q0 -51 -51 -51q-44 0 -59 58q-15 63 -17 72q-6 23 -8 115q-81 -33 -105 -33q-122 0 -122 131v117q0 43 51 43q45 0 51 -43q-2 -113 8 -142q7 -3 17 -3z" />
    <glyph glyph-name="five" unicode="5" horiz-adv-x="433" 
d="M30 243v57l18 190q3 44 45 48l197 20h38q37 0 37 -51q0 -45 -40 -49l-177 -20q-7 -1 -7 -88h2q50 8 77 8q145 0 145 -173q0 -137 -150 -175q-82 -20 -103 -20q-65 0 -65 55q0 50 53 50q2 0 20 -2q0 -1 1 -1t2 1l7 2q6 2 24 6.5l34 8.5q62 17 72 53v22q0 70 -31 70
q-66 0 -89 -20q-38 -33 -57 -33q-53 0 -53 41z" />
    <glyph glyph-name="six" unicode="6" horiz-adv-x="397" 
d="M-1 245q0 80 38 162q67 145 172 145q130 0 130 -124q0 -54 -52 -54q-50 0 -53 70q-5 8 -32 8q-25 0 -55 -55q-28 -49 -28 -65v-3q25 5 71 5q56 0 102 -12q90 -26 90 -125q0 -74 -85 -138q-71 -53 -131 -53q-62 0 -129 111q-38 62 -38 128zM172 109q17 0 55 28
q50 36 50 59q0 20 -10 26q-43 10 -75 10q-30 0 -43 -3q-40 -7 -40 -20v-5q0 -5 18 -35q35 -60 45 -60z" />
    <glyph glyph-name="seven" unicode="7" horiz-adv-x="477" 
d="M69 505q169 10 227 10q96 0 96 -55q0 -25 -10 -38q-42 -52 -50 -67q-22 -37 -22 -47q1 0 6.5 0.5t17 1t23.5 0.5h6q56 0 56 -51q0 -42 -40 -52q-73 -4 -75 -10v-10q0 -15 5 -80q6 -9 6 -28q0 -49 -51 -49q-40 0 -55 50q-3 20 -7 70q0 4 -1 10.5t-2 9.5h-2h-3
q-45 -13 -55 -13q-50 0 -50 50q0 37 30 48l78 25l2 10q14 66 43 117v3l-165 -8q-50 0 -50 52q0 44 42 51z" />
    <glyph glyph-name="eight" unicode="8" horiz-adv-x="319" 
d="M11 361q0 162 145 162q153 0 153 -111q0 -69 -86 -150q1 0 1 -1l2 -1q43 -34 57 -53q23 -29 23 -73v-22q-24 -87 -132 -87q-138 0 -138 159q0 33 20 68v5q-45 59 -45 104zM111 367q0 -42 25 -42h2q38 23 73 77v2q0 16 -25 16h-53q-22 0 -22 -53zM133 171q0 -49 45 -49
q6 0 28 13v1q0 56 -65 56h-3q-5 0 -5 -21z" />
    <glyph glyph-name="nine" unicode="9" horiz-adv-x="422" 
d="M71 354q0 142 145 170q8 1 25 1q152 0 152 -123q0 -19 -15 -43l-7 -242q-4 -118 -107 -118q-42 0 -118 18q-58 13 -58 58q0 52 50 52q6 0 15 -3q74 -20 97 -20h13q7 18 8 85q-1 17 -1 50h-7q-20 -2 -22 -2h-9q-161 0 -161 117zM173 357q0 -16 44 -16q14 0 21 1
q15 12 45 67q-27 15 -41 15q-69 0 -69 -67z" />
    <glyph glyph-name="colon" unicode=":" horiz-adv-x="189" 
d="M29 316q0 48 35 62q5 1 14 1q59 0 59 -53q0 -63 -59 -63q-49 0 -49 53zM26 133q0 58 58 58q53 0 53 -50q0 -63 -57 -63q-54 0 -54 55z" />
    <glyph glyph-name="semicolon" unicode=";" horiz-adv-x="217" 
d="M73 357q0 53 54 53q51 0 51 -37v-48q0 -33 -48 -33q-57 0 -57 65zM10 15q0 14 3 20l67 150q12 25 48 25q48 0 48 -52q0 -12 -1 -13l-72 -160q-9 -21 -43 -21q-50 0 -50 51z" />
    <glyph glyph-name="less" unicode="&#x3c;" horiz-adv-x="347" 
d="M10 209q0 29 25 45l155 100q13 8 28 8q47 0 47 -50q0 -28 -15 -38l-81 -54l4 -3q46 -17 100 -38q37 -15 37 -48q0 -50 -49 -50q-9 0 -13 1q-36 10 -53 17q-82 32 -142 58q-43 13 -43 52z" />
    <glyph glyph-name="equal" unicode="=" horiz-adv-x="352" 
d="M0 348q0 46 45 50l215 28h13q52 0 52 -49q0 -44 -35 -49l-232 -30h-8q-50 0 -50 50zM17 162q0 46 38 49l233 17q1 1 11 1q51 0 51 -49q0 -47 -70 -54q-130 -13 -189 -13h-38q-36 11 -36 49z" />
    <glyph glyph-name="greater" unicode="&#x3e;" horiz-adv-x="319" 
d="M12 310q0 49 52 49q17 0 50 -12q76 -29 150 -60q48 -17 48 -57q0 -27 -20 -41l-163 -105q-8 -5 -22 -5q-51 0 -51 50q0 28 23 43l77 50l-112 42q-32 12 -32 46z" />
    <glyph glyph-name="question" unicode="?" horiz-adv-x="285" 
d="M3 456q0 122 90 122q178 0 178 -192q0 -46 -15 -83q-6 -18 -35 -83q-13 -33 -48 -33q-50 0 -50 49q0 4 3 17q18 43 37 92q8 21 8 46v19q-15 64 -69 64q0 -79 -49 -79q-50 0 -50 61zM116 74q0 54 57 54q56 0 56 -70q0 -56 -53 -56q-60 0 -60 72z" />
    <glyph glyph-name="at" unicode="@" horiz-adv-x="550" 
d="M5 310q0 97 113 180q74 55 164 55q233 0 233 -202q0 -183 -143 -183q-44 0 -69 30h-2h-1q-34 -18 -56 -18q-82 0 -82 70q0 131 130 131q86 0 86 -63q0 -2 -3 -25v-5q0 -8 5 -20h6q29 0 29 81q0 104 -140 104q-51 0 -100 -37q-70 -54 -70 -100q0 -51 53 -125
q73 -103 173 -103q38 0 107 15q20 23 46 23q49 0 49 -51q0 -53 -90 -75q-54 -12 -106 -12q-133 0 -239 118q-93 102 -93 212z" />
    <glyph glyph-name="A" unicode="A" horiz-adv-x="383" 
d="M34 46q0 39 10 75l78 282q11 38 48 38q51 0 62 -35l25 -83l107 -262q5 -15 5 -25q0 -50 -50 -50q-32 0 -47 35q-24 58 -28 62q-85 3 -98 3q-8 0 -9 -18l-5 -42q-10 -33 -48 -33q-50 0 -50 53zM169 188h33q-11 29 -20 45q-1 -3 -13 -45z" />
    <glyph glyph-name="B" unicode="B" horiz-adv-x="292" 
d="M120 -17q-103 0 -103 80v210q0 18 7 98q8 75 81 75q172 0 172 -155q0 -50 -53 -80q58 -61 58 -118q0 -67 -78 -95q-42 -15 -84 -15zM119 288v-12q55 12 55 28q0 37 -47 37q-8 0 -8 -53zM117 154v-71h8q54 0 54 18q0 53 -62 53z" />
    <glyph glyph-name="C" unicode="C" horiz-adv-x="339" 
d="M11 215q0 53 12 88q35 95 109 95q32 0 66 -12q71 -26 71 -68q0 -50 -50 -50q-11 0 -23 5q-48 23 -54 23h-9q-20 -11 -20 -45v-90q0 -63 99 -63q29 0 36 5q34 26 45 26q51 0 51 -52q0 -79 -132 -79q-201 0 -201 217z" />
    <glyph glyph-name="D" unicode="D" horiz-adv-x="370" 
d="M8 379q0 67 94 67q244 0 244 -230q0 -128 -120 -181q-69 -30 -106 -30q-68 0 -74 60l-25 270q0 4 -2 10q-11 24 -11 34zM124 341v-16l20 -212h1q101 0 101 104q0 124 -122 124z" />
    <glyph glyph-name="E" unicode="E" horiz-adv-x="337" 
d="M68 388q43 6 127 20q37 9 45 10q1 1 7 1q51 0 51 -52q0 -46 -70 -59l-93 -15l-5 -2v-35q0 -5 7 -5h6q7 1 42 5h9q51 0 51 -52q0 -46 -100 -58q-2 -2 -2 -7q0 -26 2 -28l8 -3h125q37 0 37 -50q0 -52 -55 -52h-130q-83 0 -87 67l-20 235q-1 3 -1 18q0 56 46 62z" />
    <glyph glyph-name="F" unicode="F" horiz-adv-x="318" 
d="M22 269v58q0 50 107 65q96 12 98 12q53 0 53 -49q0 -43 -38 -48l-98 -15h-22q0 -52 7 -52h125q36 0 36 -51q0 -49 -38 -49h-113v-71q0 -42 -48 -42q-45 0 -54 102q-6 67 -15 140z" />
    <glyph glyph-name="G" unicode="G" horiz-adv-x="369" 
d="M-8 198q0 50 21 108q47 135 192 135q125 0 125 -120q0 -50 -51 -50q-35 0 -46 32q-12 35 -15 38h-20q-106 0 -106 -135q0 -105 73 -105q46 0 70 32h-1h-1q-5 0 -9.5 -0.5t-7.5 -0.5t-5.5 -0.5t-4.5 -0.5h-1q-48 0 -48 52q0 42 43 48l100 12q1 1 9 1q51 0 51 -69
q0 -89 -97 -144q-53 -30 -103 -30q-75 0 -130 82q-38 58 -38 115z" />
    <glyph glyph-name="H" unicode="H" horiz-adv-x="411" 
d="M257 349q0 69 52 69q36 0 48 -35q-2 -49 2 -70l40 -253q1 -1 1 -8q0 -50 -52 -50q-42 0 -51 56q-6 31 -13 85l-2 5h-35h-55q-44 -2 -50 -3l-9 -2v-83q0 -38 -50 -38q-38 0 -49 38q0 38 -0.5 70t-1.5 46v15v18q1 18 1.5 58t0.5 86q7 37 49 37q50 0 50 -37v-105q37 0 131 2
v6v7q-1 13 -2.5 31t-3 29.5t-1.5 19.5v6z" />
    <glyph glyph-name="I" unicode="I" horiz-adv-x="182" 
d="M33 384q0 51 51 51q46 0 49 -47l15 -283v-55q0 -35 -49 -35q-47 0 -49 38l-17 315v16z" />
    <glyph glyph-name="J" unicode="J" horiz-adv-x="332" 
d="M195 381q0 54 52 54q47 0 51 -48q1 -17 5 -82v-69v-69q-5 -173 -151 -173q-139 0 -139 122q0 51 51 51q38 0 54 -57q1 -3 3 -5q8 -8 40 -8h15q13 6 22 60v84q0 22 -2 124q-1 2 -1 16z" />
    <glyph glyph-name="K" unicode="K" horiz-adv-x="377" 
d="M69 -28q-53 0 -53 63v373q0 38 50 38q38 0 50 -36l5 -77q2 -14 3 -20l5 2l120 93q34 37 59 37q51 0 51 -51q0 -33 -40 -64l-148 -112q28 -32 63 -58q58 -46 105 -80q20 -15 20 -40q0 -53 -50 -53q-17 0 -25 6q-69 45 -164 127v-110q0 -38 -51 -38z" />
    <glyph glyph-name="L" unicode="L" horiz-adv-x="370" 
d="M86 -9q-57 0 -57 55v365q0 42 51 42q52 0 52 -45v-272l2 -28h1h2q93 16 151 16q64 0 64 -52q0 -41 -43 -51q-97 -1 -162 -18q-49 -12 -61 -12z" />
    <glyph glyph-name="M" unicode="M" horiz-adv-x="533" 
d="M8 63v18l17 288q5 60 59 60q36 0 86 -53l85 -90h3q24 27 135 123q26 20 45 20q45 0 55 -43v-52v-53q-1 -18 -5 -107q-2 -59 0 -118q-7 -37 -50 -37q-55 0 -55 108q0 16 5 134v3h-3q-2 0 -22 -20l-75 -75q-13 -8 -30 -8q-14 0 -28 8q-48 39 -107 105l-3 -3l-10 -222
q-2 -45 -51 -45q-51 0 -51 59z" />
    <glyph glyph-name="N" unicode="N" horiz-adv-x="395" 
d="M283 366q4 70 53 70t49 -50q0 -14 -2 -38l-8 -265q-1 -45 -57 -45q-28 0 -38 10l-167 178q-1 -2 -1 -5q0 -4 1 -5q0 -23 0.5 -51t1 -47t0.5 -32v-24q0 -64 -50 -64q-44 0 -50 43q-5 207 -5 274v43q10 51 49 51q25 0 46 -23l170 -185q3 20 8 165z" />
    <glyph glyph-name="O" unicode="O" horiz-adv-x="382" 
d="M-3 183q0 207 194 207q177 0 177 -152q0 -62 -35 -126q-51 -90 -130 -90q-51 0 -115 35q-91 51 -91 126zM100 191q0 -64 100 -64q28 0 53 55q17 39 17 62q0 39 -64 39q-106 0 -106 -92z" />
    <glyph glyph-name="P" unicode="P" horiz-adv-x="333" 
d="M9 372q0 39 38 50h24q55 0 109 -15q140 -41 140 -137q0 -89 -100 -135q-27 -13 -85 -23q-1 -4 -1 -11q0 -10 1 -11q0 -5 0.5 -12t1 -11t0.5 -7v-10q0 -51 -50 -51q-46 0 -50 46l-27 317q-1 1 -1 10zM125 215l2 -3q7 -7 58 13q35 14 35 45q0 25 -50 40q-20 5 -53 10v-14
q0 -83 8 -91z" />
    <glyph glyph-name="Q" unicode="Q" horiz-adv-x="478" 
d="M14 190q0 65 23 128q49 135 201 135q115 0 169 -135q17 -45 17 -118q0 -2 -0.5 -9t-1 -20.5t-0.5 -27.5v-7v-8q47 -23 47 -57q0 -50 -52 -50q-9 0 -40 12q-1 1 -3 1t-7 -3q-75 -48 -141 -48q-192 0 -212 168v39zM116 191q0 -103 107 -103h29q10 1 12 5q-70 34 -70 68
q0 50 51 50q17 0 74 -28q3 7 3 15q0 24 -10 73q-17 80 -73 80q-123 0 -123 -160z" />
    <glyph glyph-name="R" unicode="R" horiz-adv-x="385" 
d="M27 353v45q0 58 95 58q49 0 100 -20q97 -40 97 -124q0 -88 -75 -131l5 -5l148 -108q17 -12 17 -38q0 -49 -50 -49q-17 0 -27 7l-187 130v-82q0 -38 -50 -38q-37 0 -48 35q0 132 -25 320zM129 356v-10l13 -100h2q75 0 75 58q0 44 -90 52z" />
    <glyph glyph-name="S" unicode="S" horiz-adv-x="379" 
d="M63 349q0 105 148 105q139 0 139 -82q0 -81 -65 -81q-43 0 -50 37l-5 20h-62q-3 0 -3 -3q0 -44 53 -67q70 -28 90 -47q48 -43 48 -108q0 -135 -129 -135q-37 0 -82 13q-112 31 -112 107q0 50 50 50q20 0 27 -7q69 -60 116 -60q30 0 30 30q0 17 -18 30q-85 40 -100 55
q-75 69 -75 143z" />
    <glyph glyph-name="T" unicode="T" horiz-adv-x="395" 
d="M5 298q0 45 37 49l293 40h9q51 0 51 -49q0 -44 -48 -51l-102 -18l-4 -2v-208q0 -35 -50 -35t-50 38v191q-12 0 -71 -4h-14q-51 0 -51 49z" />
    <glyph glyph-name="U" unicode="U" horiz-adv-x="402" 
d="M182 124q15 0 53 50q31 43 31 78v102q0 38 50 38q52 0 52 -106q0 -81 -38 -149q-62 -113 -152 -113q-69 0 -100 73q-16 36 -33 97q-30 116 -30 138q0 32 35 47q5 1 15 1q35 0 48 -31q12 -64 32 -137q22 -88 37 -88z" />
    <glyph glyph-name="V" unicode="V" horiz-adv-x="398" 
d="M282 383q13 28 46 28q49 0 49 -49q0 -12 -3 -19l-35 -82l-115 -215q-16 -33 -46 -33q-27 0 -54 30q-15 29 -35 78q-31 78 -77 205q-1 4 -1 12q0 50 49 50q36 0 49 -37l68 -178l2 -2q66 118 103 212z" />
    <glyph glyph-name="W" unicode="W" horiz-adv-x="497" 
d="M334 175l3 8l45 202q8 35 50 35q50 0 50 -51v-9l-20 -105l-58 -212q-15 -56 -65 -56q-33 0 -57 53q-39 84 -45 90l-3 3l-62 -100q-16 -28 -50 -28q-45 0 -60 60l-73 283v5q0 52 51 52q42 0 52 -42l46 -184l66 106q14 23 43 23q43 0 65 -70q20 -62 22 -63z" />
    <glyph glyph-name="X" unicode="X" horiz-adv-x="489" 
d="M11 419q0 53 50 53q22 0 35 -13l117 -117q11 -11 14 -11q1 0 1 1q25 24 88 102q18 23 44 23q51 0 51 -52q0 -29 -55 -91q-7 -8 -16.5 -17.5t-16 -16.5t-10.5 -11q-5 -7 -5 -9v-1q44 -44 108 -130q50 -68 50 -89q0 -51 -53 -51q-26 0 -52 35q-34 51 -38 55q-56 76 -82 98
l-100 -153q-14 -20 -42 -20q-51 0 -51 50q0 17 10 33l103 157v3q-41 40 -123 122q-27 29 -27 50z" />
    <glyph glyph-name="Y" unicode="Y" horiz-adv-x="377" 
d="M78 416l117 -127l58 129q11 23 43 23q52 0 52 -50q0 -10 -5 -23l-122 -270q-1 -3 -15 -60q-2 -4 -3 -7q-13 -33 -48 -33q-52 0 -52 50q0 48 43 138v5q-53 50 -140 152q-10 14 -10 32q0 51 51 51q22 0 31 -10z" />
    <glyph glyph-name="Z" unicode="Z" horiz-adv-x="327" 
d="M7 339q0 43 41 51l137 25h50q45 0 45 -51q0 -24 -15 -49q-48 -81 -90 -187h8q46 12 65 12q52 0 52 -51q0 -40 -35 -49l-152 -37q-1 -1 -11 -1q-60 0 -60 55q0 16 11 43l81 201l-74 -13q-1 -1 -4 -1q-49 0 -49 52z" />
    <glyph glyph-name="bracketleft" unicode="[" horiz-adv-x="329" 
d="M53 40q0 21 3 39l65 468q8 50 66 50q32 0 59 -5q68 -15 68 -58q0 -50 -49 -50q-7 0 -17 3q-24 7 -31 7q-2 0 -4 -5l-56 -410l99 -12q38 -5 38 -49q0 -40 -38 -49h-20q-11 0 -95 10q-88 10 -88 61z" />
    <glyph glyph-name="backslash" unicode="\" horiz-adv-x="372" 
d="M7 459q0 51 51 51q36 0 52 -48l210 -437q3 -6 3 -23q0 -47 -49 -47q-32 0 -44 25l-212 442q-11 24 -11 37z" />
    <glyph glyph-name="bracketright" unicode="]" horiz-adv-x="329" 
d="M43 550q0 44 58 54q40 8 69 8q61 0 68 -58l65 -480q1 -1 1 -13q0 -57 -88 -67q-86 -10 -95 -10h-20q-38 11 -38 49q0 42 88 54q47 6 47 7v18l-55 395q0 2 -3 2l-14 -2l-34 -8q-49 0 -49 51z" />
    <glyph glyph-name="asciicircum" unicode="^" horiz-adv-x="572" 
d="M132 371q0 10 1 11l52 168q13 45 56 45q47 0 122 -78q37 -40 70 -115q2 -12 2 -16q0 -49 -50 -49q-31 0 -42 23q-31 59 -35 65q-32 45 -40 45h-3l-37 -120q-10 -30 -49 -30q-47 0 -47 51z" />
    <glyph glyph-name="underscore" unicode="_" horiz-adv-x="463" 
d="M22 66q0 50 42 50h330q43 0 43 -50t-45 -50h-325q-45 0 -45 50z" />
    <glyph glyph-name="grave" unicode="`" horiz-adv-x="281" 
d="M22 453q0 50 52 50q17 0 25 -5l153 -95q15 -11 15 -39q0 -52 -50 -52q-14 0 -28 8l-145 90q-22 13 -22 43z" />
    <glyph glyph-name="a" unicode="a" horiz-adv-x="383" 
d="M34 46q0 39 10 75l78 282q11 38 48 38q51 0 62 -35l25 -83l107 -262q5 -15 5 -25q0 -50 -50 -50q-32 0 -47 35q-24 58 -28 62q-85 3 -98 3q-8 0 -9 -18l-5 -42q-10 -33 -48 -33q-50 0 -50 53zM169 188h33q-11 29 -20 45q-1 -3 -13 -45z" />
    <glyph glyph-name="b" unicode="b" horiz-adv-x="292" 
d="M120 -17q-103 0 -103 80v210q0 18 7 98q8 75 81 75q172 0 172 -155q0 -50 -53 -80q58 -61 58 -118q0 -67 -78 -95q-42 -15 -84 -15zM119 288v-12q55 12 55 28q0 37 -47 37q-8 0 -8 -53zM117 154v-71h8q54 0 54 18q0 53 -62 53z" />
    <glyph glyph-name="c" unicode="c" horiz-adv-x="339" 
d="M11 215q0 53 12 88q35 95 109 95q32 0 66 -12q71 -26 71 -68q0 -50 -50 -50q-11 0 -23 5q-48 23 -54 23h-9q-20 -11 -20 -45v-90q0 -63 99 -63q29 0 36 5q34 26 45 26q51 0 51 -52q0 -79 -132 -79q-201 0 -201 217z" />
    <glyph glyph-name="d" unicode="d" horiz-adv-x="370" 
d="M8 379q0 67 94 67q244 0 244 -230q0 -128 -120 -181q-69 -30 -106 -30q-68 0 -74 60l-25 270q0 4 -2 10q-11 24 -11 34zM124 341v-16l20 -212h1q101 0 101 104q0 124 -122 124z" />
    <glyph glyph-name="e" unicode="e" horiz-adv-x="337" 
d="M68 388q43 6 127 20q37 9 45 10q1 1 7 1q51 0 51 -52q0 -46 -70 -59l-93 -15l-5 -2v-35q0 -5 7 -5h6q7 1 42 5h9q51 0 51 -52q0 -46 -100 -58q-2 -2 -2 -7q0 -26 2 -28l8 -3h125q37 0 37 -50q0 -52 -55 -52h-130q-83 0 -87 67l-20 235q-1 3 -1 18q0 56 46 62z" />
    <glyph glyph-name="f" unicode="f" horiz-adv-x="318" 
d="M22 269v58q0 50 107 65q96 12 98 12q53 0 53 -49q0 -43 -38 -48l-98 -15h-22q0 -52 7 -52h125q36 0 36 -51q0 -49 -38 -49h-113v-71q0 -42 -48 -42q-45 0 -54 102q-6 67 -15 140z" />
    <glyph glyph-name="g" unicode="g" horiz-adv-x="369" 
d="M-8 198q0 50 21 108q47 135 192 135q125 0 125 -120q0 -50 -51 -50q-35 0 -46 32q-12 35 -15 38h-20q-106 0 -106 -135q0 -105 73 -105q46 0 70 32h-1h-1q-5 0 -9.5 -0.5t-7.5 -0.5t-5.5 -0.5t-4.5 -0.5h-1q-48 0 -48 52q0 42 43 48l100 12q1 1 9 1q51 0 51 -69
q0 -89 -97 -144q-53 -30 -103 -30q-75 0 -130 82q-38 58 -38 115z" />
    <glyph glyph-name="h" unicode="h" horiz-adv-x="411" 
d="M257 349q0 69 52 69q36 0 48 -35q-2 -49 2 -70l40 -253q1 -1 1 -8q0 -50 -52 -50q-42 0 -51 56q-6 31 -13 85l-2 5h-35h-55q-44 -2 -50 -3l-9 -2v-83q0 -38 -50 -38q-38 0 -49 38q0 38 -0.5 70t-1.5 46v15v18q1 18 1.5 58t0.5 86q7 37 49 37q50 0 50 -37v-105q37 0 131 2
v6v7q-1 13 -2.5 31t-3 29.5t-1.5 19.5v6z" />
    <glyph glyph-name="i" unicode="i" horiz-adv-x="182" 
d="M33 384q0 51 51 51q46 0 49 -47l15 -283v-55q0 -35 -49 -35q-47 0 -49 38l-17 315v16z" />
    <glyph glyph-name="j" unicode="j" horiz-adv-x="332" 
d="M195 381q0 54 52 54q47 0 51 -48q1 -17 5 -82v-69v-69q-5 -173 -151 -173q-139 0 -139 122q0 51 51 51q38 0 54 -57q1 -3 3 -5q8 -8 40 -8h15q13 6 22 60v84q0 22 -2 124q-1 2 -1 16z" />
    <glyph glyph-name="k" unicode="k" horiz-adv-x="377" 
d="M69 -28q-53 0 -53 63v373q0 38 50 38q38 0 50 -36l5 -77q2 -14 3 -20l5 2l120 93q34 37 59 37q51 0 51 -51q0 -33 -40 -64l-148 -112q28 -32 63 -58q58 -46 105 -80q20 -15 20 -40q0 -53 -50 -53q-17 0 -25 6q-69 45 -164 127v-110q0 -38 -51 -38z" />
    <glyph glyph-name="l" unicode="l" horiz-adv-x="370" 
d="M86 -9q-57 0 -57 55v365q0 42 51 42q52 0 52 -45v-272l2 -28h1h2q93 16 151 16q64 0 64 -52q0 -41 -43 -51q-97 -1 -162 -18q-49 -12 -61 -12z" />
    <glyph glyph-name="m" unicode="m" horiz-adv-x="533" 
d="M8 63v18l17 288q5 60 59 60q36 0 86 -53l85 -90h3q24 27 135 123q26 20 45 20q45 0 55 -43v-52v-53q-1 -18 -5 -107q-2 -59 0 -118q-7 -37 -50 -37q-55 0 -55 108q0 16 5 134v3h-3q-2 0 -22 -20l-75 -75q-13 -8 -30 -8q-14 0 -28 8q-48 39 -107 105l-3 -3l-10 -222
q-2 -45 -51 -45q-51 0 -51 59z" />
    <glyph glyph-name="n" unicode="n" horiz-adv-x="395" 
d="M283 366q4 70 53 70t49 -50q0 -14 -2 -38l-8 -265q-1 -45 -57 -45q-28 0 -38 10l-167 178q-1 -2 -1 -5q0 -4 1 -5q0 -23 0.5 -51t1 -47t0.5 -32v-24q0 -64 -50 -64q-44 0 -50 43q-5 207 -5 274v43q10 51 49 51q25 0 46 -23l170 -185q3 20 8 165z" />
    <glyph glyph-name="o" unicode="o" horiz-adv-x="382" 
d="M-3 183q0 207 194 207q177 0 177 -152q0 -62 -35 -126q-51 -90 -130 -90q-51 0 -115 35q-91 51 -91 126zM100 191q0 -64 100 -64q28 0 53 55q17 39 17 62q0 39 -64 39q-106 0 -106 -92z" />
    <glyph glyph-name="p" unicode="p" horiz-adv-x="333" 
d="M9 372q0 39 38 50h24q55 0 109 -15q140 -41 140 -137q0 -89 -100 -135q-27 -13 -85 -23q-1 -4 -1 -11q0 -10 1 -11q0 -5 0.5 -12t1 -11t0.5 -7v-10q0 -51 -50 -51q-46 0 -50 46l-27 317q-1 1 -1 10zM125 215l2 -3q7 -7 58 13q35 14 35 45q0 25 -50 40q-20 5 -53 10v-14
q0 -83 8 -91z" />
    <glyph glyph-name="q" unicode="q" horiz-adv-x="478" 
d="M14 190q0 65 23 128q49 135 201 135q115 0 169 -135q17 -45 17 -118q0 -2 -0.5 -9t-1 -20.5t-0.5 -27.5v-7v-8q47 -23 47 -57q0 -50 -52 -50q-9 0 -40 12q-1 1 -3 1t-7 -3q-75 -48 -141 -48q-192 0 -212 168v39zM116 191q0 -103 107 -103h29q10 1 12 5q-70 34 -70 68
q0 50 51 50q17 0 74 -28q3 7 3 15q0 24 -10 73q-17 80 -73 80q-123 0 -123 -160z" />
    <glyph glyph-name="r" unicode="r" horiz-adv-x="385" 
d="M27 353v45q0 58 95 58q49 0 100 -20q97 -40 97 -124q0 -88 -75 -131l5 -5l148 -108q17 -12 17 -38q0 -49 -50 -49q-17 0 -27 7l-187 130v-82q0 -38 -50 -38q-37 0 -48 35q0 132 -25 320zM129 356v-10l13 -100h2q75 0 75 58q0 44 -90 52z" />
    <glyph glyph-name="s" unicode="s" horiz-adv-x="379" 
d="M63 349q0 105 148 105q139 0 139 -82q0 -81 -65 -81q-43 0 -50 37l-5 20h-62q-3 0 -3 -3q0 -44 53 -67q70 -28 90 -47q48 -43 48 -108q0 -135 -129 -135q-37 0 -82 13q-112 31 -112 107q0 50 50 50q20 0 27 -7q69 -60 116 -60q30 0 30 30q0 17 -18 30q-85 40 -100 55
q-75 69 -75 143z" />
    <glyph glyph-name="t" unicode="t" horiz-adv-x="395" 
d="M5 298q0 45 37 49l293 40h9q51 0 51 -49q0 -44 -48 -51l-102 -18l-4 -2v-208q0 -35 -50 -35t-50 38v191q-12 0 -71 -4h-14q-51 0 -51 49z" />
    <glyph glyph-name="u" unicode="u" horiz-adv-x="402" 
d="M182 124q15 0 53 50q31 43 31 78v102q0 38 50 38q52 0 52 -106q0 -81 -38 -149q-62 -113 -152 -113q-69 0 -100 73q-16 36 -33 97q-30 116 -30 138q0 32 35 47q5 1 15 1q35 0 48 -31q12 -64 32 -137q22 -88 37 -88z" />
    <glyph glyph-name="v" unicode="v" horiz-adv-x="398" 
d="M282 383q13 28 46 28q49 0 49 -49q0 -12 -3 -19l-35 -82l-115 -215q-16 -33 -46 -33q-27 0 -54 30q-15 29 -35 78q-31 78 -77 205q-1 4 -1 12q0 50 49 50q36 0 49 -37l68 -178l2 -2q66 118 103 212z" />
    <glyph glyph-name="w" unicode="w" horiz-adv-x="497" 
d="M334 175l3 8l45 202q8 35 50 35q50 0 50 -51v-9l-20 -105l-58 -212q-15 -56 -65 -56q-33 0 -57 53q-39 84 -45 90l-3 3l-62 -100q-16 -28 -50 -28q-45 0 -60 60l-73 283v5q0 52 51 52q42 0 52 -42l46 -184l66 106q14 23 43 23q43 0 65 -70q20 -62 22 -63z" />
    <glyph glyph-name="x" unicode="x" horiz-adv-x="489" 
d="M11 419q0 53 50 53q22 0 35 -13l117 -117q11 -11 14 -11q1 0 1 1q25 24 88 102q18 23 44 23q51 0 51 -52q0 -29 -55 -91q-7 -8 -16.5 -17.5t-16 -16.5t-10.5 -11q-5 -7 -5 -9v-1q44 -44 108 -130q50 -68 50 -89q0 -51 -53 -51q-26 0 -52 35q-34 51 -38 55q-56 76 -82 98
l-100 -153q-14 -20 -42 -20q-51 0 -51 50q0 17 10 33l103 157v3q-41 40 -123 122q-27 29 -27 50z" />
    <glyph glyph-name="y" unicode="y" horiz-adv-x="377" 
d="M78 416l117 -127l58 129q11 23 43 23q52 0 52 -50q0 -10 -5 -23l-122 -270q-1 -3 -15 -60q-2 -4 -3 -7q-13 -33 -48 -33q-52 0 -52 50q0 48 43 138v5q-53 50 -140 152q-10 14 -10 32q0 51 51 51q22 0 31 -10z" />
    <glyph glyph-name="z" unicode="z" horiz-adv-x="327" 
d="M7 339q0 43 41 51l137 25h50q45 0 45 -51q0 -24 -15 -49q-48 -81 -90 -187h8q46 12 65 12q52 0 52 -51q0 -40 -35 -49l-152 -37q-1 -1 -11 -1q-60 0 -60 55q0 16 11 43l81 201l-74 -13q-1 -1 -4 -1q-49 0 -49 52z" />
    <glyph glyph-name="braceleft" unicode="{" horiz-adv-x="380" 
d="M105 541q13 52 107 52q126 0 126 -80q0 -50 -48 -50q-24 0 -35 10q-19 18 -30 18q-15 0 -15 -3v-87q0 -9 -20 -55v-1v-2q43 -39 43 -80q0 -38 -13 -65q-38 -85 -38 -88q0 -29 19 -29h4q20 32 49 32q51 0 51 -52q0 -63 -77 -83h-23q-125 0 -125 126q0 43 10 64
q38 84 38 87v6q-15 8 -58 20l-10 5q-25 13 -25 45q0 25 15 37q58 46 58 62v13q-3 65 -3 67v31z" />
    <glyph glyph-name="bar" unicode="|" horiz-adv-x="143" 
d="M70 -89q-50 0 -50 37v543q0 37 49 37q51 0 51 -40v-537q0 -40 -50 -40z" />
    <glyph glyph-name="braceright" unicode="}" horiz-adv-x="380" 
d="M39 479q0 81 125 81q110 0 110 -79v-16q-2 -30 -2 -33q-1 -2 -1 -27q0 -19 1 -28q5 -10 7 -12q63 -47 63 -67q0 -43 -43 -53q-30 -7 -50 -18v-5q0 -3 38 -85q10 -21 10 -63q0 -129 -122 -129q-103 0 -103 82q0 53 52 53q23 0 40 -20q10 -13 12 -13q18 0 18 28q0 12 -2 20
q-46 93 -46 134q0 46 41 81v2v3q-23 57 -20 140q-5 3 -15 3q-12 0 -15 -3q-31 -25 -45 -25q-53 0 -53 49z" />
    <glyph glyph-name="asciitilde" unicode="~" horiz-adv-x="615" 
d="M523 382q14 8 27 8q49 0 49 -50q0 -16 -8 -30q-102 -113 -180 -113q-40 0 -88 18q-57 23 -62 25q-33 13 -64 13q-14 0 -21 -1q-28 -10 -70 -57q-27 -30 -46 -30q-52 0 -52 50q0 36 83 102q47 38 105 38q43 0 70 -10l122 -45q8 -3 22 -3q20 0 71 45q15 13 42 40z" />
    <glyph glyph-name="currency" unicode="&#xa4;" horiz-adv-x="460" 
d="M187 334q45 0 50 3l107 72q14 10 35 10q50 0 50 -52q0 -26 -20 -40l-75 -50l-5 -5q2 -6 3 -8q11 -46 7 -80l8 -7l85 -58q20 -14 20 -44q0 -49 -51 -49q-17 0 -24 6l-108 72h-3h-4q-27 -3 -43 -3t-25 1q-11 4 -40 15h-1q-3 0 -4 -3q-18 -24 -32 -47q-11 -21 -18 -30
q-17 -23 -44 -23q-51 0 -51 50q0 21 23 55q26 40 60 85q6 6 22 18l3 2l2 35l-42 43q-2 2 -8 5q-21 9 -30 15q-20 14 -20 42q0 50 50 50q46 0 108 -65q14 -15 15 -15zM229 206q10 0 10 12q0 16 -23 16q0 -28 13 -28z" />
    <glyph glyph-name="brokenbar" unicode="&#xa6;" horiz-adv-x="551" 
d="M298 401q0 64 3 86q10 91 59 91q51 0 51 -52q0 -18 -9 -59v-117q0 -45 -52 -45q-46 0 -52 42v54zM291 182q9 39 50 39q50 0 50 -39v-210q0 -55 -51 -55q-42 0 -52 40v60q0 93 3 165z" />
    <glyph glyph-name="section" unicode="&#xa7;" horiz-adv-x="319" 
d="M44 523q0 122 100 122h120q43 0 43 -51q0 -52 -43 -52h-105q-13 0 -13 -22q0 -26 46 -68q7 -6 32 -27q53 -48 53 -89q0 -54 -55 -84l-33 -17q70 -46 70 -98q0 -50 -47 -77q-119 -68 -135 -68q-51 0 -51 51q0 30 21 42l94 56l-87 51q-63 38 -63 100q0 47 56 100l30 29
q0 1 -3 6q-14 25 -20 38q-10 23 -10 58zM134 330h1q23 0 27 10q-5 5 -6 5q-8 0 -22 -15z" />
    <glyph glyph-name="copyright" unicode="&#xa9;" horiz-adv-x="351" 
d="M-20 329q0 170 159 170q131 0 131 -161q0 -167 -148 -167q-142 0 -142 158zM15 371q0 -136 115 -136q17 0 25 1q40 10 40 49q0 50 -35 50h-40q-2 0 -2 28h2q37 -12 44 -12q49 0 49 50q0 67 -103 67q-95 0 -95 -97z" />
    <glyph glyph-name="guillemotleft" unicode="&#xab;" horiz-adv-x="430" 
d="M14 203q0 23 20 49q29 35 35 47q40 70 66 70q49 0 49 -47q0 -34 -50 -108v-1q0 -3 3 -4q10 -8 23.5 -18.5t16.5 -13.5q37 -34 37 -57q0 -51 -50 -51q-14 0 -57 35q-18 14 -42 32.5t-28 22.5q-23 18 -23 44zM214 203q0 23 20 49q29 35 35 47q40 70 66 70q49 0 49 -47
q0 -34 -50 -108v-1q0 -3 3 -4q10 -8 23.5 -18.5t16.5 -13.5q37 -34 37 -57q0 -51 -50 -51q-14 0 -57 35q-18 14 -42 32.5t-28 22.5q-23 18 -23 44z" />
    <glyph glyph-name="logicalnot" unicode="&#xac;" horiz-adv-x="572" 
d="M62 305q0 42 43 52h98q142 0 232 -3q62 -9 73 -77q7 -52 7 -105q0 -56 -53 -56q-36 0 -47 36q-10 50 -10 101h-295q-48 0 -48 52z" />
    <glyph glyph-name="registered" unicode="&#xae;" horiz-adv-x="346" 
d="M81 501q19 13 53 13q150 0 150 -168q0 -23 -3 -38q-9 -47 -15 -47q-21 0 -45 32q45 42 45 88q0 123 -144 123q-4 0 -34 -3h-3h-4zM-7 355q0 87 30 106v-1v-2q-23 -68 -27 -155q-3 17 -3 52zM156 373h-51q0 25 8 28h13q48 0 44 -12l-4 -6zM91 199q0 39 5 54l5 -2l87 -60
q-8 -5 -36 -5q-61 0 -61 13z" />
    <glyph glyph-name="degree" unicode="&#xb0;" horiz-adv-x="211" 
d="M2 477q0 102 107 102q119 0 119 -121q0 -111 -85 -111h-68q-45 0 -62 60q-11 39 -11 70zM115 449q15 0 15 13q0 12 -7 12h-18q0 -25 10 -25z" />
    <glyph glyph-name="plusminus" unicode="&#xb1;" horiz-adv-x="445" 
d="M149 392l4 3v92q0 38 51 38t51 -38v-81q5 0 87 6q1 1 15 1q55 0 55 -51q0 -44 -40 -50l-115 -15v-87q0 -40 -52 -40t-52 47v67q-4 0 -56 -2h-13q-53 0 -53 53q0 46 46 50q24 3 72 7zM24 65q0 49 58 52l232 15h78q37 0 37 -50q0 -47 -37 -50l-263 -17h-65q-40 0 -40 50z
" />
    <glyph glyph-name="paragraph" unicode="&#xb6;" horiz-adv-x="430" 
d="M16 359q0 64 20 115q43 108 152 108h168q60 0 60 -53v-572q0 -43 -51 -43q-39 0 -52 43q2 98 0 197q0 107 -2 323h-60v-520q0 -43 -51 -43q-52 0 -52 45v203l-2 27q-130 34 -130 170z" />
    <glyph glyph-name="periodcentered" unicode="&#xb7;" horiz-adv-x="268" 
d="M12 236q0 110 112 110q134 0 134 -126q0 -56 -48 -94q-50 -40 -71 -40q-127 0 -127 150z" />
    <glyph glyph-name="guillemotright" unicode="&#xbb;" horiz-adv-x="439" 
d="M56 330q0 49 50 49q23 0 41 -20q23 -53 50 -85q30 -37 30 -61q0 -27 -28 -49q-12 -9 -30.5 -23t-24.5 -19q-14 -11 -40 -35q-13 -8 -26 -8q-49 0 -49 49q0 28 73 89q5 5 5 6t-3 6q-20 30 -27 45q-21 36 -21 56zM256 330q0 49 50 49q23 0 41 -20q23 -53 50 -85
q30 -37 30 -61q0 -27 -28 -49q-12 -9 -30.5 -23t-24.5 -19q-14 -11 -40 -35q-13 -8 -26 -8q-49 0 -49 49q0 28 73 89q5 5 5 6t-3 6q-20 30 -27 45q-21 36 -21 56z" />
    <glyph glyph-name="uni03BC" unicode="&#x3bc;" horiz-adv-x="417" 
d="M172 125q83 0 89 82l5 75q3 41 49 41q51 0 51 -64v-12l-3 -45v-11q0 -37 13 -56q22 -34 22 -46q0 -49 -47 -49q-28 0 -55 30h-3q-47 -38 -87 -45h-28q-20 0 -52 5h-3v-3q10 -204 10 -216q0 -51 -50 -51q-47 0 -50 42l-25 420v19q0 62 50 62q43 0 50 -43q9 -50 15 -75
q15 -55 30 -60h19z" />
    <glyph glyph-name="uni0400" unicode="&#x400;" horiz-adv-x="347" 
d="M-93 642q0 51 52 51q17 0 25 -6l153 -95q15 -9 15 -38q0 -52 -50 -52q-14 0 -28 8l-145 90q-22 13 -22 42zM6 252q0 63 16 98q42 98 122 98q109 0 130 -106v-30q0 -132 -130 -172v-1q0 -37 60 -37q12 0 23 3q42 13 49 13q51 0 51 -49q0 -64 -118 -64q-122 0 -180 130
q-23 51 -23 117zM112 235q63 0 63 80q0 15 -1 22q-4 16 -13 16q-57 0 -57 -56v-52q0 -10 8 -10z" />
    <glyph glyph-name="uni0401" unicode="&#x401;" horiz-adv-x="357" 
d="M206 597q0 50 49 50q57 0 57 -62q0 -56 -50 -56q-56 0 -56 68zM41 584q0 60 58 60q48 0 48 -57q0 -58 -52 -58q-54 0 -54 55zM9 282q0 165 145 165q193 0 193 -163q0 -79 -98 -112q-47 -17 -92 -25q29 -33 60 -33q15 0 25 3q44 12 47 12q50 0 50 -50q0 -63 -116 -63
q-125 0 -181 131q-33 77 -33 135zM102 297q0 -53 17 -53q28 0 65 8q60 14 60 38q0 57 -77 57q-65 0 -65 -50z" />
    <glyph glyph-name="uni0402" unicode="&#x402;" horiz-adv-x="618" 
d="M13 519q0 53 68 53h172q40 0 40 -50q0 -52 -37 -52h-39q0 -45 4 -76q173 5 295 -77q70 -46 70 -113v-102q0 -79 -110 -90q-26 -3 -95 -3h-60q-40 10 -40 51q0 39 37 49q46 1 138 5q30 2 30 6v2q-3 26 -5 85q-17 33 -103 70q-27 13 -106 13q-27 0 -31 -1l-15 -2v-198
q2 -36 2 -55q0 -53 -50 -53q-54 0 -55 78l-5 298l-10 111h-55q-40 0 -40 51z" />
    <glyph glyph-name="uni0403" unicode="&#x403;" horiz-adv-x="324" 
d="M307 684q13 25 43 25q49 0 49 -51q0 -28 -42 -109q-54 -100 -120 -100q-51 0 -51 50q0 24 23 42q50 41 60 58q14 24 38 85zM32 356q4 43 49 43h13q8 -3 10 -3h13h17l75 3h30h30q43 -6 43 -50q0 -49 -48 -50l-140 -5l-12 -250q-2 -38 -52 -38q-49 0 -49 50q0 160 21 300z
" />
    <glyph glyph-name="uni0404" unicode="&#x404;" horiz-adv-x="351" 
d="M13 174q0 48 17 107q38 120 172 120q76 0 76 -56q0 -49 -50 -49h-13q-6 2 -7 2h-6q-75 0 -75 -60h1l112 18h15q56 0 56 -47q0 -43 -41 -51l-125 -20v-1q0 -36 79 -36q10 0 14 2q41 38 57 38q51 0 51 -52q0 -86 -132 -86q-45 0 -104 35q-97 60 -97 136z" />
    <glyph glyph-name="uni0405" unicode="&#x405;" horiz-adv-x="379" 
d="M63 349q0 105 148 105q139 0 139 -82q0 -81 -65 -81q-43 0 -50 37l-5 20h-62q-3 0 -3 -3q0 -44 53 -67q70 -28 90 -47q48 -43 48 -108q0 -135 -129 -135q-37 0 -82 13q-112 31 -112 107q0 50 50 50q20 0 27 -7q69 -60 116 -60q30 0 30 30q0 17 -18 30q-85 40 -100 55
q-75 69 -75 143z" />
    <glyph glyph-name="uni0406" unicode="&#x406;" horiz-adv-x="182" 
d="M21 533q0 56 56 56t56 -66q0 -64 -56 -64t-56 74zM46 44l-15 280v55q0 33 47 33q48 0 50 -35l18 -313v-17q0 -56 -51 -56q-46 0 -49 53z" />
    <glyph glyph-name="uni0407" unicode="&#x407;" horiz-adv-x="222" 
d="M-33 510q0 54 53 54q50 0 50 -53q0 -55 -51 -55q-52 0 -52 54zM180 501q0 50 49 50q11 0 29 -5q1 -1 2 0q25 -22 25 -49q0 -49 -55 -49h-17q-33 9 -33 53zM35 70q0 110 20 278q6 48 51 48q52 0 52 -52q0 -27 -10 -88l-10 -203q-3 -45 -52 -45q-42 0 -51 40v22z" />
    <glyph glyph-name="uni0408" unicode="&#x408;" horiz-adv-x="332" 
d="M195 381q0 54 52 54q47 0 51 -48q1 -17 5 -82v-69v-69q-5 -173 -151 -173q-139 0 -139 122q0 51 51 51q38 0 54 -57q1 -3 3 -5q8 -8 40 -8h15q13 6 22 60v84q0 22 -2 124q-1 2 -1 16z" />
    <glyph glyph-name="uni0409" unicode="&#x409;" horiz-adv-x="570" 
d="M108 346q14 45 82 45h18q66 -7 82 -8q86 -6 86 -52v-103q74 -6 99 -12q70 -18 70 -94q0 -121 -172 -121q-97 0 -97 87v193q0 4 -62 4q2 -66 1 -102q-2 -36 -5 -52q-27 -135 -122 -135q-73 0 -73 51q0 53 73 49q20 14 25 67q2 42 2 58q0 21 -2 55q-6 51 -6 52q0 12 1 18z
M378 125v-24q70 1 70 16v1q-27 7 -70 7z" />
    <glyph glyph-name="uni040A" unicode="&#x40a;" horiz-adv-x="483" 
d="M215 257v125q0 35 50 35t50 -40v-83l3 -2q156 -15 156 -137q0 -138 -132 -138q-96 0 -116 132l-3 5h-13q-90 0 -94 -2l-3 -3v-75q0 -47 -51 -47q-43 0 -49 42q-7 172 -7 256v34q11 35 49 35q46 0 48 -35l5 -105h15q31 0 92 3zM343 111q40 0 40 39q0 40 -60 40
q0 -79 20 -79z" />
    <glyph glyph-name="uni040B" unicode="&#x40b;" horiz-adv-x="507" 
d="M68 508q215 5 247 5h23q41 -9 41 -52q0 -47 -46 -50q-83 -2 -102 -5v-112q1 -1 5 -1q49 11 63 11q157 0 179 -141q13 -77 13 -104q0 -53 -51 -53q-44 0 -52 47l-15 105q0 43 -77 43q-66 0 -68 -33l-5 -122q-1 -45 -52 -45q-53 0 -53 50v2q5 85 5 113q-1 79 -1 239h-84
q-40 0 -40 51q0 56 70 52z" />
    <glyph glyph-name="uni040C" unicode="&#x40c;" 
d="M217 522q0 21 10 31l153 150q18 18 39 18q54 0 54 -50q0 -20 -8 -28l-163 -160q-10 -10 -33 -10q-52 0 -52 49zM17 72v14l28 257q5 41 51 41t46 -36v-44q15 0 68 62q15 18 41 18q47 0 47 -49q0 -34 -56 -82q-27 -24 -57 -45q79 -46 160 -50q38 -2 38 -50q0 -50 -68 -50
q-33 0 -70 15q-51 20 -120 50l-3 -5l-7 -62q-5 -38 -49 -38q-49 0 -49 54z" />
    <glyph glyph-name="uni040D" unicode="&#x40d;" 
d="M-66 605q0 51 52 51q18 0 25 -6l153 -95q15 -9 15 -38q0 -52 -50 -52q-14 0 -28 8l-145 90q-22 13 -22 42zM11 335q6 43 50 43q46 0 50 -43q-4 -103 13 -182q11 -50 22 -50q5 0 10 5q27 24 40 42q33 44 33 52v1q-6 63 -6 84q0 17 1 26q11 38 48 38q40 0 49 -38
q2 -56 5 -83q7 -79 25 -105q28 -37 28 -50q0 -50 -49 -50q-30 0 -56 38q-7 10 -9 10h-1q-64 -70 -116 -70q-95 0 -124 140q-13 62 -13 147v45z" />
    <glyph glyph-name="uni040E" unicode="&#x40e;" horiz-adv-x="398" 
d="M159 583q69 0 75 10q30 53 57 53q50 0 50 -51q0 -81 -87 -107q-27 -7 -90 -7q-138 0 -138 96q0 52 51 52q36 0 57 -43q12 -3 25 -3zM251 372q0 54 49 54q48 0 56 -75q5 -65 5 -106q0 -66 -20 -109q-65 -138 -191 -138h-34q-57 8 -57 53q0 50 49 50h8q30 -3 34 -3
q99 0 99 79v1q-41 -12 -74 -12q-96 0 -136 145q-10 33 -10 54q0 49 51 49q38 0 49 -41q18 -78 30 -105q12 -5 23 -5q72 0 72 52v13q-2 18 -3 25v19z" />
    <glyph glyph-name="uni040F" unicode="&#x40f;" horiz-adv-x="393" 
d="M259 449q0 53 50 53q45 0 53 -50q25 -156 25 -304q0 -78 -50 -78h-104v-111q0 -40 -54 -40q-51 0 -51 45v105q-109 3 -121 63q-6 122 -6 246q0 51 1 76q9 40 51 40q49 0 51 -50l8 -267h167v75l-20 185v12z" />
    <glyph glyph-name="uni0410" unicode="&#x410;" horiz-adv-x="446" 
d="M15 192q0 226 183 226q154 0 154 -136v-87q0 -51 39 -75q50 -32 50 -56q0 -49 -50 -49q-48 0 -103 70l-2 2q-49 -52 -108 -52q-163 0 -163 157zM113 194q0 -62 55 -62q45 0 60 73q8 40 8 88q0 11 -3 22q-25 3 -39 3q-81 0 -81 -124z" />
    <glyph glyph-name="uni0411" unicode="&#x411;" horiz-adv-x="412" 
d="M375 667l162 8q53 10 59 10q49 0 49 -49q0 -55 -115 -64q-96 -6 -125 -5q-8 -153 -43 -337q-18 -68 -60 -128q-60 -85 -127 -85q-156 0 -156 165q0 58 28 123q49 118 169 118q2 0 69 -6h3h2l2 15l10 180q3 52 73 55zM109 191q0 -71 63 -71q25 0 65 67q30 52 30 86v1
q0 1 -0.5 2.5t-1 4t-0.5 4.5q-2 5 -4.5 15t-3.5 15q-3 8 -49 8q-99 0 -99 -132z" />
    <glyph glyph-name="uni0412" unicode="&#x412;" horiz-adv-x="345" 
d="M4 392q0 33 88 78q29 15 65 15q61 0 88 -8q72 -21 72 -85v-67q0 -26 -30 -65q50 -44 50 -90q0 -131 -115 -150h-42q-56 0 -83 7q-89 26 -89 95v250q-4 8 -4 20zM112 365v-73q8 4 43 13q62 17 62 32v43q0 3 -41 3q-20 0 -29 -1q-35 -8 -35 -17zM235 164q0 34 -50 36
q-62 3 -73 10v-83q0 -7 15 -7h80q28 0 28 44z" />
    <glyph glyph-name="uni0413" unicode="&#x413;" horiz-adv-x="324" 
d="M38 348q4 43 50 43q11 0 20 -3h172q38 0 38 -48t-40 -49l-143 -5l-5 -5l-12 -245q-1 -40 -49 -40q-51 0 -51 53q0 165 20 299z" />
    <glyph glyph-name="uni0414" unicode="&#x414;" horiz-adv-x="490" 
d="M17 95l30 280q5 38 48 38q27 0 39 -18l155 -232l3 -3q56 -1 95 -17q95 -41 95 -125v-21q-11 -35 -51 -35q-39 0 -47 41q-6 29 -12 37q-18 18 -72 18q-153 0 -223 -43q-6 -53 -50 -53q-51 0 -51 50q0 37 41 83zM132 216l-8 -71l3 -2q8 -10 47 10z" />
    <glyph glyph-name="uni0415" unicode="&#x415;" horiz-adv-x="347" 
d="M5 256q0 47 15 89q37 103 126 103q129 0 129 -137q0 -124 -115 -166q-17 -6 -17 -8q30 -35 62 -35q13 0 23 3q42 13 49 13q48 0 48 -48q0 -65 -116 -65q-121 0 -174 117q-30 68 -30 134zM102 274q0 -33 6 -39h6q61 0 61 81q0 37 -15 37q-58 0 -58 -79z" />
    <glyph glyph-name="uni0416" unicode="&#x416;" horiz-adv-x="512" 
d="M10 365q0 49 50 49q19 0 30 -8l80 -60l5 -3q41 66 73 66q51 0 51 -41v-47q23 19 71 55q20 15 40 15q48 0 48 -48q0 -27 -13 -37l-92 -73q-3 -1 -3 -3t3 -4l135 -95q22 -16 22 -43q0 -50 -49 -50q-15 0 -23 5l-138 96v-103q0 -45 -50 -45q-51 0 -51 42v88q-12 -5 -61 -50
q-47 -43 -55 -43q-58 0 -58 55q0 15 15 40q40 70 75 130l3 5l-83 63q-25 19 -25 44z" />
    <glyph glyph-name="uni0417" unicode="&#x417;" horiz-adv-x="280" 
d="M2 374q0 51 76 51q117 0 117 -84q0 -37 -33 -99q44 -27 68 -47q45 -41 45 -85q0 -79 -115 -95q-58 -8 -91 -8q-65 0 -65 50q0 49 46 50q45 1 70 3t45 7q-13 13 -50 35q-37 21 -50 28q-28 16 -28 46q0 20 10 31l53 67q0 4 -9 4q-5 0 -6 -1q-22 -2 -23 -2h-12q-48 0 -48 49
z" />
    <glyph glyph-name="uni0418" unicode="&#x418;" 
d="M10 287q0 92 49 92q44 0 52 -41q-3 -122 15 -192q10 -43 21 -43q12 0 34 28q22 27 47 67v5v5l-5 82v21q10 40 49 40q48 0 51 -48q1 -41 3 -65q0 -5 2 -25q7 -61 20 -82q30 -51 30 -55q0 -50 -50 -50q-26 0 -60 45q-2 2 -4 2h-1q-67 -70 -114 -70q-98 0 -123 133
q-16 77 -16 151z" />
    <glyph glyph-name="uni0419" unicode="&#x419;" horiz-adv-x="389" 
d="M46 503q0 49 38 49h205q37 0 37 -49t-37 -49h-205q-38 0 -38 49zM4 374q11 38 48 38q38 0 49 -38q3 -67 10 -120q12 -95 35 -137q73 58 73 183l-1 6q0 6 -1.5 19.5t-2.5 28.5q-1 1 -1 9q0 49 51 49q41 0 50 -40l70 -310v-9q0 -51 -49 -51q-41 0 -49 35l-17 75h-3
q-57 -98 -124 -98q-52 0 -86 60q-19 36 -30 83q-23 110 -23 192q0 17 1 25z" />
    <glyph glyph-name="uni041A" unicode="&#x41a;" 
d="M17 72v14l28 257q5 41 51 41t46 -36v-44q15 0 68 62q15 18 41 18q47 0 47 -49q0 -34 -56 -82q-27 -24 -57 -45q79 -46 160 -50q38 -2 38 -50q0 -50 -68 -50q-33 0 -70 15q-51 20 -120 50l-3 -5l-7 -62q-5 -38 -49 -38q-49 0 -49 54z" />
    <glyph glyph-name="uni041B" unicode="&#x41b;" horiz-adv-x="352" 
d="M1 90q0 16 13 32q60 78 72 95q51 71 58 148q3 40 50 40q39 0 50 -30l82 -248q8 -19 8 -33q0 -47 -49 -47q-39 0 -54 45l-35 107l-100 -134q-19 -25 -44 -25q-51 0 -51 50z" />
    <glyph glyph-name="uni041C" unicode="&#x41c;" horiz-adv-x="390" 
d="M196 248l7 8l75 112q15 23 39 23q52 0 52 -40v-263q4 -7 4 -17q0 -48 -46 -48q-53 0 -53 53v117q-46 -45 -86 -45q-47 0 -80 58h-2q0 -26 2 -120v-4q0 -49 -47 -49q-45 0 -48 53q-2 52 -2 75q-1 7 -1 74q0 48 1 73q9 45 55 45q36 0 87 -60q32 -37 43 -45z" />
    <glyph glyph-name="uni041D" unicode="&#x41d;" horiz-adv-x="411" 
d="M257 349q0 69 52 69q36 0 48 -35q-2 -49 2 -70l40 -253q1 -1 1 -8q0 -50 -52 -50q-42 0 -51 56q-6 31 -13 85l-2 5h-35h-55q-44 -2 -50 -3l-9 -2v-83q0 -38 -50 -38q-38 0 -49 38q0 38 -0.5 70t-1.5 46v15v18q1 18 1.5 58t0.5 86q7 37 49 37q50 0 50 -37v-105q37 0 131 2
v6v7q-1 13 -2.5 31t-3 29.5t-1.5 19.5v6z" />
    <glyph glyph-name="uni041E" unicode="&#x41e;" horiz-adv-x="426" 
d="M123 332q11 51 67 51q52 0 113 -43q90 -63 90 -154q0 -100 -102 -136q-51 -18 -99 -18q-174 0 -174 182q0 44 10 88q10 51 53 51q23 0 42 -21zM118 214q0 -84 59 -84q19 0 84 15q40 10 40 32q0 29 -30 60q-45 48 -68 48q-3 0 -12 -3q-14 -2 -17 -2q-24 0 -41 20
q-15 -20 -15 -86z" />
    <glyph glyph-name="uni041F" unicode="&#x41f;" horiz-adv-x="365" 
d="M5 338q0 40 63 63q23 8 52 17q52 16 90 16q111 0 118 -73q0 -38 5 -83q12 -121 25 -215v-5q0 -47 -50 -47q-46 0 -50 42l-30 283h-2q-8 0 -51 -8q-62 -11 -62 -20v-17l32 -220v-11q0 -49 -47 -49q-45 0 -50 35l-43 280v12z" />
    <glyph glyph-name="uni0420" unicode="&#x420;" horiz-adv-x="333" 
d="M9 372q0 39 38 50h24q55 0 109 -15q140 -41 140 -137q0 -89 -100 -135q-27 -13 -85 -23q-1 -4 -1 -11q0 -10 1 -11q0 -5 0.5 -12t1 -11t0.5 -7v-10q0 -51 -50 -51q-46 0 -50 46l-27 317q-1 1 -1 10zM125 215l2 -3q7 -7 58 13q35 14 35 45q0 25 -50 40q-20 5 -53 10v-14
q0 -83 8 -91z" />
    <glyph glyph-name="uni0421" unicode="&#x421;" horiz-adv-x="339" 
d="M11 215q0 53 12 88q35 95 109 95q32 0 66 -12q71 -26 71 -68q0 -50 -50 -50q-11 0 -23 5q-48 23 -54 23h-9q-20 -11 -20 -45v-90q0 -63 99 -63q29 0 36 5q34 26 45 26q51 0 51 -52q0 -79 -132 -79q-201 0 -201 217z" />
    <glyph glyph-name="uni0422" unicode="&#x422;" horiz-adv-x="434" 
d="M67 384h60l253 29h8q50 0 50 -51q0 -43 -48 -49q-37 -5 -113 -15l-10 -3v-30q0 -147 20 -235q1 -3 1 -9q0 -51 -49 -51q-45 0 -57 70q-8 50 -10 73l-7 172h-6h-7q-56 -2 -62 -2q-2 -1 -13 -1q-52 0 -52 53q0 49 42 49z" />
    <glyph glyph-name="uni0423" unicode="&#x423;" horiz-adv-x="381" 
d="M223 372q0 55 50 55q49 0 55 -75q5 -75 5 -108q0 -67 -25 -120q-59 -128 -188 -128q-89 0 -89 56q0 47 50 47h15q18 -2 20 -2h6q98 0 98 79q-1 1 -4 1q-55 -13 -69 -13q-91 0 -126 113q-20 66 -20 87q0 50 50 50q36 0 57 -77q19 -73 46 -73q72 0 72 51v12l-3 27v18z" />
    <glyph glyph-name="uni0424" unicode="&#x424;" horiz-adv-x="453" 
d="M10 241q0 88 83 147q50 34 122 55h13q44 0 95 -23q120 -56 120 -150q0 -108 -140 -147q-1 -5 -1 -13l3 -45v-5q0 -50 -50 -50q-47 0 -55 95l-2 3q-63 2 -90 10q-98 29 -98 123zM293 223q1 -1 2 -1q48 0 48 49q0 57 -59 57q0 -27 9 -105zM112 244q0 -38 79 -38
q0 22 -8 112q-1 7 -4 7q-67 0 -67 -81z" />
    <glyph glyph-name="uni0425" unicode="&#x425;" horiz-adv-x="437" 
d="M17 391q0 50 49 50q18 0 59 -45q82 -93 85 -93h2l105 98q7 7 28 7q32 0 47 -35q1 -5 1 -15q0 -22 -8 -30l-103 -100q50 -52 143 -135q22 -19 22 -42q0 -50 -50 -50q-16 0 -27 7q-28 22 -48 40q-74 70 -110 105q-33 -28 -92 -115q-14 -20 -40 -20q-51 0 -51 52q0 8 6 21
q31 49 105 135v2q-62 68 -93 103q-30 35 -30 60z" />
    <glyph glyph-name="uni0426" unicode="&#x426;" horiz-adv-x="472" 
d="M126 97q73 0 88 90l30 182q6 38 48 38q46 0 52 -43q-1 -72 0 -145q0 -27 5 -50q4 -18 70 -55q4 -2 7.5 -4.5t7.5 -4.5t5 -3q35 -27 35 -84q0 -106 -116 -106q-72 0 -72 67q0 50 49 50q18 0 36 -15v10q-59 31 -87 55q0 -1 -1 -1t-2 -1q-30 -41 -47 -53q-40 -27 -95 -27
q-113 0 -123 112q-7 188 -7 232q0 48 48 48q44 0 52 -47q0 -1 0.5 -10t1 -28t0.5 -40q1 -45 5 -140q3 -27 10 -27z" />
    <glyph glyph-name="uni0427" unicode="&#x427;" horiz-adv-x="360" 
d="M202 398q11 41 50 41q48 0 50 -48l15 -280v-63q0 -40 -48 -40q-51 0 -52 48l-5 142h-2q-57 -30 -107 -30q-111 0 -118 100v47q0 51 2 83q5 38 49 38q49 0 49 -38v-117q0 -13 21 -13q39 0 84 48q8 14 12 82z" />
    <glyph glyph-name="uni0428" unicode="&#x428;" horiz-adv-x="504" 
d="M336 107q54 51 54 100v158q0 40 53 40q43 0 48 -50q1 -21 1 -65q0 -99 -11 -138q-40 -145 -154 -145q-39 0 -86 50q-1 1 -2 1q-2 0 -3 -1q-48 -20 -68 -20q-142 0 -142 163v145q0 38 49 38t51 -68v-83q2 -95 42 -95q2 0 3 3q4 88 55 88q31 0 45 -26q42 -80 65 -95z" />
    <glyph glyph-name="uni0429" unicode="&#x429;" horiz-adv-x="632" 
d="M469 363q11 36 47 36q51 0 51 -41v-155q0 -28 -15 -70q-5 -15 -5 -16v-4q70 -66 70 -127q0 -88 -75 -88q-50 0 -50 49q0 22 25 44v4q0 41 -36 41h-4q-56 -35 -98 -35q-38 0 -107 57h-1h-2q-48 -27 -88 -27q-162 0 -162 165v142q0 38 49 38q50 0 51 -63q1 -21 2 -61t1 -61
q10 -55 72 -63q4 2 8 45q0 2 0.5 6.5t1.5 6.5q14 35 51 35q25 0 69 -68q34 -52 63 -52q75 0 80 122q2 94 2 140z" />
    <glyph glyph-name="uni042A" unicode="&#x42a;" horiz-adv-x="489" 
d="M13 358q0 50 105 87q60 20 104 20q84 0 84 -68q0 -44 -15 -122q-1 -1 -1 -2q0 -7 6 -5q70 -3 105 -13q78 -21 78 -99q0 -82 -103 -131q-51 -25 -104 -25q-104 0 -104 135q0 33 5 68q18 96 28 145v14q-28 0 -90 -32q-44 -23 -48 -23q-50 0 -50 51zM268 127q0 -19 3 -24
q3 -1 9 -1q99 0 99 48q0 15 -82 15h-26q-3 -14 -3 -38z" />
    <glyph glyph-name="uni042B" unicode="&#x42b;" horiz-adv-x="565" 
d="M406 377q0 52 48 52q45 0 49 -37l43 -323v-12q0 -51 -49 -51q-45 0 -49 36l-15 107l-2 10q-41 -140 -208 -140q-202 0 -202 210v103q0 70 54 70q48 0 48 -50v-10q-2 -22 -2 -25v-13v-12q92 0 162 -10q93 -14 140 -68v13l-17 137v13zM228 119q100 0 100 49v1
q-70 21 -195 21q0 -71 95 -71z" />
    <glyph glyph-name="uni042C" unicode="&#x42c;" horiz-adv-x="335" 
d="M20 87v65l33 240q4 40 48 40q49 0 49 -53q0 -11 -10 -90v-2v-3q83 -19 120 -40q78 -44 78 -110q0 -80 -90 -110q-75 -25 -116 -25q-112 0 -112 88zM125 179q-5 -38 -5 -63v-12l3 -2q1 -1 12 -1q19 0 38 6q62 20 62 29q0 20 -60 36q-36 10 -45 10q-4 0 -5 -3z" />
    <glyph glyph-name="uni042D" unicode="&#x42d;" horiz-adv-x="351" 
d="M81 353q0 56 76 56q144 0 177 -135q13 -52 13 -92q0 -74 -93 -133q-61 -37 -109 -37q-33 0 -64 12q-67 28 -67 74q0 51 50 51q23 0 57 -37q3 -3 14 -3q51 0 81 38l-127 20q-38 6 -38 48q0 49 53 49h15l115 -17h2q0 60 -76 60h-6q-8 -3 -10 -3h-13q-50 0 -50 49z" />
    <glyph glyph-name="uni042E" unicode="&#x42e;" horiz-adv-x="507" 
d="M27 349q11 42 50 42q51 0 51 -45v-80q18 0 34.5 -0.5t25 -1t9.5 -0.5q3 0 5 2q36 113 126 113q52 0 126 -78q38 -40 38 -104q0 -169 -138 -169q-104 0 -147 133q-26 2 -79 2v-94q0 -41 -50 -41q-38 0 -49 38q-2 174 -2 228v55zM299 230q0 -102 52 -102q44 0 44 56
q0 95 -68 95q-28 0 -28 -49z" />
    <glyph glyph-name="uni042F" unicode="&#x42f;" horiz-adv-x="320" 
d="M27 280q0 78 95 113q51 17 75 17q79 0 90 -102v-49q0 -76 -5 -214q-12 -35 -49 -35q-50 0 -50 40v52l-129 -62q-4 -3 -16 -3q-49 0 -49 51q0 31 23 42l75 38v2q-60 56 -60 110zM127 283q0 -22 52 -53q1 -1 3 -1q5 0 5 9v70q-60 -16 -60 -25z" />
    <glyph glyph-name="uni0430" unicode="&#x430;" horiz-adv-x="446" 
d="M15 192q0 226 183 226q154 0 154 -136v-87q0 -51 39 -75q50 -32 50 -56q0 -49 -50 -49q-48 0 -103 70l-2 2q-49 -52 -108 -52q-163 0 -163 157zM113 194q0 -62 55 -62q45 0 60 73q8 40 8 88q0 11 -3 22q-25 3 -39 3q-81 0 -81 -124z" />
    <glyph glyph-name="uni0431" unicode="&#x431;" horiz-adv-x="412" 
d="M375 667l162 8q53 10 59 10q49 0 49 -49q0 -55 -115 -64q-96 -6 -125 -5q-8 -153 -43 -337q-18 -68 -60 -128q-60 -85 -127 -85q-156 0 -156 165q0 58 28 123q49 118 169 118q2 0 69 -6h3h2l2 15l10 180q3 52 73 55zM109 191q0 -71 63 -71q25 0 65 67q30 52 30 86v1
q0 1 -0.5 2.5t-1 4t-0.5 4.5q-2 5 -4.5 15t-3.5 15q-3 8 -49 8q-99 0 -99 -132z" />
    <glyph glyph-name="uni0432" unicode="&#x432;" horiz-adv-x="345" 
d="M4 392q0 33 88 78q29 15 65 15q61 0 88 -8q72 -21 72 -85v-67q0 -26 -30 -65q50 -44 50 -90q0 -131 -115 -150h-42q-56 0 -83 7q-89 26 -89 95v250q-4 8 -4 20zM112 365v-73q8 4 43 13q62 17 62 32v43q0 3 -41 3q-20 0 -29 -1q-35 -8 -35 -17zM235 164q0 34 -50 36
q-62 3 -73 10v-83q0 -7 15 -7h80q28 0 28 44z" />
    <glyph glyph-name="uni0433" unicode="&#x433;" horiz-adv-x="324" 
d="M38 348q4 43 50 43q11 0 20 -3h172q38 0 38 -48t-40 -49l-143 -5l-5 -5l-12 -245q-1 -40 -49 -40q-51 0 -51 53q0 165 20 299z" />
    <glyph glyph-name="uni0434" unicode="&#x434;" horiz-adv-x="490" 
d="M17 95l30 280q5 38 48 38q27 0 39 -18l155 -232l3 -3q56 -1 95 -17q95 -41 95 -125v-21q-11 -35 -51 -35q-39 0 -47 41q-6 29 -12 37q-18 18 -72 18q-153 0 -223 -43q-6 -53 -50 -53q-51 0 -51 50q0 37 41 83zM132 216l-8 -71l3 -2q8 -10 47 10z" />
    <glyph glyph-name="uni0435" unicode="&#x435;" horiz-adv-x="347" 
d="M5 256q0 47 15 89q37 103 126 103q129 0 129 -137q0 -124 -115 -166q-17 -6 -17 -8q30 -35 62 -35q13 0 23 3q42 13 49 13q48 0 48 -48q0 -65 -116 -65q-121 0 -174 117q-30 68 -30 134zM102 274q0 -33 6 -39h6q61 0 61 81q0 37 -15 37q-58 0 -58 -79z" />
    <glyph glyph-name="uni0436" unicode="&#x436;" horiz-adv-x="512" 
d="M10 365q0 49 50 49q19 0 30 -8l80 -60l5 -3q41 66 73 66q51 0 51 -41v-47q23 19 71 55q20 15 40 15q48 0 48 -48q0 -27 -13 -37l-92 -73q-3 -1 -3 -3t3 -4l135 -95q22 -16 22 -43q0 -50 -49 -50q-15 0 -23 5l-138 96v-103q0 -45 -50 -45q-51 0 -51 42v88q-12 -5 -61 -50
q-47 -43 -55 -43q-58 0 -58 55q0 15 15 40q40 70 75 130l3 5l-83 63q-25 19 -25 44z" />
    <glyph glyph-name="uni0437" unicode="&#x437;" horiz-adv-x="280" 
d="M2 374q0 51 76 51q117 0 117 -84q0 -37 -33 -99q44 -27 68 -47q45 -41 45 -85q0 -79 -115 -95q-58 -8 -91 -8q-65 0 -65 50q0 49 46 50q45 1 70 3t45 7q-13 13 -50 35q-37 21 -50 28q-28 16 -28 46q0 20 10 31l53 67q0 4 -9 4q-5 0 -6 -1q-22 -2 -23 -2h-12q-48 0 -48 49
z" />
    <glyph glyph-name="uni0438" unicode="&#x438;" 
d="M10 287q0 92 49 92q44 0 52 -41q-3 -122 15 -192q10 -43 21 -43q12 0 34 28q22 27 47 67v5v5l-5 82v21q10 40 49 40q48 0 51 -48q1 -41 3 -65q0 -5 2 -25q7 -61 20 -82q30 -51 30 -55q0 -50 -50 -50q-26 0 -60 45q-2 2 -4 2h-1q-67 -70 -114 -70q-98 0 -123 133
q-16 77 -16 151z" />
    <glyph glyph-name="uni0439" unicode="&#x439;" horiz-adv-x="389" 
d="M46 503q0 49 38 49h205q37 0 37 -49t-37 -49h-205q-38 0 -38 49zM4 374q11 38 48 38q38 0 49 -38q3 -67 10 -120q12 -95 35 -137q73 58 73 183l-1 6q0 6 -1.5 19.5t-2.5 28.5q-1 1 -1 9q0 49 51 49q41 0 50 -40l70 -310v-9q0 -51 -49 -51q-41 0 -49 35l-17 75h-3
q-57 -98 -124 -98q-52 0 -86 60q-19 36 -30 83q-23 110 -23 192q0 17 1 25z" />
    <glyph glyph-name="uni043A" unicode="&#x43a;" 
d="M17 72v14l28 257q5 41 51 41t46 -36v-44q15 0 68 62q15 18 41 18q47 0 47 -49q0 -34 -56 -82q-27 -24 -57 -45q79 -46 160 -50q38 -2 38 -50q0 -50 -68 -50q-33 0 -70 15q-51 20 -120 50l-3 -5l-7 -62q-5 -38 -49 -38q-49 0 -49 54z" />
    <glyph glyph-name="uni043B" unicode="&#x43b;" horiz-adv-x="352" 
d="M1 90q0 16 13 32q60 78 72 95q51 71 58 148q3 40 50 40q39 0 50 -30l82 -248q8 -19 8 -33q0 -47 -49 -47q-39 0 -54 45l-35 107l-100 -134q-19 -25 -44 -25q-51 0 -51 50z" />
    <glyph glyph-name="uni043C" unicode="&#x43c;" horiz-adv-x="390" 
d="M196 248l7 8l75 112q15 23 39 23q52 0 52 -40v-263q4 -7 4 -17q0 -48 -46 -48q-53 0 -53 53v117q-46 -45 -86 -45q-47 0 -80 58h-2q0 -26 2 -120v-4q0 -49 -47 -49q-45 0 -48 53q-2 52 -2 75q-1 7 -1 74q0 48 1 73q9 45 55 45q36 0 87 -60q32 -37 43 -45z" />
    <glyph glyph-name="uni043D" unicode="&#x43d;" horiz-adv-x="411" 
d="M257 349q0 69 52 69q36 0 48 -35q-2 -49 2 -70l40 -253q1 -1 1 -8q0 -50 -52 -50q-42 0 -51 56q-6 31 -13 85l-2 5h-35h-55q-44 -2 -50 -3l-9 -2v-83q0 -38 -50 -38q-38 0 -49 38q0 38 -0.5 70t-1.5 46v15v18q1 18 1.5 58t0.5 86q7 37 49 37q50 0 50 -37v-105q37 0 131 2
v6v7q-1 13 -2.5 31t-3 29.5t-1.5 19.5v6z" />
    <glyph glyph-name="uni043E" unicode="&#x43e;" horiz-adv-x="426" 
d="M123 332q11 51 67 51q52 0 113 -43q90 -63 90 -154q0 -100 -102 -136q-51 -18 -99 -18q-174 0 -174 182q0 44 10 88q10 51 53 51q23 0 42 -21zM118 214q0 -84 59 -84q19 0 84 15q40 10 40 32q0 29 -30 60q-45 48 -68 48q-3 0 -12 -3q-14 -2 -17 -2q-24 0 -41 20
q-15 -20 -15 -86z" />
    <glyph glyph-name="uni043F" unicode="&#x43f;" horiz-adv-x="365" 
d="M5 338q0 40 63 63q23 8 52 17q52 16 90 16q111 0 118 -73q0 -38 5 -83q12 -121 25 -215v-5q0 -47 -50 -47q-46 0 -50 42l-30 283h-2q-8 0 -51 -8q-62 -11 -62 -20v-17l32 -220v-11q0 -49 -47 -49q-45 0 -50 35l-43 280v12z" />
    <glyph glyph-name="uni0440" unicode="&#x440;" horiz-adv-x="333" 
d="M9 372q0 39 38 50h24q55 0 109 -15q140 -41 140 -137q0 -89 -100 -135q-27 -13 -85 -23q-1 -4 -1 -11q0 -10 1 -11q0 -5 0.5 -12t1 -11t0.5 -7v-10q0 -51 -50 -51q-46 0 -50 46l-27 317q-1 1 -1 10zM125 215l2 -3q7 -7 58 13q35 14 35 45q0 25 -50 40q-20 5 -53 10v-14
q0 -83 8 -91z" />
    <glyph glyph-name="uni0441" unicode="&#x441;" horiz-adv-x="339" 
d="M11 215q0 53 12 88q35 95 109 95q32 0 66 -12q71 -26 71 -68q0 -50 -50 -50q-11 0 -23 5q-48 23 -54 23h-9q-20 -11 -20 -45v-90q0 -63 99 -63q29 0 36 5q34 26 45 26q51 0 51 -52q0 -79 -132 -79q-201 0 -201 217z" />
    <glyph glyph-name="uni0442" unicode="&#x442;" horiz-adv-x="434" 
d="M67 384h60l253 29h8q50 0 50 -51q0 -43 -48 -49q-37 -5 -113 -15l-10 -3v-30q0 -147 20 -235q1 -3 1 -9q0 -51 -49 -51q-45 0 -57 70q-8 50 -10 73l-7 172h-6h-7q-56 -2 -62 -2q-2 -1 -13 -1q-52 0 -52 53q0 49 42 49z" />
    <glyph glyph-name="uni0443" unicode="&#x443;" horiz-adv-x="381" 
d="M223 372q0 55 50 55q49 0 55 -75q5 -75 5 -108q0 -67 -25 -120q-59 -128 -188 -128q-89 0 -89 56q0 47 50 47h15q18 -2 20 -2h6q98 0 98 79q-1 1 -4 1q-55 -13 -69 -13q-91 0 -126 113q-20 66 -20 87q0 50 50 50q36 0 57 -77q19 -73 46 -73q72 0 72 51v12l-3 27v18z" />
    <glyph glyph-name="uni0444" unicode="&#x444;" horiz-adv-x="453" 
d="M10 241q0 88 83 147q50 34 122 55h13q44 0 95 -23q120 -56 120 -150q0 -108 -140 -147q-1 -5 -1 -13l3 -45v-5q0 -50 -50 -50q-47 0 -55 95l-2 3q-63 2 -90 10q-98 29 -98 123zM293 223q1 -1 2 -1q48 0 48 49q0 57 -59 57q0 -27 9 -105zM112 244q0 -38 79 -38
q0 22 -8 112q-1 7 -4 7q-67 0 -67 -81z" />
    <glyph glyph-name="uni0445" unicode="&#x445;" horiz-adv-x="437" 
d="M17 391q0 50 49 50q18 0 59 -45q82 -93 85 -93h2l105 98q7 7 28 7q32 0 47 -35q1 -5 1 -15q0 -22 -8 -30l-103 -100q50 -52 143 -135q22 -19 22 -42q0 -50 -50 -50q-16 0 -27 7q-28 22 -48 40q-74 70 -110 105q-33 -28 -92 -115q-14 -20 -40 -20q-51 0 -51 52q0 8 6 21
q31 49 105 135v2q-62 68 -93 103q-30 35 -30 60z" />
    <glyph glyph-name="uni0446" unicode="&#x446;" horiz-adv-x="472" 
d="M126 97q73 0 88 90l30 182q6 38 48 38q46 0 52 -43q-1 -72 0 -145q0 -27 5 -50q4 -18 70 -55q4 -2 7.5 -4.5t7.5 -4.5t5 -3q35 -27 35 -84q0 -106 -116 -106q-72 0 -72 67q0 50 49 50q18 0 36 -15v10q-59 31 -87 55q0 -1 -1 -1t-2 -1q-30 -41 -47 -53q-40 -27 -95 -27
q-113 0 -123 112q-7 188 -7 232q0 48 48 48q44 0 52 -47q0 -1 0.5 -10t1 -28t0.5 -40q1 -45 5 -140q3 -27 10 -27z" />
    <glyph glyph-name="uni0447" unicode="&#x447;" horiz-adv-x="360" 
d="M202 398q11 41 50 41q48 0 50 -48l15 -280v-63q0 -40 -48 -40q-51 0 -52 48l-5 142h-2q-57 -30 -107 -30q-111 0 -118 100v47q0 51 2 83q5 38 49 38q49 0 49 -38v-117q0 -13 21 -13q39 0 84 48q8 14 12 82z" />
    <glyph glyph-name="uni0448" unicode="&#x448;" horiz-adv-x="504" 
d="M336 107q54 51 54 100v158q0 40 53 40q43 0 48 -50q1 -21 1 -65q0 -99 -11 -138q-40 -145 -154 -145q-39 0 -86 50q-1 1 -2 1q-2 0 -3 -1q-48 -20 -68 -20q-142 0 -142 163v145q0 38 49 38t51 -68v-83q2 -95 42 -95q2 0 3 3q4 88 55 88q31 0 45 -26q42 -80 65 -95z" />
    <glyph glyph-name="uni0449" unicode="&#x449;" horiz-adv-x="632" 
d="M469 363q11 36 47 36q51 0 51 -41v-155q0 -28 -15 -70q-5 -15 -5 -16v-4q70 -66 70 -127q0 -88 -75 -88q-50 0 -50 49q0 22 25 44v4q0 41 -36 41h-4q-56 -35 -98 -35q-38 0 -107 57h-1h-2q-48 -27 -88 -27q-162 0 -162 165v142q0 38 49 38q50 0 51 -63q1 -21 2 -61t1 -61
q10 -55 72 -63q4 2 8 45q0 2 0.5 6.5t1.5 6.5q14 35 51 35q25 0 69 -68q34 -52 63 -52q75 0 80 122q2 94 2 140z" />
    <glyph glyph-name="uni044A" unicode="&#x44a;" horiz-adv-x="489" 
d="M13 358q0 50 105 87q60 20 104 20q84 0 84 -68q0 -44 -15 -122q-1 -1 -1 -2q0 -7 6 -5q70 -3 105 -13q78 -21 78 -99q0 -82 -103 -131q-51 -25 -104 -25q-104 0 -104 135q0 33 5 68q18 96 28 145v14q-28 0 -90 -32q-44 -23 -48 -23q-50 0 -50 51zM268 127q0 -19 3 -24
q3 -1 9 -1q99 0 99 48q0 15 -82 15h-26q-3 -14 -3 -38z" />
    <glyph glyph-name="uni044B" unicode="&#x44b;" horiz-adv-x="565" 
d="M406 377q0 52 48 52q45 0 49 -37l43 -323v-12q0 -51 -49 -51q-45 0 -49 36l-15 107l-2 10q-41 -140 -208 -140q-202 0 -202 210v103q0 70 54 70q48 0 48 -50v-10q-2 -22 -2 -25v-13v-12q92 0 162 -10q93 -14 140 -68v13l-17 137v13zM228 119q100 0 100 49v1
q-70 21 -195 21q0 -71 95 -71z" />
    <glyph glyph-name="uni044C" unicode="&#x44c;" horiz-adv-x="335" 
d="M20 87v65l33 240q4 40 48 40q49 0 49 -53q0 -11 -10 -90v-2v-3q83 -19 120 -40q78 -44 78 -110q0 -80 -90 -110q-75 -25 -116 -25q-112 0 -112 88zM125 179q-5 -38 -5 -63v-12l3 -2q1 -1 12 -1q19 0 38 6q62 20 62 29q0 20 -60 36q-36 10 -45 10q-4 0 -5 -3z" />
    <glyph glyph-name="uni044D" unicode="&#x44d;" horiz-adv-x="351" 
d="M81 353q0 56 76 56q144 0 177 -135q13 -52 13 -92q0 -74 -93 -133q-61 -37 -109 -37q-33 0 -64 12q-67 28 -67 74q0 51 50 51q23 0 57 -37q3 -3 14 -3q51 0 81 38l-127 20q-38 6 -38 48q0 49 53 49h15l115 -17h2q0 60 -76 60h-6q-8 -3 -10 -3h-13q-50 0 -50 49z" />
    <glyph glyph-name="uni044E" unicode="&#x44e;" horiz-adv-x="507" 
d="M27 349q11 42 50 42q51 0 51 -45v-80q18 0 34.5 -0.5t25 -1t9.5 -0.5q3 0 5 2q36 113 126 113q52 0 126 -78q38 -40 38 -104q0 -169 -138 -169q-104 0 -147 133q-26 2 -79 2v-94q0 -41 -50 -41q-38 0 -49 38q-2 174 -2 228v55zM299 230q0 -102 52 -102q44 0 44 56
q0 95 -68 95q-28 0 -28 -49z" />
    <glyph glyph-name="uni044F" unicode="&#x44f;" horiz-adv-x="320" 
d="M27 280q0 78 95 113q51 17 75 17q79 0 90 -102v-49q0 -76 -5 -214q-12 -35 -49 -35q-50 0 -50 40v52l-129 -62q-4 -3 -16 -3q-49 0 -49 51q0 31 23 42l75 38v2q-60 56 -60 110zM127 283q0 -22 52 -53q1 -1 3 -1q5 0 5 9v70q-60 -16 -60 -25z" />
    <glyph glyph-name="uni0450" unicode="&#x450;" horiz-adv-x="347" 
d="M-97 653q0 50 52 50q17 0 25 -5l153 -95q15 -11 15 -39q0 -52 -50 -52q-14 0 -28 8l-145 90q-22 13 -22 43zM5 256q0 55 18 97q41 95 122 95q130 0 130 -134q0 -127 -115 -169q-17 -6 -17 -7q30 -36 60 -36q15 0 25 3q42 13 49 13q48 0 48 -48q0 -65 -116 -65
q-121 0 -176 123q-28 60 -28 128zM102 273q0 -21 3 -35q1 -3 9 -3q61 0 61 82q0 36 -15 36q-58 0 -58 -80z" />
    <glyph glyph-name="uni0451" unicode="&#x451;" horiz-adv-x="357" 
d="M206 597q0 50 49 50q57 0 57 -62q0 -56 -50 -56q-56 0 -56 68zM41 584q0 60 58 60q48 0 48 -57q0 -58 -52 -58q-54 0 -54 55zM9 282q0 165 145 165q193 0 193 -163q0 -79 -98 -112q-47 -17 -92 -25q29 -33 60 -33q15 0 25 3q44 12 47 12q50 0 50 -50q0 -63 -116 -63
q-125 0 -181 131q-33 77 -33 135zM102 297q0 -53 17 -53q28 0 65 8q60 14 60 38q0 57 -77 57q-65 0 -65 -50z" />
    <glyph glyph-name="uni0452" unicode="&#x452;" horiz-adv-x="618" 
d="M13 519q0 53 68 53h172q40 0 40 -50q0 -52 -37 -52h-39q0 -45 4 -76q173 5 295 -77q70 -46 70 -113v-102q0 -79 -110 -90q-26 -3 -95 -3h-60q-40 10 -40 51q0 39 37 49q46 1 138 5q30 2 30 6v2q-3 26 -5 85q-17 33 -103 70q-27 13 -106 13q-27 0 -31 -1l-15 -2v-198
q2 -36 2 -55q0 -53 -50 -53q-54 0 -55 78l-5 298l-10 111h-55q-40 0 -40 51z" />
    <glyph glyph-name="uni0453" unicode="&#x453;" horiz-adv-x="324" 
d="M307 684q13 25 43 25q49 0 49 -51q0 -28 -42 -109q-54 -100 -120 -100q-51 0 -51 50q0 24 23 42q50 41 60 58q14 24 38 85zM32 356q4 43 49 43h13q8 -3 10 -3h13h17l75 3h30h30q43 -6 43 -50q0 -49 -48 -50l-140 -5l-12 -250q-2 -38 -52 -38q-49 0 -49 50q0 160 21 300z
" />
    <glyph glyph-name="uni0454" unicode="&#x454;" horiz-adv-x="351" 
d="M13 174q0 48 17 107q38 120 172 120q76 0 76 -56q0 -49 -50 -49h-13q-6 2 -7 2h-6q-75 0 -75 -60h1l112 18h15q56 0 56 -47q0 -43 -41 -51l-125 -20v-1q0 -36 79 -36q10 0 14 2q41 38 57 38q51 0 51 -52q0 -86 -132 -86q-45 0 -104 35q-97 60 -97 136z" />
    <glyph glyph-name="uni0455" unicode="&#x455;" horiz-adv-x="379" 
d="M63 349q0 105 148 105q139 0 139 -82q0 -81 -65 -81q-43 0 -50 37l-5 20h-62q-3 0 -3 -3q0 -44 53 -67q70 -28 90 -47q48 -43 48 -108q0 -135 -129 -135q-37 0 -82 13q-112 31 -112 107q0 50 50 50q20 0 27 -7q69 -60 116 -60q30 0 30 30q0 17 -18 30q-85 40 -100 55
q-75 69 -75 143z" />
    <glyph glyph-name="uni0456" unicode="&#x456;" horiz-adv-x="182" 
d="M21 533q0 56 56 56t56 -66q0 -64 -56 -64t-56 74zM46 44l-15 280v55q0 33 47 33q48 0 50 -35l18 -313v-17q0 -56 -51 -56q-46 0 -49 53z" />
    <glyph glyph-name="uni0457" unicode="&#x457;" horiz-adv-x="222" 
d="M-33 510q0 54 53 54q50 0 50 -53q0 -55 -51 -55q-52 0 -52 54zM180 501q0 50 49 50q11 0 29 -5q1 -1 2 0q25 -22 25 -49q0 -49 -55 -49h-17q-33 9 -33 53zM35 70q0 110 20 278q6 48 51 48q52 0 52 -52q0 -27 -10 -88l-10 -203q-3 -45 -52 -45q-42 0 -51 40v22z" />
    <glyph glyph-name="uni0458" unicode="&#x458;" horiz-adv-x="332" 
d="M195 381q0 54 52 54q47 0 51 -48q1 -17 5 -82v-69v-69q-5 -173 -151 -173q-139 0 -139 122q0 51 51 51q38 0 54 -57q1 -3 3 -5q8 -8 40 -8h15q13 6 22 60v84q0 22 -2 124q-1 2 -1 16z" />
    <glyph glyph-name="uni0459" unicode="&#x459;" horiz-adv-x="536" 
d="M74 346q14 45 82 45h18q66 -7 82 -8q86 -6 86 -52v-103q74 -6 99 -12q70 -18 70 -94q0 -121 -172 -121q-97 0 -97 87v193q0 4 -62 4q2 -66 1 -102q-2 -36 -5 -52q-27 -135 -122 -135q-73 0 -73 51q0 53 73 49q20 14 25 67q2 42 2 58q0 21 -2 55q-6 51 -6 52q0 12 1 18z
M344 125v-24q70 1 70 16v1q-27 7 -70 7z" />
    <glyph glyph-name="uni045A" unicode="&#x45a;" horiz-adv-x="483" 
d="M215 257v125q0 35 50 35t50 -40v-83l3 -2q156 -15 156 -137q0 -138 -132 -138q-96 0 -116 132l-3 5h-13q-90 0 -94 -2l-3 -3v-75q0 -47 -51 -47q-43 0 -49 42q-7 172 -7 256v34q11 35 49 35q46 0 48 -35l5 -105h15q31 0 92 3zM343 111q40 0 40 39q0 40 -60 40
q0 -79 20 -79z" />
    <glyph glyph-name="uni045B" unicode="&#x45b;" horiz-adv-x="507" 
d="M68 508q215 5 247 5h23q41 -9 41 -52q0 -47 -46 -50q-83 -2 -102 -5v-112q1 -1 5 -1q49 11 63 11q157 0 179 -141q13 -77 13 -104q0 -53 -51 -53q-44 0 -52 47l-15 105q0 43 -77 43q-66 0 -68 -33l-5 -122q-1 -45 -52 -45q-53 0 -53 50v2q5 85 5 113q-1 79 -1 239h-84
q-40 0 -40 51q0 56 70 52z" />
    <glyph glyph-name="uni045C" unicode="&#x45c;" 
d="M217 522q0 21 10 31l153 150q18 18 39 18q54 0 54 -50q0 -20 -8 -28l-163 -160q-10 -10 -33 -10q-52 0 -52 49zM17 72v14l28 257q5 41 51 41t46 -36v-44q15 0 68 62q15 18 41 18q47 0 47 -49q0 -34 -56 -82q-27 -24 -57 -45q79 -46 160 -50q38 -2 38 -50q0 -50 -68 -50
q-33 0 -70 15q-51 20 -120 50l-3 -5l-7 -62q-5 -38 -49 -38q-49 0 -49 54z" />
    <glyph glyph-name="uni045D" unicode="&#x45d;" 
d="M-78 588q0 51 52 51q18 0 25 -6l153 -95q15 -9 15 -38q0 -52 -50 -52q-14 0 -28 8l-145 90q-22 13 -22 42zM12 338q9 41 48 41q40 0 49 -36q0 -51 3 -100q1 -51 12 -92q12 -48 22 -48q9 0 41 35q18 23 40 58v12v13q-3 59 -3 61v31q11 38 48 38q40 0 50 -40q2 -57 5 -85
q8 -78 25 -100q27 -34 27 -51q0 -49 -51 -49q-38 0 -61 47h-3q-67 -70 -115 -70q-95 0 -125 138q-13 58 -13 147q0 34 1 50z" />
    <glyph glyph-name="uni045E" unicode="&#x45e;" horiz-adv-x="398" 
d="M159 583q69 0 75 10q30 53 57 53q50 0 50 -51q0 -81 -87 -107q-27 -7 -90 -7q-138 0 -138 96q0 52 51 52q36 0 57 -43q12 -3 25 -3zM251 372q0 54 49 54q48 0 56 -75q5 -65 5 -106q0 -66 -20 -109q-65 -138 -191 -138h-34q-57 8 -57 53q0 50 49 50h8q30 -3 34 -3
q99 0 99 79v1q-41 -12 -74 -12q-96 0 -136 145q-10 33 -10 54q0 49 51 49q38 0 49 -41q18 -78 30 -105q12 -5 23 -5q72 0 72 52v13q-2 18 -3 25v19z" />
    <glyph glyph-name="uni045F" unicode="&#x45f;" horiz-adv-x="393" 
d="M259 449q0 53 50 53q45 0 53 -50q25 -156 25 -304q0 -78 -50 -78h-104v-111q0 -40 -54 -40q-51 0 -51 45v105q-109 3 -121 63q-6 122 -6 246q0 51 1 76q9 40 51 40q49 0 51 -50l8 -267h167v75l-20 185v12z" />
    <glyph glyph-name="uni048A" unicode="&#x48a;" horiz-adv-x="465" 
d="M182 553q31 5 35 8q22 15 38 15q50 0 50 -50q0 -54 -75 -68q-39 -7 -91 -7q-30 0 -92 5q-42 4 -42 50q0 50 49 50h6q48 -3 79 -3h43zM5 345q0 56 50 56q43 0 52 -98q7 -67 13 -102q7 -48 27 -95l8 7q65 67 65 177q0 16 -5 58v3q0 50 51 50q40 0 49 -38l57 -250q21 8 52 8
h21q65 -15 65 -108q0 -85 -60 -85q-48 0 -48 48q0 17 5 27q6 9 6 13q0 10 -4 10h-2q-56 -38 -71 -38q-40 0 -49 38l-17 75q-3 -2 -5 -5q-37 -47 -50 -60q-36 -33 -70 -33q-62 0 -95 75q-15 36 -28 95q-6 26 -17 158v14z" />
    <glyph glyph-name="uni048B" unicode="&#x48b;" horiz-adv-x="465" 
d="M182 553q31 5 35 8q22 15 38 15q50 0 50 -50q0 -54 -75 -68q-39 -7 -91 -7q-30 0 -92 5q-42 4 -42 50q0 50 49 50h6q48 -3 79 -3h43zM5 345q0 56 50 56q43 0 52 -98q7 -67 13 -102q7 -48 27 -95l8 7q65 67 65 177q0 16 -5 58v3q0 50 51 50q40 0 49 -38l57 -250q21 8 52 8
h21q65 -15 65 -108q0 -85 -60 -85q-48 0 -48 48q0 17 5 27q6 9 6 13q0 10 -4 10h-2q-56 -38 -71 -38q-40 0 -49 38l-17 75q-3 -2 -5 -5q-37 -47 -50 -60q-36 -33 -70 -33q-62 0 -95 75q-15 36 -28 95q-6 26 -17 158v14z" />
    <glyph glyph-name="uni048C" unicode="&#x48c;" horiz-adv-x="340" 
d="M48 370l5 4q6 55 51 55q34 0 51 -47l3 -3q4 1 10 2t10 1q32 5 34 5q51 0 51 -48q0 -49 -108 -62v-25h85q83 0 83 -96q0 -160 -153 -160q-116 0 -116 106v168h-56q-36 0 -36 52q0 48 38 48h48zM155 149v-11q0 -18 3 -41q3 -1 11 -1q61 0 61 52q0 4 -10 4q-16 0 -65 -3z
" />
    <glyph glyph-name="uni048D" unicode="&#x48d;" horiz-adv-x="340" 
d="M48 370l5 4q6 55 51 55q34 0 51 -47l3 -3q4 1 10 2t10 1q32 5 34 5q51 0 51 -48q0 -49 -108 -62v-25h85q83 0 83 -96q0 -160 -153 -160q-116 0 -116 106v168h-56q-36 0 -36 52q0 48 38 48h48zM155 149v-11q0 -18 3 -41q3 -1 11 -1q61 0 61 52q0 4 -10 4q-16 0 -65 -3z
" />
    <glyph glyph-name="uni048E" unicode="&#x48e;" horiz-adv-x="330" 
d="M4 362q11 35 38 35h167q48 0 75 -65q13 -30 13 -73q0 -23 -8 -52v-2v-1q38 -32 38 -57q0 -51 -48 -51q-19 0 -30 8q-43 33 -45 33h-2q-40 -10 -97 -10v-90q0 -40 -50 -40q-38 0 -48 37q-3 122 -3 249v79zM104 294v-2q0 -8 3 -63h17q0 56 71 56q0 7 -6 12h-22
q-35 0 -63 -3z" />
    <glyph glyph-name="uni048F" unicode="&#x48f;" horiz-adv-x="330" 
d="M4 362q11 35 38 35h167q48 0 75 -65q13 -30 13 -73q0 -23 -8 -52v-2v-1q38 -32 38 -57q0 -51 -48 -51q-19 0 -30 8q-43 33 -45 33h-2q-40 -10 -97 -10v-90q0 -40 -50 -40q-38 0 -48 37q-3 122 -3 249v79zM104 294v-2q0 -8 3 -63h17q0 56 71 56q0 7 -6 12h-22
q-35 0 -63 -3z" />
    <glyph glyph-name="uni0490" unicode="&#x490;" horiz-adv-x="367" 
d="M225 399l3 5q1 85 53 85t52 -54q0 -45 -5 -78q-10 -63 -45 -63h-137l-13 -252q-3 -46 -52 -46q-51 0 -51 54v14l15 288q2 47 55 47h125z" />
    <glyph glyph-name="uni0491" unicode="&#x491;" horiz-adv-x="367" 
d="M225 399l3 5q1 85 53 85t52 -54q0 -45 -5 -78q-10 -63 -45 -63h-137l-13 -252q-3 -46 -52 -46q-51 0 -51 54v14l15 288q2 47 55 47h125z" />
    <glyph glyph-name="uni0492" unicode="&#x492;" horiz-adv-x="401" 
d="M59 346q0 51 56 62l215 35h2q50 0 50 -50q0 -43 -42 -50l-163 -28q-10 -1 -10 -6q0 -30 10 -69h11h12q22 2 32 3h16q54 0 54 -49q0 -48 -110 -56l-2 -3q-1 -1 -1 -9q0 -11 1 -13q2 -32 2 -35v-10q0 -51 -50 -51q-49 0 -55 106h-6h-6q-14 -3 -20 -3h-8q-50 0 -50 50
q0 44 78 55v10l-15 95q-1 1 -1 16z" />
    <glyph glyph-name="uni0493" unicode="&#x493;" horiz-adv-x="401" 
d="M59 346q0 51 56 62l215 35h2q50 0 50 -50q0 -43 -42 -50l-163 -28q-10 -1 -10 -6q0 -30 10 -69h11h12q22 2 32 3h16q54 0 54 -49q0 -48 -110 -56l-2 -3q-1 -1 -1 -9q0 -11 1 -13q2 -32 2 -35v-10q0 -51 -50 -51q-49 0 -55 106h-6h-6q-14 -3 -20 -3h-8q-50 0 -50 50
q0 44 78 55v10l-15 95q-1 1 -1 16z" />
    <glyph glyph-name="uni0494" unicode="&#x494;" horiz-adv-x="297" 
d="M49 32q-50 0 -50 45v248q0 43 43 47l167 20q2 1 16 1q57 0 57 -48q0 -46 -40 -50l-140 -18v-27q32 13 74 13q111 0 111 -119q0 -144 -122 -144q-49 0 -49 49q0 27 28 48q43 34 43 46q0 13 -10 17h-13q-27 0 -62 -38q-2 -90 -53 -90z" />
    <glyph glyph-name="uni0495" unicode="&#x495;" horiz-adv-x="297" 
d="M49 32q-50 0 -50 45v248q0 43 43 47l167 20q2 1 16 1q57 0 57 -48q0 -46 -40 -50l-140 -18v-27q32 13 74 13q111 0 111 -119q0 -144 -122 -144q-49 0 -49 49q0 27 28 48q43 34 43 46q0 13 -10 17h-13q-27 0 -62 -38q-2 -90 -53 -90z" />
    <glyph glyph-name="uni0496" unicode="&#x496;" horiz-adv-x="429" 
d="M150 307h3q0 75 48 75q53 0 54 -78q103 63 123 63q47 0 47 -48q0 -31 -27 -47q-59 -38 -98 -60v-3q0 -3 40 -37t60 -68h8q63 28 80 28q50 0 50 -49q0 -34 -88 -71q-4 -2 -5 -3q-5 -98 -87 -98q-71 0 -71 69q0 32 28 69q-25 43 -37 43h-3q-14 -41 -51 -41q-43 0 -49 38
q-4 31 -6 31q-1 0 -1 -1q-31 -21 -110 -87q-14 -8 -29 -8q-49 0 -49 49q0 28 45 64q15 11 45 35t45 35v2l-102 65q-21 14 -21 41q0 49 51 49q17 0 107 -57z" />
    <glyph glyph-name="uni0497" unicode="&#x497;" horiz-adv-x="429" 
d="M150 307h3q0 75 48 75q53 0 54 -78q103 63 123 63q47 0 47 -48q0 -31 -28 -47q-52 -34 -97 -60v-3q0 -3 40 -37t60 -68h7q65 28 80 28q51 0 51 -49q0 -34 -88 -71q-4 -2 -5 -3q-5 -98 -87 -98q-71 0 -71 69q0 32 28 69q-25 43 -38 43h-2q-14 -41 -51 -41q-43 0 -49 38
q-4 31 -6 31q-1 0 -2 -1q-22 -15 -110 -87q-14 -8 -28 -8q-49 0 -49 49q0 28 45 64q15 11 45 35t45 35v2l-103 65q-20 14 -20 41q0 49 51 49q17 0 107 -57z" />
    <glyph glyph-name="uni0498" unicode="&#x498;" horiz-adv-x="356" 
d="M52 321q0 101 123 101q115 0 115 -135q0 -4 -3 -25v-1q0 -1 5 -6q31 -25 45 -58q15 -33 15 -77q0 -81 -97 -115q-2 -50 -5 -60q-22 -73 -69 -73q-49 0 -49 49q0 26 23 44l-3 35q0 2 -5 5q-70 35 -75 40q-50 47 -50 73q0 52 49 52q25 0 39 -18q41 -50 60 -50h62
q20 0 20 20q0 35 -67 63q-31 13 -31 45q0 5 33 52v11q0 27 -10 27h-17q-2 0 -5 -5q-27 -43 -55 -43q-48 0 -48 49z" />
    <glyph glyph-name="uni0499" unicode="&#x499;" horiz-adv-x="356" 
d="M52 321q0 101 123 101q115 0 115 -135q0 -4 -3 -25v-1q0 -1 5 -6q31 -25 45 -58q15 -33 15 -77q0 -81 -97 -115q-2 -50 -5 -60q-22 -73 -69 -73q-49 0 -49 49q0 26 23 44l-3 35q0 2 -5 5q-70 35 -75 40q-50 47 -50 73q0 52 49 52q25 0 39 -18q41 -50 60 -50h62
q20 0 20 20q0 35 -67 63q-31 13 -31 45q0 5 33 52v11q0 27 -10 27h-17q-2 0 -5 -5q-27 -43 -55 -43q-48 0 -48 49z" />
    <glyph glyph-name="uni049A" unicode="&#x49a;" horiz-adv-x="384" 
d="M93 18q-48 0 -48 40v318q0 42 50 42t52 -110l150 100q14 10 30 10q51 0 51 -51q0 -26 -23 -41l-138 -93l-2 -2q101 -48 162 -120q3 -3 4 -3h1l63 30q4 3 16 3q49 0 49 -50q0 -35 -90 -78l-5 -5q5 -122 -96 -122q-82 0 -82 87q0 36 35 68l18 16v1q-80 87 -144 87v-79
q0 -48 -53 -48z" />
    <glyph glyph-name="uni049B" unicode="&#x49b;" horiz-adv-x="384" 
d="M93 18q-48 0 -48 40v318q0 42 50 42t52 -110l150 100q14 10 30 10q51 0 51 -51q0 -26 -23 -41l-138 -93l-2 -2q101 -48 162 -120q3 -3 4 -3h1l63 30q4 3 16 3q49 0 49 -50q0 -35 -90 -78l-5 -5q5 -122 -96 -122q-82 0 -82 87q0 36 35 68l18 16v1q-80 87 -144 87v-79
q0 -48 -53 -48z" />
    <glyph glyph-name="uni049C" unicode="&#x49c;" horiz-adv-x="445" 
d="M50 4q-50 0 -50 43v377q0 35 48 35q51 0 52 -67q-2 -44 0 -65q0 -19 3 -35h5q7 0 32 5q4 1 5 17q4 51 8 58q15 30 47 30q47 0 50 -63q37 15 68 85q15 35 48 35q49 0 49 -50q0 -64 -72 -130q-19 -18 -88 -50l3 -2q62 -38 110 -90q67 -76 67 -112q0 -51 -49 -51
q-30 0 -56 45q-16 26 -35 48q-33 36 -47 45q-14 -48 -53 -48q-47 0 -50 60l-2 40l-42 13v-130q0 -43 -51 -43z" />
    <glyph glyph-name="uni049D" unicode="&#x49d;" horiz-adv-x="445" 
d="M50 4q-50 0 -50 43v377q0 35 48 35q51 0 52 -67q-2 -44 0 -65q0 -19 3 -35h5q7 0 32 5q4 1 5 17q4 51 8 58q15 30 47 30q47 0 50 -63q37 15 68 85q15 35 48 35q49 0 49 -50q0 -64 -72 -130q-19 -18 -88 -50l3 -2q62 -38 110 -90q67 -76 67 -112q0 -51 -49 -51
q-30 0 -56 45q-16 26 -35 48q-33 36 -47 45q-14 -48 -53 -48q-47 0 -50 60l-2 40l-42 13v-130q0 -43 -51 -43z" />
    <glyph glyph-name="uni049E" unicode="&#x49e;" horiz-adv-x="412" 
d="M-10 506h66v56q0 38 50 38t50 -38v-47l4 -4h70q35 0 35 -47q0 -53 -40 -53h-62v-104l100 68q8 5 25 5q50 0 50 -49q0 -25 -18 -39l-98 -67l3 -3q70 -36 93 -52q80 -59 80 -86q0 -49 -52 -49q-18 0 -26 7q-57 45 -85 60q-64 35 -67 35h-3q0 -46 3 -82q2 -20 2 -23
q0 -50 -51 -50q-50 0 -51 58l-10 366h-68q-38 0 -38 49q0 51 38 51z" />
    <glyph glyph-name="uni049F" unicode="&#x49f;" horiz-adv-x="412" 
d="M-10 506h66v57q0 37 50 37t50 -37v-48l4 -4h70q35 0 35 -47q0 -53 -40 -53h-63v-103l100 67q8 5 25 5q51 0 51 -49q0 -26 -18 -38l-98 -68l3 -2q61 -31 92 -53q81 -59 81 -86q0 -49 -52 -49q-16 0 -26 8q-55 43 -85 60q-64 35 -68 35h-2q0 -35 2 -83q3 -15 3 -22
q0 -51 -51 -51t-52 58l-10 366h-67q-38 0 -38 49q0 51 38 51z" />
    <glyph glyph-name="uni04A0" unicode="&#x4a0;" horiz-adv-x="487" 
d="M-58 377q0 50 57 50q30 0 176 -8q46 -7 53 -62l7 -65h3l115 115q4 4 17 10h15q50 0 50 -48q0 -21 -12 -35l-118 -120v-1q0 -6 105 -96q63 -54 63 -75q0 -50 -49 -50q-22 0 -54 27q-23 20 -67 58t-48 42h-2q7 -66 7 -87q0 -55 -50 -55q-46 0 -50 42l-30 293l-2 7l-131 8
q-55 3 -55 50z" />
    <glyph glyph-name="uni04A1" unicode="&#x4a1;" horiz-adv-x="487" 
d="M-58 377q0 50 57 50q30 0 176 -8q46 -7 53 -62l7 -65h3l115 115q4 4 17 10h15q50 0 50 -48q0 -21 -12 -35l-118 -120v-1q0 -6 105 -96q63 -54 63 -75q0 -50 -49 -50q-22 0 -54 27q-23 20 -67 58t-48 42h-2q7 -66 7 -87q0 -55 -50 -55q-46 0 -50 42l-30 293l-2 7l-130 8
q-56 3 -56 50z" />
    <glyph glyph-name="uni04A2" unicode="&#x4a2;" horiz-adv-x="520" 
d="M235 267l2 5l15 102q6 38 49 38q49 0 49 -51v-12l-28 -202v-5q12 0 18 2q46 33 63 33q58 0 58 -40v-53q43 22 86 43q21 10 38 10q50 0 50 -50q0 -29 -53 -55q-58 -29 -77 -40q-35 -20 -43 -28l-2 -2q-12 -54 -28 -78q-61 -103 -141 -103q-97 0 -97 89q0 76 66 107l100 47
v20h-3q-19 -3 -45 -3q-93 0 -93 78q0 31 3 45h-90q-1 0 -10 -72q-7 -73 -52 -73q-50 0 -50 51v4q16 105 22 293q9 37 49 37q49 0 49 -37v-98q23 -3 70 -3q24 0 25 1z" />
    <glyph glyph-name="uni04A3" unicode="&#x4a3;" horiz-adv-x="520" 
d="M235 267l2 5l15 102q6 38 49 38q49 0 49 -51v-12l-28 -202v-5q12 0 18 2q46 33 63 33q58 0 58 -40v-53q43 22 86 43q21 10 38 10q50 0 50 -50q0 -29 -53 -55q-58 -29 -77 -40q-35 -20 -43 -28l-2 -2q-12 -54 -28 -78q-61 -103 -141 -103q-97 0 -97 89q0 76 66 107l100 47
v20h-3q-19 -3 -45 -3q-93 0 -93 78q0 31 3 45h-90q-1 0 -10 -72q-7 -73 -52 -73q-50 0 -50 51v4q16 105 22 293q9 37 49 37q49 0 49 -37v-98q23 -3 70 -3q24 0 25 1z" />
    <glyph glyph-name="uni04A4" unicode="&#x4a4;" horiz-adv-x="553" 
d="M122 256h143v152q0 27 41 38h39q63 0 164 -8q35 -11 35 -48q0 -38 -38 -49q-14 -1 -41 -1q-60 0 -96 6l-3 -3q2 -97 0 -195q0 -35 -2 -107q-7 -58 -53 -58q-47 0 -47 35v134q-74 2 -110 1q-12 0 -34 -2v-110q0 -45 -51 -45q-45 0 -50 42q-1 18 -1 54q0 106 6 309
q9 38 47 38q51 0 51 -36v-147z" />
    <glyph glyph-name="uni04A5" unicode="&#x4a5;" horiz-adv-x="553" 
d="M122 256h143v152q0 27 41 38h39q63 0 164 -8q35 -11 35 -48q0 -38 -38 -49q-14 -1 -41 -1q-60 0 -96 6l-3 -3q2 -97 0 -195q0 -35 -2 -107q-7 -58 -53 -58q-47 0 -47 35v134q-74 2 -110 1q-12 0 -34 -2v-110q0 -45 -51 -45q-45 0 -50 42q-1 18 -1 54q0 106 6 309
q9 38 47 38q51 0 51 -36v-147z" />
    <glyph glyph-name="uni04A6" unicode="&#x4a6;" horiz-adv-x="506" 
d="M47 407q192 2 210 2h32q48 -11 48 -58v-4q-5 -65 -5 -84q175 0 175 -191q0 -72 -40 -118q-69 -78 -118 -78q-87 0 -87 57q0 49 50 49q6 0 20 -3q14 -2 16 -2h1q50 46 58 75v21q0 26 -3 44q-8 45 -27 45h-35q-18 0 -22 -18v-65q0 -38 -50 -38q-37 0 -48 38q-1 17 -1 49
q0 43 1 49q7 98 10 127v2q-28 1 -83 1q-19 -1 -59 -3v-222q0 -38 -50 -38q-39 0 -48 38q-3 202 -3 257q0 56 58 68z" />
    <glyph glyph-name="uni04A7" unicode="&#x4a7;" horiz-adv-x="506" 
d="M47 407q192 2 210 2h32q48 -11 48 -58v-4q-5 -65 -5 -84q175 0 175 -191q0 -72 -40 -118q-69 -78 -118 -78q-87 0 -87 57q0 49 50 49q6 0 20 -3q14 -2 16 -2h1q50 46 58 75v21q0 26 -3 44q-8 45 -27 45h-35q-18 0 -22 -18v-65q0 -38 -50 -38q-37 0 -48 38q-1 17 -1 49
q0 43 1 49q7 98 10 127v2q-28 1 -83 1q-19 -1 -59 -3v-222q0 -38 -50 -38q-39 0 -48 38q-3 202 -3 257q0 56 58 68z" />
    <glyph glyph-name="uni04A8" unicode="&#x4a8;" horiz-adv-x="528" 
d="M23 232q0 212 182 212q89 0 89 -55q0 -50 -52 -50q-3 0 -31 5h-3q-68 0 -82 -80v-40q0 -48 5 -68q19 -67 59 -67q16 0 16 4v3q-10 44 -10 68q0 168 140 168q19 0 28 -1q75 -12 90 -80v-26q0 -76 -55 -146h12q12 0 20 2q47 21 50 21q50 0 50 -49q0 -38 -65 -67
q-21 -10 -82 -10q-46 0 -85 18q-10 7 -15 7l-20 -5q-35 -7 -75 -7q-99 0 -145 112q-21 49 -21 131zM296 165q0 -23 8 -36q50 11 50 86v9q-11 8 -23 8q-35 0 -35 -67z" />
    <glyph glyph-name="uni04A9" unicode="&#x4a9;" horiz-adv-x="528" 
d="M23 232q0 212 182 212q89 0 89 -55q0 -50 -52 -50q-3 0 -31 5h-3q-68 0 -82 -80v-40q0 -48 5 -68q19 -67 59 -67q16 0 16 4v3q-10 44 -10 68q0 168 140 168q19 0 28 -1q74 -8 90 -80v-26q0 -76 -55 -146h12q12 0 20 2q47 21 50 21q50 0 50 -49q0 -38 -65 -67
q-21 -10 -82 -10q-46 0 -85 18q-10 7 -15 7l-20 -5q-35 -7 -75 -7q-99 0 -145 112q-21 49 -21 131zM296 165q0 -23 8 -36q50 11 50 86v9q-11 8 -23 8q-35 0 -35 -67z" />
    <glyph glyph-name="uni04AA" unicode="&#x4aa;" horiz-adv-x="398" 
d="M37 184q0 64 18 116q41 123 168 123q18 0 27 -1q125 -24 125 -117q0 -53 -49 -53q-29 0 -41 23q-17 29 -18 30q-22 18 -47 18q-55 0 -73 -63q-10 -36 -10 -79v-21q10 -43 58 -43h82q27 24 49 24q49 0 49 -47q0 -62 -93 -79q16 -36 16 -70q0 -15 -1 -23q-20 -77 -79 -77
q-46 0 -46 50q0 25 25 47v8q0 42 -42 72q-105 46 -118 125v37z" />
    <glyph glyph-name="uni04AB" unicode="&#x4ab;" horiz-adv-x="398" 
d="M37 184q0 64 18 116q41 123 168 123h27q125 -26 125 -118q0 -53 -49 -53q-29 0 -41 23q-17 29 -18 30q-22 18 -47 18q-55 0 -73 -63q-10 -36 -10 -79v-21q11 -42 58 -42h82q28 23 49 23q49 0 49 -47q0 -62 -93 -79q16 -36 16 -70q0 -15 -1 -22q-19 -78 -79 -78
q-46 0 -46 50q0 24 25 48v7q0 41 -42 73q-104 45 -118 125v36z" />
    <glyph glyph-name="uni04AC" unicode="&#x4ac;" horiz-adv-x="403" 
d="M-10 383q0 38 38 49h40q60 0 280 -5q37 -10 37 -49q0 -50 -37 -50h-103v-219q30 1 46.5 -17t18.5 -55q5 -88 5 -103q0 -50 -50 -50q-55 0 -55 105q-66 3 -66 45v295l-119 5q-35 2 -35 49z" />
    <glyph glyph-name="uni04AD" unicode="&#x4ad;" horiz-adv-x="403" 
d="M-10 383q0 38 38 49h40q60 0 280 -5q37 -10 37 -49q0 -50 -37 -50h-103v-219q30 1 46.5 -17t18.5 -55q5 -88 5 -103q0 -50 -50 -50q-55 0 -55 105q-66 3 -66 45v295l-119 5q-35 2 -35 49z" />
    <glyph glyph-name="uni04AE" unicode="&#x4ae;" horiz-adv-x="289" 
d="M135 258l3 3q12 51 32 115q28 93 74 93q49 0 49 -49q0 -13 -3 -19q-34 -81 -45 -128q-53 -198 -75 -397q-9 -38 -50 -38q-47 0 -47 38v197q0 54 -38 165q-20 59 -40 105q-1 5 -1 13q0 48 50 48q34 0 51 -41q14 -35 40 -105z" />
    <glyph glyph-name="uni04AF" unicode="&#x4af;" horiz-adv-x="289" 
d="M135 258l3 3q12 51 32 115q28 93 74 93q49 0 49 -49q0 -13 -3 -19q-34 -81 -45 -128q-53 -198 -75 -397q-9 -38 -50 -38q-47 0 -47 38v197q0 54 -38 165q-20 59 -40 105q-1 5 -1 13q0 48 50 48q34 0 51 -41q14 -35 40 -105z" />
    <glyph glyph-name="uni04B0" unicode="&#x4b0;" horiz-adv-x="289" 
d="M135 258l3 3q12 51 32 115q28 93 74 93q49 0 49 -49q0 -13 -3 -19q-36 -85 -45 -128l-52 -237l47 -5q35 -5 35 -48q0 -51 -40 -51h-57q-1 0 -3 -11q-11 -83 -55 -83q-49 0 -49 38v59h-48q-38 0 -38 50t40 50h48v38q0 54 -38 165q-20 59 -40 105q-1 5 -1 13q0 48 50 48
q34 0 51 -41q14 -35 40 -105z" />
    <glyph glyph-name="uni04B1" unicode="&#x4b1;" horiz-adv-x="289" 
d="M135 258l3 3q12 51 32 115q28 93 74 93q49 0 49 -49q0 -13 -3 -19q-36 -85 -45 -128l-52 -237l47 -5q35 -5 35 -48q0 -51 -40 -51h-57q-1 0 -3 -11q-11 -83 -55 -83q-49 0 -49 38v59h-48q-38 0 -38 50t40 50h48v38q0 54 -38 165q-20 59 -40 105q-1 5 -1 13q0 48 50 48
q34 0 51 -41q14 -35 40 -105z" />
    <glyph glyph-name="uni04B2" unicode="&#x4b2;" horiz-adv-x="514" 
d="M211 332l93 100q13 16 39 16q48 0 48 -51q0 -17 -47 -70q-72 -76 -70 -80l2 -5l90 -137l3 -3q160 -1 160 -130q0 -125 -143 -125q-88 0 -88 63q0 48 49 48q13 0 19 -3l18 -8q47 0 47 33q0 18 -32 20q-42 2 -63 2q-34 8 -45 33l-80 122l-5 5q-32 -47 -67 -112
q-27 -48 -57 -48q-49 0 -49 50q0 15 8 33q44 84 103 165v1q0 5 -13 19q-73 87 -77 92q-11 17 -11 32q0 49 49 49q26 0 54 -33q37 -42 65 -78z" />
    <glyph glyph-name="uni04B3" unicode="&#x4b3;" horiz-adv-x="514" 
d="M211 332l93 100q13 16 39 16q48 0 48 -51q0 -17 -47 -70q-72 -76 -70 -80l2 -5l90 -137l3 -3q160 -1 160 -130q0 -125 -143 -125q-88 0 -88 63q0 48 49 48q13 0 19 -3l18 -8q47 0 47 33q0 18 -32 20q-42 2 -63 2q-34 8 -45 33l-80 122l-5 5q-32 -47 -67 -112
q-27 -48 -57 -48q-49 0 -49 50q0 15 8 33q44 84 103 165v1q0 5 -13 19q-73 87 -77 92q-11 17 -11 32q0 49 49 49q26 0 54 -33q37 -42 65 -78z" />
    <glyph glyph-name="uni04B4" unicode="&#x4b4;" horiz-adv-x="452" 
d="M-48 344q0 51 48 51h138q47 0 47 -51q0 -48 -60 -52v-5l24 -172h97q0 48 -23 155q-6 22 -6 43q0 55 49 55q37 0 54 -71l20 -80q2 -9 10 -100l3 -11h62q40 0 40 -51v-120q0 -40 -50 -40q-49 0 -49 35v72l-3 4h-58q-7 6 -50 6q-49 1 -145 3q-39 11 -45 50l-32 227
q-71 3 -71 52z" />
    <glyph glyph-name="uni04B5" unicode="&#x4b5;" horiz-adv-x="452" 
d="M-48 344q0 51 48 51h137q48 0 48 -51q0 -48 -60 -52v-5l24 -172h97q0 50 -24 155q-5 25 -5 43q0 55 49 55q37 0 54 -71l20 -80q2 -9 10 -100l2 -11h63q40 0 40 -51v-120q0 -40 -50 -40q-49 0 -49 35v72l-4 4h-57q-7 6 -50 6q-49 1 -145 3q-39 11 -45 50l-33 227
q-70 3 -70 52z" />
    <glyph glyph-name="uni04B6" unicode="&#x4b6;" horiz-adv-x="444" 
d="M23 393q11 41 49 41q49 0 49 -36v-152q0 -30 39 -30q76 0 76 72v93q0 45 52 45t52 -53v-293q94 0 94 -66q0 -6 -6 -51q-10 -100 -55 -100q-50 0 -50 51v9q2 54 2 57h-47q-40 0 -40 58v100q-40 -22 -73 -22q-147 0 -147 151q0 19 5 126z" />
    <glyph glyph-name="uni04B7" unicode="&#x4b7;" horiz-adv-x="444" 
d="M23 393q11 41 49 41q49 0 49 -36v-152q0 -30 39 -30q76 0 76 72v93q0 45 52 45t52 -53v-293q94 0 94 -66q0 -6 -6 -51q-10 -100 -55 -100q-50 0 -50 51v9q2 54 2 57h-47q-40 0 -40 58v100q-40 -22 -73 -22q-147 0 -147 151q0 19 5 126z" />
    <glyph glyph-name="uni04BA" unicode="&#x4ba;" horiz-adv-x="434" 
d="M51 396q9 40 50 40q49 0 50 -55q1 -72 3 -108q1 -31 2 -31h133q82 0 112 -81q13 -33 13 -101q0 -64 -50 -64q-45 0 -53 92q0 4 -0.5 11.5t-1.5 11.5q-5 30 -35 30h-123q-3 0 -5 -110q-11 -38 -49 -38q-39 0 -48 40q-1 19 -1 55q0 50 1 55q2 42 2 48q1 102 0 205z" />
    <glyph glyph-name="uni04BB" unicode="&#x4bb;" horiz-adv-x="434" 
d="M51 396q9 40 50 40q49 0 50 -55q1 -72 3 -108q1 -31 2 -31h133q82 0 112 -81q13 -33 13 -101q0 -64 -50 -64q-45 0 -53 92q0 4 -0.5 11.5t-1.5 11.5q-5 30 -35 30h-123q-3 0 -5 -110q-11 -38 -49 -38q-39 0 -48 40q-1 19 -1 55q0 50 1 55q2 42 2 48q1 102 0 205z" />
    <glyph glyph-name="uni04D0" unicode="&#x4d0;" horiz-adv-x="446" 
d="M15 192q0 226 183 226q154 0 154 -136v-87q0 -51 39 -75q50 -32 50 -56q0 -49 -50 -49q-48 0 -103 70l-2 2q-49 -52 -108 -52q-163 0 -163 157zM113 194q0 -62 55 -62q45 0 60 73q8 40 8 88q0 11 -3 22q-25 3 -39 3q-81 0 -81 -124z" />
    <glyph glyph-name="uni04D1" unicode="&#x4d1;" horiz-adv-x="446" 
d="M15 192q0 226 183 226q154 0 154 -136v-87q0 -51 39 -75q50 -32 50 -56q0 -49 -50 -49q-48 0 -103 70l-2 2q-49 -52 -108 -52q-163 0 -163 157zM113 194q0 -62 55 -62q45 0 60 73q8 40 8 88q0 11 -3 22q-25 3 -39 3q-81 0 -81 -124z" />
    <glyph glyph-name="uni04D2" unicode="&#x4d2;" horiz-adv-x="446" 
d="M15 192q0 226 183 226q154 0 154 -136v-87q0 -51 39 -75q50 -32 50 -56q0 -49 -50 -49q-48 0 -103 70l-2 2q-49 -52 -108 -52q-163 0 -163 157zM113 194q0 -62 55 -62q45 0 60 73q8 40 8 88q0 11 -3 22q-25 3 -39 3q-81 0 -81 -124z" />
    <glyph glyph-name="uni04D3" unicode="&#x4d3;" horiz-adv-x="446" 
d="M15 192q0 226 183 226q154 0 154 -136v-87q0 -51 39 -75q50 -32 50 -56q0 -49 -50 -49q-48 0 -103 70l-2 2q-49 -52 -108 -52q-163 0 -163 157zM113 194q0 -62 55 -62q45 0 60 73q8 40 8 88q0 11 -3 22q-25 3 -39 3q-81 0 -81 -124z" />
    <glyph glyph-name="uni04D4" unicode="&#x4d4;" horiz-adv-x="642" 
d="M31 348q0 123 160 123h30q38 -7 90 -55h3q46 37 92 37q181 0 213 -125v-25q0 -111 -113 -125q-52 -5 -132 -5v-5q0 -28 70 -47q29 -8 72 -8h35q13 8 30 8q48 0 48 -49q0 -61 -114 -61q-109 0 -179 55q-92 -80 -184 -80q-146 0 -146 143q0 83 113 124q56 21 127 25
q8 3 8 33q0 25 -45 60h-17q-39 0 -51 -18q-37 -55 -60 -55q-50 0 -50 50zM361 308q0 -17 5 -35h44h44q65 5 65 28q0 50 -108 50q-50 0 -50 -43zM106 122q0 -34 18 -34h72q68 0 68 60q0 24 -10 28h-10q-33 0 -75 -13q-63 -18 -63 -41z" />
    <glyph glyph-name="uni04D5" unicode="&#x4d5;" horiz-adv-x="642" 
d="M31 348q0 123 160 123h30q38 -7 90 -55h3q46 37 92 37q181 0 213 -125v-25q0 -111 -113 -125q-52 -5 -132 -5v-5q0 -28 70 -47q29 -8 72 -8h35q13 8 30 8q48 0 48 -49q0 -61 -114 -61q-109 0 -179 55q-92 -80 -184 -80q-146 0 -146 143q0 83 113 124q56 21 127 25
q8 3 8 33q0 25 -45 60h-17q-39 0 -51 -18q-37 -55 -60 -55q-50 0 -50 50zM361 308q0 -17 5 -35h44h44q65 5 65 28q0 50 -108 50q-50 0 -50 -43zM106 122q0 -34 18 -34h72q68 0 68 60q0 24 -10 28h-10q-33 0 -75 -13q-63 -18 -63 -41z" />
    <glyph glyph-name="uni04D6" unicode="&#x4d6;" horiz-adv-x="347" 
d="M5 256q0 47 15 89q37 103 126 103q129 0 129 -137q0 -124 -115 -166q-17 -6 -17 -8q30 -35 62 -35q13 0 23 3q42 13 49 13q48 0 48 -48q0 -65 -116 -65q-121 0 -174 117q-30 68 -30 134zM102 274q0 -33 6 -39h6q61 0 61 81q0 37 -15 37q-58 0 -58 -79z" />
    <glyph glyph-name="uni04D7" unicode="&#x4d7;" horiz-adv-x="347" 
d="M5 256q0 47 15 89q37 103 126 103q129 0 129 -137q0 -124 -115 -166q-17 -6 -17 -8q30 -35 62 -35q13 0 23 3q42 13 49 13q48 0 48 -48q0 -65 -116 -65q-121 0 -174 117q-30 68 -30 134zM102 274q0 -33 6 -39h6q61 0 61 81q0 37 -15 37q-58 0 -58 -79z" />
    <glyph glyph-name="uni04D8" unicode="&#x4d8;" horiz-adv-x="392" 
d="M16 393q0 41 55 54q32 7 73 7q227 0 227 -248q0 -80 -15 -127q-41 -122 -170 -122q-165 0 -165 137v63q0 81 100 105q61 14 135 14q0 76 -70 76h-78q-22 -8 -41 -8q-51 0 -51 49zM121 144v-16q0 -71 69 -71q77 0 77 117h-76q-63 0 -70 -30z" />
    <glyph glyph-name="uni04D9" unicode="&#x4d9;" horiz-adv-x="392" 
d="M16 393q0 41 55 54q32 7 73 7q227 0 227 -248q0 -80 -15 -127q-41 -122 -170 -122q-165 0 -165 137v63q0 81 100 105q61 14 135 14q0 76 -70 76h-78q-22 -8 -41 -8q-51 0 -51 49zM121 144v-16q0 -71 69 -71q77 0 77 117h-76q-63 0 -70 -30z" />
    <glyph glyph-name="uni04DA" unicode="&#x4da;" horiz-adv-x="392" 
d="M218 577q0 52 53 52q50 0 50 -50q0 -53 -53 -53q-50 0 -50 51zM38 574q0 53 57 53q48 0 48 -49q0 -54 -53 -54q-52 0 -52 50zM16 393q0 41 55 54q32 7 73 7q227 0 227 -248q0 -80 -15 -127q-41 -122 -170 -122q-165 0 -165 137v63q0 81 100 105q61 14 135 14q0 76 -70 76
h-78q-22 -8 -41 -8q-51 0 -51 49zM121 144v-16q0 -71 69 -71q77 0 77 117h-76q-63 0 -70 -30z" />
    <glyph glyph-name="uni04DB" unicode="&#x4db;" horiz-adv-x="392" 
d="M218 577q0 52 53 52q50 0 50 -50q0 -53 -53 -53q-50 0 -50 51zM38 574q0 53 57 53q48 0 48 -49q0 -54 -53 -54q-52 0 -52 50zM16 393q0 41 55 54q32 7 73 7q227 0 227 -248q0 -80 -15 -127q-41 -122 -170 -122q-165 0 -165 137v63q0 81 100 105q61 14 135 14q0 76 -70 76
h-78q-22 -8 -41 -8q-51 0 -51 49zM121 144v-16q0 -71 69 -71q77 0 77 117h-76q-63 0 -70 -30z" />
    <glyph glyph-name="uni04DC" unicode="&#x4dc;" horiz-adv-x="512" 
d="M10 365q0 49 50 49q19 0 30 -8l80 -60l5 -3q41 66 73 66q51 0 51 -41v-47q23 19 71 55q20 15 40 15q48 0 48 -48q0 -27 -13 -37l-92 -73q-3 -1 -3 -3t3 -4l135 -95q22 -16 22 -43q0 -50 -49 -50q-15 0 -23 5l-138 96v-103q0 -45 -50 -45q-51 0 -51 42v88q-12 -5 -61 -50
q-47 -43 -55 -43q-58 0 -58 55q0 15 15 40q40 70 75 130l3 5l-83 63q-25 19 -25 44z" />
    <glyph glyph-name="uni04DD" unicode="&#x4dd;" horiz-adv-x="512" 
d="M10 365q0 49 50 49q19 0 30 -8l80 -60l5 -3q41 66 73 66q51 0 51 -41v-47q23 19 71 55q20 15 40 15q48 0 48 -48q0 -27 -13 -37l-92 -73q-3 -1 -3 -3t3 -4l135 -95q22 -16 22 -43q0 -50 -49 -50q-15 0 -23 5l-138 96v-103q0 -45 -50 -45q-51 0 -51 42v88q-12 -5 -61 -50
q-47 -43 -55 -43q-58 0 -58 55q0 15 15 40q40 70 75 130l3 5l-83 63q-25 19 -25 44z" />
    <glyph glyph-name="uni04DE" unicode="&#x4de;" horiz-adv-x="280" 
d="M2 374q0 51 76 51q117 0 117 -84q0 -37 -33 -99q44 -27 68 -47q45 -41 45 -85q0 -79 -115 -95q-58 -8 -91 -8q-65 0 -65 50q0 49 46 50q45 1 70 3t45 7q-13 13 -50 35q-37 21 -50 28q-28 16 -28 46q0 20 10 31l53 67q0 4 -9 4q-5 0 -6 -1q-22 -2 -23 -2h-12q-48 0 -48 49
z" />
    <glyph glyph-name="uni04DF" unicode="&#x4df;" horiz-adv-x="280" 
d="M2 374q0 51 76 51q117 0 117 -84q0 -37 -33 -99q44 -27 68 -47q45 -41 45 -85q0 -79 -115 -95q-58 -8 -91 -8q-65 0 -65 50q0 49 46 50q45 1 70 3t45 7q-13 13 -50 35q-37 21 -50 28q-28 16 -28 46q0 20 10 31l53 67q0 4 -9 4q-5 0 -6 -1q-22 -2 -23 -2h-12q-48 0 -48 49
z" />
    <glyph glyph-name="uni04E0" unicode="&#x4e0;" horiz-adv-x="413" 
d="M21 411q0 50 49 50q2 0 268 -8q43 -4 43 -51q0 -26 -35 -61q-49 -48 -98 -95v-1q0 -2 5 -4q73 -28 93 -53q43 -49 43 -130q0 -180 -141 -180h-115q-97 0 -97 63q0 50 50 50q21 0 40 -18q-3 5 -3 7v1q61 -3 93 -3q72 0 72 82q0 79 -137 96q-45 4 -45 51q0 29 57 96
q24 29 48 50l-148 8q-42 1 -42 50z" />
    <glyph glyph-name="uni04E1" unicode="&#x4e1;" horiz-adv-x="413" 
d="M21 411q0 50 49 50q2 0 268 -8q43 -4 43 -51q0 -26 -35 -61q-49 -48 -98 -95v-1q0 -2 5 -4q73 -28 93 -53q43 -49 43 -130q0 -180 -141 -180h-115q-97 0 -97 63q0 50 50 50q21 0 40 -18q-3 5 -3 7v1q61 -3 93 -3q72 0 72 82q0 79 -137 96q-45 4 -45 51q0 29 57 96
q24 29 48 50l-148 8q-42 1 -42 50z" />
    <glyph glyph-name="uni04E2" unicode="&#x4e2;" 
d="M10 287q0 92 49 92q44 0 52 -41q-3 -122 15 -192q10 -43 21 -43q12 0 34 28q22 27 47 67v5v5l-5 82v21q10 40 49 40q48 0 51 -48q1 -41 3 -65q0 -5 2 -25q7 -61 20 -82q30 -51 30 -55q0 -50 -50 -50q-26 0 -60 45q-2 2 -4 2h-1q-67 -70 -114 -70q-98 0 -123 133
q-16 77 -16 151z" />
    <glyph glyph-name="uni04E3" unicode="&#x4e3;" 
d="M10 287q0 92 49 92q44 0 52 -41q-3 -122 15 -192q10 -43 21 -43q12 0 34 28q22 27 47 67v5v5l-5 82v21q10 40 49 40q48 0 51 -48q1 -41 3 -65q0 -5 2 -25q7 -61 20 -82q30 -51 30 -55q0 -50 -50 -50q-26 0 -60 45q-2 2 -4 2h-1q-67 -70 -114 -70q-98 0 -123 133
q-16 77 -16 151z" />
    <glyph glyph-name="uni04E4" unicode="&#x4e4;" 
d="M10 287q0 92 49 92q44 0 52 -41q-3 -122 15 -192q10 -43 21 -43q12 0 34 28q22 27 47 67v5v5l-5 82v21q10 40 49 40q48 0 51 -48q1 -41 3 -65q0 -5 2 -25q7 -61 20 -82q30 -51 30 -55q0 -50 -50 -50q-26 0 -60 45q-2 2 -4 2h-1q-67 -70 -114 -70q-98 0 -123 133
q-16 77 -16 151z" />
    <glyph glyph-name="uni04E5" unicode="&#x4e5;" 
d="M10 287q0 92 49 92q44 0 52 -41q-3 -122 15 -192q10 -43 21 -43q12 0 34 28q22 27 47 67v5v5l-5 82v21q10 40 49 40q48 0 51 -48q1 -41 3 -65q0 -5 2 -25q7 -61 20 -82q30 -51 30 -55q0 -50 -50 -50q-26 0 -60 45q-2 2 -4 2h-1q-67 -70 -114 -70q-98 0 -123 133
q-16 77 -16 151z" />
    <glyph glyph-name="uni04E6" unicode="&#x4e6;" horiz-adv-x="426" 
d="M123 332q11 51 67 51q52 0 113 -43q90 -63 90 -154q0 -100 -102 -136q-51 -18 -99 -18q-174 0 -174 182q0 44 10 88q10 51 53 51q23 0 42 -21zM118 214q0 -84 59 -84q19 0 84 15q40 10 40 32q0 29 -30 60q-45 48 -68 48q-3 0 -12 -3q-14 -2 -17 -2q-24 0 -41 20
q-15 -20 -15 -86z" />
    <glyph glyph-name="uni04E7" unicode="&#x4e7;" horiz-adv-x="426" 
d="M123 332q11 51 67 51q52 0 113 -43q90 -63 90 -154q0 -100 -102 -136q-51 -18 -99 -18q-174 0 -174 182q0 44 10 88q10 51 53 51q23 0 42 -21zM118 214q0 -84 59 -84q19 0 84 15q40 10 40 32q0 29 -30 60q-45 48 -68 48q-3 0 -12 -3q-14 -2 -17 -2q-24 0 -41 20
q-15 -20 -15 -86z" />
    <glyph glyph-name="uni04E8" unicode="&#x4e8;" horiz-adv-x="435" 
d="M17 172q0 239 216 239q180 0 180 -185q0 -38 -18 -100q-29 -99 -120 -108h-45q-71 0 -105 10q-108 32 -108 144zM132 253q0 -1 1 -2l150 27l17 5q-10 25 -37 25h-45q-12 -8 -33 -12q-53 -14 -53 -43zM288 176l-163 -30q24 -28 108 -28h30q40 13 40 58h-15z" />
    <glyph glyph-name="uni04E9" unicode="&#x4e9;" horiz-adv-x="435" 
d="M17 172q0 239 216 239q180 0 180 -185q0 -38 -18 -100q-29 -99 -120 -108h-45q-71 0 -105 10q-108 32 -108 144zM132 253q0 -1 1 -2l150 27l17 5q-10 25 -37 25h-45q-12 -8 -33 -12q-53 -14 -53 -43zM288 176l-163 -30q24 -28 108 -28h30q40 13 40 58h-15z" />
    <glyph glyph-name="uni04EA" unicode="&#x4ea;" horiz-adv-x="435" 
d="M280 528q0 47 51 47q52 0 52 -50q0 -53 -53 -53q-50 0 -50 56zM47 519q0 51 54 51q49 0 49 -48q0 -52 -53 -52q-50 0 -50 49zM17 172q0 238 217 238q179 0 179 -181q0 -41 -13 -86q-31 -112 -130 -125q-13 -1 -37 -1q-66 0 -105 11q-111 28 -111 144zM132 253h11
q61 0 157 30v1q0 26 -66 26q-13 0 -34 -10q-68 -32 -68 -47zM283 175l-150 -27l-8 -3q21 -25 55 -25h88q35 0 35 55h-20z" />
    <glyph glyph-name="uni04EB" unicode="&#x4eb;" horiz-adv-x="435" 
d="M280 528q0 47 51 47q52 0 52 -50q0 -53 -53 -53q-50 0 -50 56zM47 519q0 51 54 51q49 0 49 -48q0 -52 -53 -52q-50 0 -50 49zM17 172q0 238 217 238q179 0 179 -181q0 -41 -13 -86q-31 -112 -130 -125q-13 -1 -37 -1q-66 0 -105 11q-111 28 -111 144zM132 253h11
q61 0 157 30v1q0 26 -66 26q-13 0 -34 -10q-68 -32 -68 -47zM283 175l-150 -27l-8 -3q21 -25 55 -25h88q35 0 35 55h-20z" />
    <glyph glyph-name="uni04EC" unicode="&#x4ec;" horiz-adv-x="351" 
d="M81 353q0 56 76 56q144 0 177 -135q13 -52 13 -92q0 -74 -93 -133q-61 -37 -109 -37q-33 0 -64 12q-67 28 -67 74q0 51 50 51q23 0 57 -37q3 -3 14 -3q51 0 81 38l-127 20q-38 6 -38 48q0 49 53 49h15l115 -17h2q0 60 -76 60h-6q-8 -3 -10 -3h-13q-50 0 -50 49z" />
    <glyph glyph-name="uni04ED" unicode="&#x4ed;" horiz-adv-x="351" 
d="M81 353q0 56 76 56q144 0 177 -135q13 -52 13 -92q0 -74 -93 -133q-61 -37 -109 -37q-33 0 -64 12q-67 28 -67 74q0 51 50 51q23 0 57 -37q3 -3 14 -3q51 0 81 38l-127 20q-38 6 -38 48q0 49 53 49h15l115 -17h2q0 60 -76 60h-6q-8 -3 -10 -3h-13q-50 0 -50 49z" />
    <glyph glyph-name="uni04EE" unicode="&#x4ee;" horiz-adv-x="381" 
d="M223 372q0 55 50 55q49 0 55 -75q5 -75 5 -108q0 -67 -25 -120q-59 -128 -188 -128q-89 0 -89 56q0 47 50 47h15q18 -2 20 -2h6q98 0 98 79q-1 1 -4 1q-55 -13 -69 -13q-91 0 -126 113q-20 66 -20 87q0 50 50 50q36 0 57 -77q19 -73 46 -73q72 0 72 51v12l-3 27v18z" />
    <glyph glyph-name="uni04EF" unicode="&#x4ef;" horiz-adv-x="381" 
d="M223 372q0 55 50 55q49 0 55 -75q5 -75 5 -108q0 -67 -25 -120q-59 -128 -188 -128q-89 0 -89 56q0 47 50 47h15q18 -2 20 -2h6q98 0 98 79q-1 1 -4 1q-55 -13 -69 -13q-91 0 -126 113q-20 66 -20 87q0 50 50 50q36 0 57 -77q19 -73 46 -73q72 0 72 51v12l-3 27v18z" />
    <glyph glyph-name="uni04F0" unicode="&#x4f0;" horiz-adv-x="381" 
d="M223 372q0 55 50 55q49 0 55 -75q5 -75 5 -108q0 -67 -25 -120q-59 -128 -188 -128q-89 0 -89 56q0 47 50 47h15q18 -2 20 -2h6q98 0 98 79q-1 1 -4 1q-55 -13 -69 -13q-91 0 -126 113q-20 66 -20 87q0 50 50 50q36 0 57 -77q19 -73 46 -73q72 0 72 51v12l-3 27v18z" />
    <glyph glyph-name="uni04F1" unicode="&#x4f1;" horiz-adv-x="381" 
d="M223 372q0 55 50 55q49 0 55 -75q5 -75 5 -108q0 -67 -25 -120q-59 -128 -188 -128q-89 0 -89 56q0 47 50 47h15q18 -2 20 -2h6q98 0 98 79q-1 1 -4 1q-55 -13 -69 -13q-91 0 -126 113q-20 66 -20 87q0 50 50 50q36 0 57 -77q19 -73 46 -73q72 0 72 51v12l-3 27v18z" />
    <glyph glyph-name="uni04F2" unicode="&#x4f2;" horiz-adv-x="381" 
d="M223 372q0 55 50 55q49 0 55 -75q5 -75 5 -108q0 -67 -25 -120q-59 -128 -188 -128q-89 0 -89 56q0 47 50 47h15q18 -2 20 -2h6q98 0 98 79q-1 1 -4 1q-55 -13 -69 -13q-91 0 -126 113q-20 66 -20 87q0 50 50 50q36 0 57 -77q19 -73 46 -73q72 0 72 51v12l-3 27v18z" />
    <glyph glyph-name="uni04F3" unicode="&#x4f3;" horiz-adv-x="381" 
d="M223 372q0 55 50 55q49 0 55 -75q5 -75 5 -108q0 -67 -25 -120q-59 -128 -188 -128q-89 0 -89 56q0 47 50 47h15q18 -2 20 -2h6q98 0 98 79q-1 1 -4 1q-55 -13 -69 -13q-91 0 -126 113q-20 66 -20 87q0 50 50 50q36 0 57 -77q19 -73 46 -73q72 0 72 51v12l-3 27v18z" />
    <glyph glyph-name="uni04F4" unicode="&#x4f4;" horiz-adv-x="360" 
d="M202 398q11 41 50 41q48 0 50 -48l15 -280v-63q0 -40 -48 -40q-51 0 -52 48l-5 142h-2q-57 -30 -107 -30q-111 0 -118 100v47q0 51 2 83q5 38 49 38q49 0 49 -38v-117q0 -13 21 -13q39 0 84 48q8 14 12 82z" />
    <glyph glyph-name="uni04F5" unicode="&#x4f5;" horiz-adv-x="360" 
d="M202 398q11 41 50 41q48 0 50 -48l15 -280v-63q0 -40 -48 -40q-51 0 -52 48l-5 142h-2q-57 -30 -107 -30q-111 0 -118 100v47q0 51 2 83q5 38 49 38q49 0 49 -38v-117q0 -13 21 -13q39 0 84 48q8 14 12 82z" />
    <glyph glyph-name="uni04F6" unicode="&#x4f6;" horiz-adv-x="530" 
 />
    <glyph glyph-name="uni04F7" unicode="&#x4f7;" horiz-adv-x="433" 
 />
    <glyph glyph-name="uni04F8" unicode="&#x4f8;" horiz-adv-x="565" 
d="M406 377q0 52 48 52q45 0 49 -37l43 -323v-12q0 -51 -49 -51q-45 0 -49 36l-15 107l-2 10q-41 -140 -208 -140q-202 0 -202 210v103q0 70 54 70q48 0 48 -50v-10q-2 -22 -2 -25v-13v-12q92 0 162 -10q93 -14 140 -68v13l-17 137v13zM228 119q100 0 100 49v1
q-70 21 -195 21q0 -71 95 -71z" />
    <glyph glyph-name="uni04F9" unicode="&#x4f9;" horiz-adv-x="565" 
d="M406 377q0 52 48 52q45 0 49 -37l43 -323v-12q0 -51 -49 -51q-45 0 -49 36l-15 107l-2 10q-41 -140 -208 -140q-202 0 -202 210v103q0 70 54 70q48 0 48 -50v-10q-2 -22 -2 -25v-13v-12q92 0 162 -10q93 -14 140 -68v13l-17 137v13zM228 119q100 0 100 49v1
q-70 21 -195 21q0 -71 95 -71z" />
    <glyph glyph-name="uni050C" unicode="&#x50c;" horiz-adv-x="369" 
d="M4 156q0 187 216 187q122 0 122 -94q0 -37 -50 -37q-38 0 -48 25q-10 26 -15 28h-19q-106 0 -106 -104q0 -81 71 -81q29 0 69 22q-75 -4 -75 39q0 35 43 39l107 10q53 5 53 -52q0 -66 -98 -113q-49 -23 -101 -23q-169 0 -169 154z" />
    <glyph glyph-name="uni050D" unicode="&#x50d;" horiz-adv-x="369" 
d="M4 156q0 187 216 187q122 0 122 -94q0 -37 -50 -37q-38 0 -48 25q-10 26 -15 28h-19q-106 0 -106 -104q0 -81 71 -81q29 0 69 22q-75 -4 -75 39q0 35 43 39l107 10q53 5 53 -52q0 -66 -98 -113q-49 -23 -101 -23q-169 0 -169 154z" />
    <glyph glyph-name="uni0518" unicode="&#x518;" horiz-adv-x="615" 
d="M318 436h2q40 13 58 13q180 0 212 -125q1 -9 1 -25q0 -111 -113 -125q-46 -6 -133 -6v-4q0 -29 70 -48q25 -7 73 -7h35q13 8 29 8q49 0 49 -49q0 -62 -115 -62q-149 0 -233 113l-6 7h-2l-165 -110q-14 -17 -40 -17q-50 0 -50 48q0 31 35 54q64 42 95 63l3 2
q-62 36 -80 55q-40 43 -40 85v70q0 42 67 60q36 10 86 10q4 0 21 -0.5t51 -1t70 -0.5q14 -8 20 -8zM323 266q51 0 102 3q66 3 66 28q0 49 -109 49q-59 0 -59 -80zM103 339v-9q0 -74 104 -74h11q18 57 18 88h-113q-18 0 -20 -5z" />
    <glyph glyph-name="uni0519" unicode="&#x519;" horiz-adv-x="615" 
d="M318 436h2q40 13 58 13q180 0 212 -125q1 -9 1 -25q0 -111 -113 -125q-46 -6 -133 -6v-4q0 -29 70 -48q25 -7 73 -7h35q13 8 29 8q49 0 49 -49q0 -62 -115 -62q-149 0 -233 113l-6 7h-2l-165 -110q-14 -17 -40 -17q-50 0 -50 48q0 31 35 54q64 42 95 63l3 2
q-62 36 -80 55q-40 43 -40 85v70q0 42 67 60q36 10 86 10q4 0 21 -0.5t51 -1t70 -0.5q14 -8 20 -8zM323 266q51 0 102 3q66 3 66 28q0 49 -109 49q-59 0 -59 -80zM103 339v-9q0 -74 104 -74h11q18 57 18 88h-113q-18 0 -20 -5z" />
    <glyph glyph-name="uni051A" unicode="&#x51a;" horiz-adv-x="478" 
d="M14 190q0 65 23 128q49 135 201 135q115 0 169 -135q17 -45 17 -118q0 -2 -0.5 -9t-1 -20.5t-0.5 -27.5v-7v-8q47 -23 47 -57q0 -50 -52 -50q-9 0 -40 12q-1 1 -3 1t-7 -3q-75 -48 -141 -48q-192 0 -212 168v39zM116 191q0 -103 107 -103h29q10 1 12 5q-70 34 -70 68
q0 50 51 50q17 0 74 -28q3 7 3 15q0 24 -10 73q-17 80 -73 80q-123 0 -123 -160z" />
    <glyph glyph-name="uni051B" unicode="&#x51b;" horiz-adv-x="478" 
d="M14 190q0 65 23 128q49 135 201 135q115 0 169 -135q17 -45 17 -118q0 -2 -0.5 -9t-1 -20.5t-0.5 -27.5v-7v-8q47 -23 47 -57q0 -50 -52 -50q-9 0 -40 12q-1 1 -3 1t-7 -3q-75 -48 -141 -48q-192 0 -212 168v39zM116 191q0 -103 107 -103h29q10 1 12 5q-70 34 -70 68
q0 50 51 50q17 0 74 -28q3 7 3 15q0 24 -10 73q-17 80 -73 80q-123 0 -123 -160z" />
    <glyph glyph-name="uni051C" unicode="&#x51c;" horiz-adv-x="497" 
d="M334 175l3 8l45 202q8 35 50 35q50 0 50 -51v-9l-20 -105l-58 -212q-15 -56 -65 -56q-33 0 -57 53q-39 84 -45 90l-3 3l-62 -100q-16 -28 -50 -28q-45 0 -60 60l-73 283v5q0 52 51 52q42 0 52 -42l46 -184l66 106q14 23 43 23q43 0 65 -70q20 -62 22 -63z" />
    <glyph glyph-name="uni051D" unicode="&#x51d;" horiz-adv-x="497" 
d="M334 175l3 8l45 202q8 35 50 35q50 0 50 -51v-9l-20 -105l-58 -212q-15 -56 -65 -56q-33 0 -57 53q-39 84 -45 90l-3 3l-62 -100q-16 -28 -50 -28q-45 0 -60 60l-73 283v5q0 52 51 52q42 0 52 -42l46 -184l66 106q14 23 43 23q43 0 65 -70q20 -62 22 -63z" />
    <glyph glyph-name="uni0526" unicode="&#x526;" horiz-adv-x="512" 
d="M49 404q10 40 51 40q48 0 49 -55q2 -73 3 -107l2 -32h133q98 0 122 -136q1 -3 3 -7q100 -46 100 -130q0 -70 -55 -70q-50 0 -50 50q0 3 5 25v1q0 12 -18 21q-73 26 -80 53q-9 92 -42 92h-123q-3 0 -5 -110q-10 -37 -48 -37q-39 0 -49 40v55v55q2 42 2 47q1 103 0 205z
" />
    <glyph glyph-name="uni0527" unicode="&#x527;" horiz-adv-x="512" 
d="M50 404q9 40 50 40q47 0 50 -55q0 -19 0.5 -42.5t1 -39t0.5 -25.5q2 -32 3 -32h132q98 0 123 -136q0 -3 2 -7q100 -46 100 -130q0 -70 -55 -70q-50 0 -50 50q0 3 5 25v1q0 12 -17 21q-73 25 -80 53q-11 92 -43 92h-122q-3 0 -5 -110q-10 -37 -49 -37t-49 40v55v55
q1 29 3 47q1 103 0 205z" />
    <glyph glyph-name="endash" unicode="&#x2013;" horiz-adv-x="408" 
d="M9 216q0 47 38 47h307q35 0 35 -48q0 -49 -37 -49h-303q-40 0 -40 50z" />
    <glyph glyph-name="emdash" unicode="&#x2014;" horiz-adv-x="635" 
d="M8 190q0 48 38 48h542q38 0 38 -48q0 -49 -38 -49h-542q-38 0 -38 49z" />
    <glyph glyph-name="quoteleft" unicode="&#x2018;" horiz-adv-x="175" 
d="M8 483q0 14 7 27l108 185q14 23 44 23q51 0 51 -50q0 -16 -10 -33l-105 -180q-13 -22 -43 -22q-52 0 -52 50z" />
    <glyph glyph-name="quoteright" unicode="&#x2019;" horiz-adv-x="275" 
d="M56 432q0 10 1 11l47 208q9 37 51 37q50 0 50 -53q0 -11 -1 -12l-47 -205q-9 -37 -50 -37q-51 0 -51 51z" />
    <glyph glyph-name="quotesinglbase" unicode="&#x201a;" horiz-adv-x="165" 
d="M33 91q6 42 49 42q51 0 51 -47v-103q0 -29 -15 -65q-32 -77 -75 -77q-50 0 -50 47q0 15 8 28q26 44 30 62q4 19 2 113z" />
    <glyph glyph-name="quotedblleft" unicode="&#x201c;" horiz-adv-x="401" 
d="M47 552q0 48 50 48q42 0 75 -78q15 -34 15 -65v-100q0 -50 -52 -50q-44 0 -48 43q1 46 0 92q-1 31 -15 55q-25 43 -25 55zM217 547q0 51 50 51q39 0 72 -73q18 -39 18 -73v-100q0 -47 -50 -47t-50 40v95q0 30 -13 50q-27 46 -27 57z" />
    <glyph glyph-name="quotedblright" unicode="&#x201d;" horiz-adv-x="359" 
d="M75 559q6 43 49 43q51 0 51 -48v-102q0 -30 -15 -65q-33 -78 -75 -78q-50 0 -50 48q0 14 8 27q25 44 30 63q4 19 2 112zM185 357q0 11 8 25q32 56 32 82v95q0 40 50 40t50 -47v-103q0 -30 -17 -70q-34 -73 -73 -73q-50 0 -50 51z" />
    <glyph glyph-name="quotedblbase" unicode="&#x201e;" horiz-adv-x="380" 
d="M176 -104q0 15 26 56q12 21 12 45v95q0 48 51 48q52 0 52 -108q0 -60 -15 -102q-32 -83 -77 -83q-49 0 -49 49zM42 95q9 40 50 40q50 0 50 -48v-100q0 -33 -15 -65q-38 -80 -75 -80q-50 0 -50 50q0 5 2 15q39 109 38 188z" />
    <glyph glyph-name="dagger" unicode="&#x2020;" horiz-adv-x="438" 
d="M136 561q0 53 48 53q47 0 52 -53q4 -52 10 -146h120q45 0 45 -52q0 -51 -45 -51h-115l15 -236q1 -2 1 -14q0 -56 -53 -56q-45 0 -48 42l-16 264h-106q-43 0 -43 49q0 54 43 54h99q1 5 1 16q-7 88 -8 115v15z" />
    <glyph glyph-name="daggerdbl" unicode="&#x2021;" horiz-adv-x="474" 
d="M164 566q0 53 47 53q48 0 53 -53q4 -52 10 -146h120q45 0 45 -52q0 -51 -45 -51h-112q0 -60 2 -60h113q42 0 42 -51t-47 -51h-100q0 -5 0.5 -14.5t1 -27t0.5 -32.5v-15q0 -55 -52 -55q-44 0 -48 42q-4 102 -7 102h-110q-48 0 -48 53q0 49 40 49h109q0 60 -1 60h-105
q-43 0 -43 49q0 54 43 54h99q1 5 1 16q-7 88 -8 115v15z" />
    <glyph glyph-name="bullet" unicode="&#x2022;" horiz-adv-x="268" 
d="M12 236q0 110 112 110q134 0 134 -126q0 -56 -48 -94q-50 -40 -71 -40q-127 0 -127 150z" />
    <glyph glyph-name="ellipsis" unicode="&#x2026;" horiz-adv-x="412" 
d="M8 51q0 69 56 69q47 0 47 -58q0 -60 -55 -60q-48 0 -48 49zM151 51q0 69 56 69q49 0 49 -56q0 -62 -55 -62q-50 0 -50 49zM296 52q0 68 55 68q50 0 50 -58q0 -60 -57 -60q-48 0 -48 50z" />
    <glyph glyph-name="perthousand" unicode="&#x2030;" horiz-adv-x="492" 
d="M41 47q0 14 13 36l250 433q10 18 39 18q49 0 49 -49q0 -18 -3 -22l-257 -447q-12 -20 -40 -20q-51 0 -51 51zM17 337q0 69 57 69q53 0 53 -49q0 -69 -60 -69q-50 0 -50 49zM371 130q0 58 57 58q51 0 51 -55q0 -53 -59 -53q-49 0 -49 50zM252 130q0 51 57 51q50 0 50 -57
q0 -51 -50 -51q-57 0 -57 57z" />
    <glyph glyph-name="guilsinglleft" unicode="&#x2039;" horiz-adv-x="310" 
d="M33 235q0 25 33 50q50 40 90 70q31 23 54 23q51 0 51 -49q0 -26 -45 -59q-53 -38 -53 -43v-2q76 -79 76 -104q0 -51 -51 -51q-20 0 -27 7l-108 110q-20 22 -20 48z" />
    <glyph glyph-name="guilsinglright" unicode="&#x203a;" horiz-adv-x="310" 
d="M46 359q0 50 54 50q20 0 58 -27q27 -20 90 -70q26 -21 26 -45q0 -27 -18 -45l-103 -108q-12 -13 -35 -13q-50 0 -50 52q0 19 8 29l70 77q-9 10 -40 33q-34 22 -38 25q-22 16 -22 42z" />
    <glyph glyph-name="Euro" unicode="&#x20ac;" horiz-adv-x="502" 
d="M21 213q0 203 193 270q95 33 146 33q49 0 49 -46q0 -42 -37 -52q-101 -18 -133 -32q-60 -28 -97 -88h7h8q95 9 117 10q3 1 25 1q17 0 25 -1q40 -9 40 -49q0 -37 -35 -48q-121 -5 -205 -20v-4q0 -48 85 -66q59 -12 88 -13q101 -4 155 -5q35 -11 35 -47q0 -40 -40 -50h-63
q-105 0 -165 10q-198 32 -198 197z" />
    <glyph glyph-name="uni2116" unicode="&#x2116;" horiz-adv-x="546" 
d="M125 351l158 -158l5 160q1 43 51 43q45 0 51 -43v-36q0 -87 -7 -254q-3 -50 -59 -50q-25 0 -59 43q-12 14 -15 17q-57 60 -115 118v-8l13 -137v-8q0 -52 -52 -52q-46 0 -51 45l-20 237v19q0 79 56 79q29 0 44 -15zM427 290q0 76 53 76q38 0 50 -38v-22q0 -78 -52 -78
q-40 0 -50 40q-1 7 -1 22zM402 137q0 49 66 49q65 0 65 -51q0 -52 -67 -52h-21q-43 13 -43 54z" />
    <glyph glyph-name="trademark" unicode="&#x2122;" horiz-adv-x="641" 
d="M449 393h3q43 48 71 48q57 0 61 -75q11 -140 11 -168q0 -15 -1 -22q-11 -38 -50 -38q-40 0 -50 40q-6 82 -10 95q-23 -14 -52 -12q-2 -93 -54 -93q-51 0 -51 58q0 19 5 142q6 58 54 58q34 0 63 -33zM9 380q0 42 40 51h72q99 0 148 -3q38 -11 38 -52q0 -49 -91 -49v-101
q0 -38 -52 -38q-51 0 -51 38v100q-104 2 -104 54z" />
    <glyph glyph-name="arrowleft" unicode="&#x2190;" horiz-adv-x="508" 
d="M152 356q13 10 34 10q46 0 46 -49q0 -19 -5 -26l-27 -30h70q31 -1 94.5 -2t95.5 -1q35 -9 35 -48q0 -50 -38 -50h-257q2 -5 5 -7q65 -57 65 -78q0 -49 -50 -49q-17 0 -25 5q-28 24 -43 35q-55 41 -122 87q-21 13 -21 48q0 16 13 32q61 64 130 123z" />
    <glyph glyph-name="arrowright" unicode="&#x2192;" horiz-adv-x="503" 
d="M262 356q0 49 49 49q23 0 33 -10l128 -120q15 -13 15 -35q0 -33 -20 -48l-133 -95q-35 -32 -57 -32q-50 0 -50 49q0 24 20 41q40 34 50 44h-258q-40 0 -40 50q0 37 38 48q31 1 94.5 2t95.5 1h70l-28 30q-7 7 -7 26z" />
  </font>
</defs>
</svg>
